<svg xmlns="http://www.w3.org/2000/svg" width="52" height="52" fill="none" viewBox="0 0 52 52"><path fill="#36363D" d="M43.3922 11.8712C43.3783 11.8472 43.3553 11.8284 43.3273 11.8181C40.0855 10.4908 36.6645 9.54429 33.1498 9.00232C33.1179 8.99702 33.0849 9.00085 33.0556 9.01324C33.0262 9.02564 33.002 9.04598 32.9863 9.07138C32.5205 9.8259 32.0976 10.6009 31.7193 11.3935C27.9307 10.8802 24.0771 10.8802 20.2885 11.3935C19.9077 10.5989 19.478 9.82369 19.0015 9.07138C18.9852 9.04654 18.9608 9.02666 18.9316 9.01434C18.9024 9.00203 18.8698 8.99784 18.8379 9.00232C15.3229 9.54315 11.9017 10.4897 8.6603 11.8182C8.63256 11.8287 8.60914 11.8466 8.5933 11.8695C2.11122 20.5081 0.33553 28.9344 1.20662 37.2563C1.20907 37.2767 1.21609 37.2964 1.22727 37.3144C1.23844 37.3323 1.25354 37.348 1.27167 37.3606C5.04613 39.8547 9.2679 41.7584 13.7568 42.9905C13.7884 42.999 13.8222 42.9986 13.8536 42.9894C13.8849 42.9802 13.9124 42.9627 13.9323 42.9392C14.8964 41.7685 15.7507 40.5288 16.4864 39.2328C16.4965 39.215 16.5023 39.1955 16.5034 39.1756C16.5044 39.1557 16.5007 39.1358 16.4926 39.1172C16.4844 39.0987 16.4719 39.0819 16.4559 39.068C16.4399 39.054 16.4208 39.0433 16.3998 39.0364C15.0526 38.5764 13.7484 38.0219 12.4994 37.3781C12.4767 37.3662 12.4577 37.3495 12.4439 37.3294C12.4302 37.3094 12.4222 37.2867 12.4207 37.2632C12.4191 37.2398 12.424 37.2164 12.435 37.195C12.446 37.1737 12.4627 37.1551 12.4837 37.1409C12.7465 36.9657 13.0048 36.7851 13.2583 36.5993C13.2805 36.5829 13.3074 36.5725 13.336 36.569C13.3645 36.5656 13.3936 36.5693 13.4198 36.5799C21.6026 39.9125 30.4616 39.9125 38.5475 36.5799C38.5738 36.5687 38.6032 36.5644 38.6322 36.5675C38.6611 36.5707 38.6885 36.5811 38.7111 36.5975C38.9649 36.7843 39.2238 36.9655 39.4876 37.1409C39.5087 37.1549 39.5256 37.1734 39.5367 37.1947C39.5479 37.2159 39.553 37.2393 39.5517 37.2628C39.5503 37.2862 39.5425 37.309 39.5289 37.3291C39.5153 37.3492 39.4964 37.366 39.4738 37.3781C38.2277 38.0273 36.9223 38.5815 35.5716 39.0347C35.5506 39.0418 35.5316 39.0528 35.5157 39.0669C35.4998 39.0811 35.4875 39.0981 35.4794 39.1168C35.4714 39.1355 35.4679 39.1555 35.4691 39.1755C35.4704 39.1955 35.4763 39.215 35.4866 39.2328C36.2347 40.5216 37.0877 41.7597 38.0388 42.9372C38.0581 42.9613 38.0854 42.9794 38.1169 42.989C38.1484 42.9985 38.1824 42.999 38.2142 42.9903C42.7112 41.7623 46.9404 39.8584 50.7196 37.3606C50.738 37.3487 50.7533 37.3333 50.7645 37.3156C50.7757 37.2979 50.7826 37.2783 50.7846 37.258C51.8275 27.6371 49.0387 19.2799 43.3922 11.8712ZM17.7085 32.1891C15.2449 32.1891 13.2149 30.1716 13.2149 27.6937C13.2149 25.2159 15.2055 23.1982 17.7085 23.1982C20.231 23.1982 22.2413 25.2335 22.2019 27.6936C22.2019 30.1716 20.2113 32.1891 17.7085 32.1891ZM34.3225 32.1891C31.8589 32.1891 29.829 30.1716 29.829 27.6937C29.829 25.2159 31.8196 23.1982 34.3225 23.1982C36.8452 23.1982 38.8554 25.2335 38.816 27.6936C38.816 30.1716 36.8452 32.1891 34.3225 32.1891Z"/></svg>