<svg width="435" height="200" viewBox="0 0 435 200" fill="none" xmlns="http://www.w3.org/2000/svg">
    <mask id="mask0_186_3178" style="mask-type:alpha" x="0" y="0" width="435" height="200">
        <rect width="435" height="200" rx="8" fill="#FFFAE5"/>
    </mask>
    <g mask="url(#mask0_186_3178)">
        <rect width="435" height="200" rx="8" fill="#212126"/>
        <path fill-rule="evenodd" clip-rule="evenodd" d="M114.864 51.4302L76 72.2679L115.226 95.557L152 73.4936L114.864 51.4302Z" fill="#4D4D56"/>
        <path fill-rule="evenodd" clip-rule="evenodd" d="M115 95.6704V170.773L76 148.043V72.4907L115 95.6704Z" fill="url(#paint0_linear_186_3178)"/>
        <path fill-rule="evenodd" clip-rule="evenodd" d="M115 95.7908V170.773L152 148.925V73.4937L115 95.7908Z" fill="url(#paint1_linear_186_3178)"/>
        <path fill-rule="evenodd" clip-rule="evenodd" d="M114.477 24.4651L83.003 42.6643C81.1449 43.7387 80 45.7261 80 47.8772V71.2946C80 73.2885 81.6118 74.9049 83.6 74.9049C84.2312 74.9049 84.8513 74.7385 85.3982 74.4223L116.872 56.2231C118.73 55.1487 119.875 53.1612 119.875 51.0102V27.5928C119.875 25.5988 118.263 23.9824 116.275 23.9824C115.644 23.9824 115.024 24.1489 114.477 24.4651Z" fill="#484851"/>
        <path fill-rule="evenodd" clip-rule="evenodd" d="M118.692 25.7798C118.166 25.7798 117.649 25.9185 117.193 26.182L85.7196 44.3812C84.8835 44.8647 84.2078 45.5536 83.7411 46.3636C83.2745 47.1737 83.0169 48.1048 83.0169 49.0728V72.4902C83.0169 73.321 83.3527 74.0732 83.8956 74.6176C84.4385 75.1621 85.1885 75.4988 86.0169 75.4988C86.5429 75.4988 87.0597 75.3601 87.5154 75.0966L118.989 56.8974C119.825 56.4139 120.501 55.725 120.968 54.915C121.434 54.105 121.692 53.1738 121.692 52.2058V28.7884C121.692 27.9576 121.356 27.2055 120.813 26.661C120.27 26.1165 119.52 25.7798 118.692 25.7798Z" fill="#36363C"/>
        <path fill-rule="evenodd" clip-rule="evenodd" d="M118.063 35.5734L103.547 44.1998C103.182 44.4165 102.958 44.8101 102.958 45.2352V59.887C102.958 60.5516 103.496 61.0904 104.158 61.0904C104.374 61.0904 104.585 61.0324 104.77 60.9223L119.287 52.2959C119.651 52.0792 119.875 51.6856 119.875 51.2605V36.6087C119.875 35.9441 119.338 35.4053 118.675 35.4053C118.46 35.4053 118.248 35.4633 118.063 35.5734Z" fill="url(#paint2_linear_186_3178)"/>
        <path fill-rule="evenodd" clip-rule="evenodd" d="M109.846 47.0063L106.584 51.2922V51.971L109.846 53.6289V52.2383L107.888 51.2922L110.036 48.0784L109.846 47.0063ZM111.235 43.695L110.036 44.1057L113.141 52.8011L114.352 52.5162L111.235 43.695ZM115.215 42.8672V44.411L117.138 45.4949L115.215 48.9419L115.457 50.3176L118.667 44.7159L115.215 42.8672Z" fill="#FEFFFE"/>
        <path fill-rule="evenodd" clip-rule="evenodd" d="M117.431 30.4633L102.329 39.6194C101.97 39.8374 101.75 40.228 101.75 40.6493V41.4189C101.75 41.87 102.115 42.2357 102.565 42.2357C102.713 42.2357 102.859 42.195 102.986 42.1179L118.088 32.9617C118.447 32.7438 118.667 32.3531 118.667 31.9318V31.1623C118.667 30.7112 118.302 30.3455 117.853 30.3455C117.704 30.3455 117.558 30.3862 117.431 30.4633Z" fill="#4D4D56"/>
        <path fill-rule="evenodd" clip-rule="evenodd" d="M99.9421 46.3238L85.4255 54.8773C85.0586 55.0935 84.8333 55.4883 84.8333 55.915V59.8961C84.8333 60.5608 85.3706 61.0996 86.0333 61.0996C86.2471 61.0996 86.4569 61.0423 86.6412 60.9337L101.158 52.3802C101.525 52.164 101.75 51.7693 101.75 51.3426V47.3614C101.75 46.6968 101.213 46.158 100.55 46.158C100.336 46.158 100.126 46.2152 99.9421 46.3238Z" fill="#4D4D56"/>
        <path fill-rule="evenodd" clip-rule="evenodd" d="M98.6837 56.0474L91.417 60.8294C91.0789 61.0519 90.8753 61.4301 90.8753 61.8356V65.7485C90.8753 66.4132 91.4126 66.952 92.0753 66.952C92.3093 66.952 92.5381 66.8834 92.7337 66.7547L100 61.9727C100.338 61.7503 100.542 61.372 100.542 60.9665V57.0536C100.542 56.3889 100.005 55.8501 99.342 55.8501C99.1081 55.8501 98.8792 55.9187 98.6837 56.0474Z" fill="#4D4D56"/>
        <path d="M118.382 52.2761C118.382 52.2761 117.312 52.6019 116.633 52.3593C115.953 52.1166 114.783 52.5149 114.594 52.8088C114.405 53.1027 114.475 53.2187 114.811 53.3202C115.147 53.4217 116.338 54.023 117.122 53.675C117.904 53.327 118.926 53.3144 118.926 53.3144L118.383 52.2761H118.382Z" fill="#E49963"/>
        <path d="M127.625 41.2716C127.625 41.2716 126.424 51.3856 124.435 52.2915C123.453 52.7381 119.115 53.7522 117.831 53.8537C117.831 53.8537 117.516 53.5511 117.593 52.3224C117.593 52.3224 122.138 50.3454 122.783 49.2714C123.745 47.6714 122.187 42.7362 123.393 41.2339C124.599 39.7316 126.629 39.0858 127.624 41.2726L127.625 41.2716Z" fill="#FC8400"/>
        <path d="M126.67 81.374H126.61C126.168 81.374 125.81 81.0144 125.81 80.5708V64.9538C125.81 64.5102 126.168 64.1506 126.61 64.1506H126.67C127.112 64.1506 127.471 64.5102 127.471 64.9538V80.5708C127.471 81.0144 127.112 81.374 126.67 81.374Z" fill="#28282C"/>
        <path d="M131.768 82.5062C131.23 81.1885 129.139 80.2063 126.641 80.2063C124.142 80.2063 122.052 81.1885 121.514 82.5062H131.769H131.768Z" fill="#28282C"/>
        <path d="M122.961 78.0378H130.321C130.446 78.0378 130.546 77.9412 130.546 77.8213V77.5603C130.546 77.4404 130.446 77.3437 130.321 77.3437H122.961C122.836 77.3437 122.735 77.4404 122.735 77.5603V77.8213C122.735 77.9412 122.836 78.0378 122.961 78.0378Z" fill="#28282C"/>
        <path d="M127.22 62.5806C126.87 63.2844 126.464 63.9447 126.046 64.5692C124.754 66.4998 123.348 68.092 123.103 69.5972C123.055 69.8969 122.977 70.2198 122.876 70.5601C122.774 70.9052 122.647 71.2677 122.502 71.6419C121.954 73.0514 121.134 74.632 120.316 76.0676C118.902 78.5502 117.572 80.6209 117.572 80.6209L115.133 80.4982C115.231 80.2082 116.294 76.7811 117.717 72.5922C118.295 70.8917 118.909 69.0829 119.502 67.3389C119.581 67.1059 119.661 66.8739 119.738 66.6438C119.92 66.1102 120.098 65.5843 120.272 65.0729C121.608 61.1402 122.673 58.0079 122.673 58.0079C122.673 58.0079 128.013 55.6114 128.568 57.164C129.025 58.4439 128.653 59.6987 127.219 62.5796L127.22 62.5806Z" fill="#656577"/>
        <path d="M117.497 80.097C117.497 80.097 117.372 82.481 116.983 82.5148C116.931 82.5197 115.008 82.5197 115.008 82.5197L112.553 82.5032C112.553 82.5032 112.569 81.8024 113.286 81.6544C114.003 81.5065 115.204 80.9091 115.639 79.7857C116.096 78.6034 117.496 80.098 117.496 80.098L117.497 80.097Z" fill="#B7BAC8"/>
        <path d="M123.145 73.2864C123.145 73.2864 124.841 74.5779 124.677 74.9965C124.655 75.0526 123.718 77.0412 123.718 77.0412L122.508 79.5721C122.508 79.5721 122 79.2144 122.24 78.3995C122.481 77.5855 122.626 76.0513 122.01 75.0545C121.361 74.0056 123.145 73.2864 123.145 73.2864Z" fill="#B7BAC8"/>
        <path d="M120.756 56.9426C120.756 56.9426 114.146 61.8179 113.398 65.1416C112.65 68.4652 122.316 75.5563 122.316 75.5563C122.316 75.5563 123.376 74.4484 123.562 73.6363C123.562 73.6363 119.194 67.4366 118.246 66.0464C117.664 65.1928 126.852 63.0921 127.974 61.0232C129.097 58.9554 128.694 57.2152 128.694 57.2152L120.756 56.9436V56.9426Z" fill="#9393A2"/>
        <path d="M120.066 67.655H133.215C133.648 67.655 134 67.3186 134 66.9029V63.9746C134 63.5599 133.649 63.2225 133.215 63.2225H120.066C119.633 63.2225 119.281 63.5589 119.281 63.9746V66.9029C119.281 67.3176 119.632 67.655 120.066 67.655Z" fill="#28282C"/>
        <path d="M123.95 39.5375C123.291 40.0208 122.929 40.6337 122.929 40.6337C124.535 41.1258 127.198 39.3634 127.198 39.3634C127.198 39.3634 126.164 38.5407 125.782 36.7329C125.762 36.6421 125.744 36.5483 125.729 36.4526C125.679 36.1481 125.647 35.8184 125.642 35.4626L124.905 36.2457L123.679 37.5479C123.679 37.5479 123.707 38.0883 123.86 39.0174C123.886 39.1798 123.918 39.3538 123.953 39.5384L123.95 39.5375Z" fill="#E49963"/>
        <path d="M128.897 48.5192C128.667 52.1841 128.97 57.7574 128.708 58.7232C128.483 59.5555 125.917 59.0606 124.893 58.7831C124.513 58.6806 124.054 58.5337 123.58 58.3597C122.257 57.8744 120.815 57.1812 120.661 56.6669C120.655 56.6466 120.65 56.6273 120.647 56.6079C120.633 56.5335 120.636 56.4629 120.65 56.3924C120.702 56.1304 120.9 55.8461 120.923 55.1975C120.95 54.4724 120.946 53.6188 120.969 52.7013C120.97 52.5979 120.971 52.4858 120.981 52.3823V52.3446C120.981 52.3253 120.982 52.3059 120.983 52.2856C121.005 51.2619 121.051 50.1859 121.103 49.1186C121.136 48.4486 121.175 47.7845 121.219 47.1484C121.334 45.5069 121.49 44.0471 121.696 43.1238C122.032 41.6196 122.774 40.6383 123.449 39.9191L123.937 39.4232C124.482 39.5643 125.127 39.4705 125.709 39.1438C126.339 38.789 126.557 38.5347 126.667 38.6304C128.123 39.9607 129.17 44.0384 128.899 48.5182L128.897 48.5192Z" fill="#FFA103"/>
        <path d="M123.58 58.3588C122.257 57.8735 120.815 57.1803 120.661 56.666C120.655 56.6457 120.65 56.6264 120.647 56.607C120.647 56.5355 120.649 56.463 120.65 56.3915C120.701 56.1295 120.9 55.8452 120.923 55.1966C120.95 54.4715 120.946 53.6179 120.969 52.7004C120.97 52.597 120.971 52.4849 120.981 52.3814V52.3437C120.981 52.3244 120.982 52.305 120.983 52.2847L125.98 49.6001C125.98 49.6001 126.267 54.371 123.581 58.3578L123.58 58.3588Z" fill="#FC8400"/>
        <path d="M123.675 37.5468C123.675 37.5468 123.704 38.0872 123.857 39.0163C125.055 38.558 125.598 37.2762 125.779 36.7328C125.831 36.5791 125.853 36.4844 125.853 36.4844C125.853 36.4844 125.807 36.4728 125.727 36.4525C125.558 36.41 125.242 36.3307 124.902 36.2456L123.675 37.5478V37.5468Z" fill="#D68D5D"/>
        <path d="M123.19 37.5334C123.19 37.5334 125.822 37.8853 125.981 35.9402C126.141 33.9951 126.589 32.7316 124.914 32.4241C123.241 32.1177 122.852 32.8215 122.666 33.4557C122.479 34.0898 122.508 37.3913 123.189 37.5334H123.19Z" fill="#E49963"/>
        <path d="M125.971 36.0745C125.971 36.0745 125.805 33.4933 123.409 33.2255C121.768 33.0428 122.683 31.3694 122.858 31.1025C122.858 31.1025 124.115 31.3065 125.404 31.5588C128.108 32.0886 126.237 35.6723 125.972 36.0735L125.971 36.0745Z" fill="#B7BAC8"/>
        <path d="M113.231 54.811L113.001 54.8999L111.042 47.7547L111.272 47.6658L113.231 54.811Z" fill="#4A75CB"/>
        <path d="M119.647 54.26L112.992 54.4282L113.002 54.9L119.656 54.7308L119.647 54.26Z" fill="#4A75CB"/>
        <path d="M118.932 53.8306C118.932 53.8306 117.899 54.2936 117.201 54.1409C116.504 53.9881 115.377 54.5372 115.217 54.8534C115.057 55.1695 115.137 55.2768 115.481 55.3338C115.825 55.3909 117.064 55.8336 117.81 55.3851C118.555 54.9365 119.569 54.7905 119.569 54.7905L118.931 53.8296L118.932 53.8306Z" fill="#E49963"/>
        <path d="M127.095 41.6864C127.095 41.6864 126.842 51.8962 124.949 53.0562C124.015 53.6286 119.798 55.2024 118.531 55.4712C118.531 55.4712 118.19 55.2121 118.152 53.9795C118.152 53.9795 122.485 51.4215 123.027 50.2691C123.833 48.5532 121.825 43.8509 122.885 42.2007C123.944 40.5495 125.901 39.6427 127.094 41.6864H127.095Z" fill="#FFA103"/>
        <path fill-rule="evenodd" clip-rule="evenodd" d="M57.0801 121.632L31 136.334L57.0801 152.022L82 136.334L57.0801 121.632Z" fill="#4D4D56"/>
        <path fill-rule="evenodd" clip-rule="evenodd" d="M56.5 151.701V201.863L31 186.681V136.219L56.5 151.701Z" fill="url(#paint3_linear_186_3178)"/>
        <path fill-rule="evenodd" clip-rule="evenodd" d="M56.5 151.265V201.863L82 187.12V136.219L56.5 151.265Z" fill="url(#paint4_linear_186_3178)"/>
        <path opacity="0.3" fill-rule="evenodd" clip-rule="evenodd" d="M55.108 109.191L30.9115 123.56C29.961 124.124 29.6468 125.354 30.2096 126.308C30.3814 126.599 30.6238 126.841 30.9142 127.013L55.1107 141.33C55.7297 141.696 56.4972 141.701 57.1209 141.343L82.0495 127.026C83.008 126.476 83.3401 125.25 82.7912 124.289C82.6149 123.98 82.3598 123.724 82.0522 123.547L57.1236 109.178C56.4985 108.818 55.7284 108.823 55.108 109.191Z" fill="#D5DBED"/>
        <path fill-rule="evenodd" clip-rule="evenodd" d="M55.108 102.171L30.9115 116.54C29.961 117.104 29.6468 118.334 30.2096 119.287C30.3814 119.578 30.6238 119.821 30.9142 119.993L55.1107 134.31C55.7297 134.676 56.4972 134.681 57.1209 134.323L82.0495 120.006C83.008 119.456 83.3401 118.23 82.7912 117.269C82.6149 116.96 82.3598 116.704 82.0522 116.526L57.1236 102.158C56.4985 101.797 55.7284 101.802 55.108 102.171Z" fill="#4D4D56"/>
        <path fill-rule="evenodd" clip-rule="evenodd" d="M55.1216 102.132L51.3354 104.261L79.4476 120.895L81.5799 119.9C82.5814 119.432 83.0154 118.239 82.5493 117.235C82.3753 116.86 82.0901 116.548 81.7327 116.342L57.0965 102.142C56.486 101.79 55.7358 101.786 55.1216 102.132Z" fill="#60606B"/>
        <path fill-rule="evenodd" clip-rule="evenodd" d="M56.7949 103.682C57.3472 104.016 57.7949 104.736 57.7949 105.29C57.7949 105.844 57.3472 106.022 56.7949 105.688C56.2426 105.354 55.7949 104.634 55.7949 104.08C55.7949 103.526 56.2426 103.348 56.7949 103.682ZM59.7949 105.496C60.3472 105.83 60.7949 106.55 60.7949 107.104C60.7949 107.658 60.3472 107.836 59.7949 107.502C59.2426 107.168 58.7949 106.448 58.7949 105.894C58.7949 105.341 59.2426 105.162 59.7949 105.496ZM62.7949 107.31C63.3472 107.644 63.7949 108.364 63.7949 108.918C63.7949 109.472 63.3472 109.65 62.7949 109.316C62.2426 108.982 61.7949 108.262 61.7949 107.709C61.7949 107.155 62.2426 106.976 62.7949 107.31Z" fill="#4D4D56"/>
        <path fill-rule="evenodd" clip-rule="evenodd" d="M60.7952 118.238L64.2156 123.249L63.5187 123.975L57.3789 122.974L57.7952 121.847L62.2742 122.543L59.7952 118.905L60.7952 118.238ZM59.2402 115.54L60.3972 116.656L50.6447 120.895L50.079 119.588L59.2402 115.54ZM46.2116 111.614L52.7132 112.374V113.764L48.374 113.307L50.5756 116.235L49.797 117.38L45.7329 112.374L46.2116 111.614Z" fill="url(#paint5_linear_186_3178)"/>
        <path fill-rule="evenodd" clip-rule="evenodd" d="M221.486 84.5254L155.519 120.78L221.486 159.466L284.519 120.78L221.486 84.5254Z" fill="#4D4D56"/>
        <path fill-rule="evenodd" clip-rule="evenodd" d="M221.672 158.258V285.102L155.519 246.713V120.894L221.672 158.258Z" fill="url(#paint6_linear_186_3178)"/>
        <path fill-rule="evenodd" clip-rule="evenodd" d="M221.672 158.531V285.102L284.519 248.223V120.894L221.672 158.531Z" fill="url(#paint7_linear_186_3178)"/>
        <path d="M235.799 96.4781C235.571 96.348 235.291 96.3481 235.062 96.4784C228.108 99.9632 222.893 102.577 219.416 104.319C219.401 104.327 219.379 104.526 219.349 104.917C219.367 105.363 219.374 105.672 219.371 105.844C219.369 105.973 219.4 106.106 219.469 106.227C219.536 106.345 219.633 106.443 219.751 106.511L245.734 121.291C246.534 121.746 247.514 121.746 248.314 121.29L262.704 113.091C262.942 112.956 263.078 112.709 263.083 112.452C263.085 112.365 263.093 112.109 263.105 111.685C263.105 111.058 263.043 110.745 262.918 110.745C254.565 110.745 245.525 105.989 235.799 96.4781Z" fill="black"/>
        <path fill-rule="evenodd" clip-rule="evenodd" d="M235.799 96.4781C235.571 96.348 235.291 96.3481 235.062 96.4784C228.108 99.9632 222.893 102.577 219.416 104.319C219.401 104.327 219.379 104.526 219.349 104.917C219.367 105.363 219.374 105.672 219.371 105.844C219.369 105.973 219.4 106.106 219.469 106.227C219.536 106.345 219.633 106.443 219.751 106.511L245.734 121.291C246.534 121.746 247.514 121.746 248.314 121.29L262.704 113.091C262.942 112.956 263.078 112.709 263.083 112.452C263.085 112.365 263.093 112.109 263.105 111.685C263.105 111.058 263.043 110.745 262.918 110.745C254.565 110.745 245.525 105.989 235.799 96.4781Z" fill="#2D2D31"/>
        <path d="M262.704 110.279L235.799 94.974C235.571 94.8439 235.291 94.844 235.062 94.9742L219.751 103.698C219.391 103.902 219.265 104.361 219.469 104.723C219.535 104.841 219.633 104.939 219.751 105.006L245.734 119.787C246.534 120.242 247.514 120.242 248.314 119.786L262.704 111.587C263.064 111.383 263.19 110.924 262.986 110.562C262.919 110.444 262.822 110.346 262.704 110.279Z" fill="#4D4D56"/>
        <path d="M250.016 98.1485L233.561 88.7483L248.52 112.061L250.016 111.121V98.1485Z" fill="#2D2D31"/>
        <path fill-rule="evenodd" clip-rule="evenodd" d="M248.521 99.0884L232.065 89.6882V102.66L248.521 112.061V99.0884Z" fill="#EDEDF7"/>
        <path d="M248.521 99.0884L232.065 89.6882V102.66L248.521 112.061V99.0884Z" fill="#37373D"/>
        <path d="M276.151 58.5523L214.66 23.5935C214.1 23.275 213.446 23.2786 212.91 23.5451C212.693 23.6526 211.973 24.0173 210.748 24.6392C210.374 25.0496 210.187 25.363 210.187 25.5792L211.87 75.87C211.87 77.9031 212.958 79.7788 214.718 80.7795L276.008 116.761C276.995 116.288 277.671 115.95 278.038 115.746C278.329 115.583 278.582 115.341 278.758 115.027C278.917 114.745 279 114.426 279 114.102V63.4619C279 61.4288 277.912 59.553 276.151 58.5523Z" fill="#4D4D56"/>
        <path d="M274.281 59.4923L212.79 24.5334C211.891 24.0223 210.75 24.3407 210.242 25.2445C210.083 25.5268 210 25.8456 210 26.1699V76.8099C210 78.843 211.088 80.7188 212.848 81.7195L274.34 116.678C275.239 117.189 276.379 116.871 276.888 115.967C277.046 115.685 277.13 115.366 277.13 115.042V64.4018C277.13 62.3687 276.042 60.493 274.281 59.4923Z" fill="#34343A"/>
        <path d="M277.13 109.993L210 71.8279V76.8099C210 78.843 211.088 80.7187 212.848 81.7195L274.34 116.678C275.239 117.189 276.379 116.871 276.888 115.967C277.046 115.685 277.13 115.366 277.13 115.042V109.993Z" fill="#28282C"/>
        <path d="M259.927 91.1643V93.9844L269.276 99.3092V96.4891L259.927 91.1643Z" fill="#4D4D56"/>
        <path d="M244.406 77.625V80.4763L269.276 94.609V91.789L258.057 85.413V85.3993L255.439 83.9083V83.9254L253.569 82.8628V82.8434L244.406 77.625Z" fill="#4D4D56"/>
        <path fill-rule="evenodd" clip-rule="evenodd" d="M259.927 62.3997V74.8079L269.276 80.1329V67.7247L259.927 62.3997Z" fill="url(#paint8_linear_186_3178)"/>
        <path d="M235.618 48.5554V75.4399L242.537 79.3802V52.4956L235.618 48.5554Z" fill="#4D4D56"/>
        <path d="M224.585 71.0366V73.8567L233.748 79.0749V76.2548L224.585 71.0366Z" fill="#4D4D56"/>
        <path d="M224.585 66.3364V69.1565L233.748 74.3747V71.5546L224.585 66.3364Z" fill="#FEC11B"/>
        <path d="M255.439 69.4319V72.2519L258.057 73.7428V70.9227L255.439 69.4319Z" fill="#D5DAF0"/>
        <path d="M244.406 63.1487V65.9687L253.569 71.1869V68.3669L244.406 63.1487Z" fill="#4D4D56"/>
        <path d="M224.585 61.4485V64.2685L233.748 69.4868V66.6667L224.585 61.4485Z" fill="#4D4D56"/>
        <path d="M255.439 64.7319V67.552L258.057 69.0428V66.2228L255.439 64.7319Z" fill="#D5DAF0"/>
        <path d="M216.732 61.8638V64.6838L222.715 68.0918V65.2717L216.732 61.8638Z" fill="#4D4D56"/>
        <path d="M244.406 58.4487V61.2688L253.569 66.487V63.6669L244.406 58.4487Z" fill="#4D4D56"/>
        <path d="M216.732 52.0876V54.9077L216.919 55.0141V55.0564L233.748 64.5987V61.7786L222.716 55.5232V55.4954L216.732 52.0876Z" fill="#4D4D56"/>
        <path d="M255.439 59.8438V62.6638L258.057 64.1547V61.3346L255.439 59.8438Z" fill="#D5DAF0"/>
        <path fill-rule="evenodd" clip-rule="evenodd" d="M216.732 56.9756V59.7956L222.715 63.2036V60.3835L216.732 56.9756Z" fill="url(#paint9_linear_186_3178)"/>
        <path d="M244.406 53.5605V56.3806L253.569 61.5988V58.7788L244.406 53.5605Z" fill="#4D4D56"/>
        <path d="M216.732 47.3875V50.2075L216.919 50.3139V50.3562L233.748 59.8985V57.0785L222.716 50.823V50.7952L216.732 47.3875Z" fill="#4D4D56"/>
        <path fill-rule="evenodd" clip-rule="evenodd" d="M216.732 42.6875V45.5075L216.919 45.614V45.6563L233.748 55.1986V52.3785L222.716 46.1229V46.0952L216.732 42.6875Z" fill="url(#paint10_linear_186_3178)"/>
        <path d="M216.732 37.7993V40.6194L216.919 40.7258V40.7681L233.748 50.3104V47.4903L222.716 41.2347V41.2071L216.732 37.7993Z" fill="#4D4D56"/>
        <path fill-rule="evenodd" clip-rule="evenodd" d="M249.481 56.0684L269.215 67.1724V86.8453L249.481 75.8038V56.0684Z" fill="url(#paint11_linear_186_3178)"/>
        <path fill-rule="evenodd" clip-rule="evenodd" d="M262.435 70.3762L266.214 75.5685V76.3909L262.435 78.3993V76.7146L264.703 75.5685L262.214 71.675L262.435 70.3762ZM260.825 66.3647L262.214 66.8623L258.617 77.3964L257.214 77.0513L260.825 66.3647ZM256.214 65.3618V67.2321L253.986 68.5453L256.214 72.7211L255.933 74.3878L252.214 67.6015L256.214 65.3618Z" fill="#FEFFFE"/>
        <path d="M201.114 132.125L208.592 131.783C208.558 131.51 208.524 131.271 208.354 131.1C208.15 130.861 207.878 130.758 207.572 130.724C207.3 130.69 206.994 130.724 206.688 130.724C205.975 130.724 205.261 130.553 204.615 130.246C204.275 130.075 203.969 129.87 203.629 129.768L201.59 129.904C201.318 130.212 201.148 130.622 201.114 131.032C201.08 131.373 201.08 131.749 201.114 132.125Z" fill="#B7BAC8"/>
        <path d="M178 129.563L185.036 132.159C185.104 131.92 185.172 131.681 185.07 131.407C184.968 131.134 184.764 130.929 184.492 130.758C184.254 130.622 183.948 130.519 183.71 130.417C183.065 130.143 182.453 129.699 182.011 129.153C181.773 128.879 181.569 128.538 181.263 128.299L179.326 127.65C178.952 127.82 178.646 128.162 178.442 128.504C178.272 128.845 178.136 129.187 178 129.563Z" fill="#B7BAC8"/>
        <path d="M201.948 113.128C201.845 112.24 201.674 111.351 201.435 110.463C200.58 107.38 198.357 99.5688 198.357 99.5688L182.146 100.562L183.583 112.083L179 128.934L181.462 129.665L189.089 112.788C189.089 112.736 191.175 106.1 191.175 106.1L196.134 112.762L201.196 130.658L204 130.501L201.948 113.128Z" fill="#9393A1"/>
        <path d="M208.164 101.674L206.94 100.615L205.955 101.981L207.314 102.801C207.654 103.006 208.096 102.972 208.3 102.665C208.572 102.391 208.504 101.947 208.164 101.674Z" fill="#E49963"/>
        <path d="M205.955 102.118L207.144 100.547C205.513 99.1118 203.881 97.6428 202.488 96.0714C201.808 95.2856 201.162 94.4657 200.652 93.6117C200.108 92.7577 199.7 91.8695 199.36 90.9812C198.715 89.1365 198.511 87.1551 198.511 85.1396C198.511 84.1147 198.613 83.0899 198.715 82.065L198.816 81.2793L198.918 80.4936L198.986 80.1178L199.054 79.742L199.19 78.9563C199.19 78.9221 199.19 78.888 199.19 78.8538C199.224 78.5122 199.19 78.2047 199.088 77.8631C198.986 77.5557 198.85 77.2482 198.647 77.0091C198.239 76.4966 197.661 76.1209 196.947 76.0184C196.233 75.9159 195.519 76.1209 195.009 76.565C194.466 77.0091 194.126 77.6581 194.058 78.4097L194.024 79.2637L193.99 79.7079V80.152C193.99 80.4253 193.99 80.7327 193.99 81.006V81.8942C193.99 83.0557 194.058 84.2514 194.194 85.4129C194.33 86.6085 194.534 87.8042 194.84 88.9657C195.145 90.1614 195.553 91.3229 196.131 92.416C196.675 93.5434 197.355 94.5682 198.103 95.4906C198.85 96.4471 199.7 97.267 200.55 98.0527C201.4 98.8385 202.318 99.5217 203.201 100.205C204.119 100.854 205.037 101.469 205.955 102.118Z" fill="#28282C"/>
        <path d="M198.918 80.6302L199.02 80.5961L199.054 80.4594L199.122 80.0836L199.326 78.9221C199.326 78.888 199.326 78.8538 199.326 78.8197C199.36 78.478 199.326 78.1364 199.224 77.7948C199.19 77.6582 199.156 77.5557 199.088 77.4532L199.02 77.5215C199.054 77.624 199.088 77.7265 199.122 77.829C199.224 78.1364 199.258 78.478 199.224 78.8197C199.224 78.8538 199.224 78.888 199.224 78.9221L199.088 79.7079L199.02 80.0836L198.952 80.4594L198.918 80.6302ZM198.544 85.0029H198.646C198.646 84.3539 198.714 83.6365 198.782 82.8849H198.68C198.578 83.5681 198.544 84.2855 198.544 85.0029ZM193.99 78.683L194.092 78.7513V78.3755C194.16 77.624 194.5 76.9749 195.043 76.5308C195.587 76.0867 196.267 75.8817 196.981 75.9842C197.525 76.0525 198.001 76.2917 198.375 76.6333L198.442 76.565C198.035 76.1892 197.525 75.9501 196.981 75.8817C196.607 75.8134 196.267 75.8476 195.927 75.9501C195.587 76.0525 195.247 76.2234 194.975 76.4283C194.398 76.8724 194.058 77.5898 193.99 78.3414V78.683ZM195.145 90.298L195.247 90.2639C195.111 89.8198 194.975 89.3756 194.839 88.9315C194.534 87.7359 194.33 86.5402 194.194 85.3787C194.058 84.1831 194.024 83.0216 193.99 81.8601V80.9718C193.99 80.9718 193.99 80.9718 193.99 80.9377H193.888V81.8259C193.922 83.124 193.956 84.2855 194.092 85.3787C194.228 86.6769 194.432 87.8384 194.737 88.9657C194.873 89.4098 195.009 89.8539 195.145 90.298ZM198.544 96.1397C199.122 96.7888 199.768 97.4378 200.482 98.0869C201.264 98.7701 202.114 99.4534 203.133 100.239C203.507 100.512 203.881 100.786 204.289 101.093V100.956C203.915 100.683 203.541 100.41 203.201 100.171C202.283 99.4875 201.4 98.8043 200.55 98.0186C199.87 97.4037 199.224 96.7546 198.612 96.0714C198.578 96.0714 198.578 96.1055 198.544 96.1397ZM203.099 96.7204L203.133 96.6179C202.929 96.413 202.725 96.208 202.555 95.9689C201.808 95.1148 201.23 94.3291 200.72 93.5434C200.176 92.6893 199.734 91.8011 199.428 90.9129C199.258 90.4688 199.122 89.9906 199.02 89.5123H198.918C199.02 89.9906 199.156 90.4688 199.326 90.9471C199.632 91.8695 200.074 92.7577 200.618 93.5775C201.162 94.4316 201.774 95.2515 202.453 96.0372C202.691 96.2763 202.895 96.5155 203.099 96.7204ZM203.745 97.3695C204.833 98.4627 205.989 99.4875 207.144 100.547L206.6 101.264C206.6 101.298 206.634 101.332 206.634 101.366L207.28 100.547L207.212 100.478C206.124 99.5217 204.935 98.4627 203.813 97.3012L203.745 97.3695Z" fill="#28282C"/>
        <path d="M183 101.508C188.367 103.09 192.924 103.09 199 100.329L198.764 85.4346L198.73 83.5108V82.7971L198.696 81.4318C198.696 81.2457 198.696 81.0595 198.662 80.8733C198.392 78.6082 196.806 76.7464 194.612 75.9397C194.409 75.8466 194.173 75.7845 193.97 75.7224C193.228 75.5363 192.418 75.4432 191.574 75.5363C191.338 75.5673 191.135 75.5983 190.932 75.6294C190.46 75.6914 190.021 75.8155 189.582 75.9707C187.152 76.8085 185.295 78.6702 184.62 80.9974C184.451 81.5559 184.384 82.1455 184.35 82.7351V82.9212V83.6349L184.316 84.5348L183 101.508Z" fill="#28282C"/>
        <path d="M198.797 84.9786V84.9154L198.662 84.8838V84.9786L198.831 95.0893H198.966L198.797 84.9786ZM187.996 75.8789C186.207 76.89 184.89 78.533 184.35 80.4287C184.35 80.4919 184.316 80.5551 184.316 80.6183L184.451 80.6499C184.451 80.5867 184.485 80.5235 184.485 80.4919C185.025 78.5962 186.308 76.9848 188.063 76.0053L187.996 75.8789ZM183 98.4069H183.135L184.114 85.0418L183.979 85.0102L183 98.4069ZM198.696 80.9343C198.696 80.7447 198.696 80.5551 198.662 80.3656C198.426 78.2802 197.11 76.4476 195.118 75.4998L195.084 75.6261C196.941 76.5424 198.325 78.3118 198.527 80.3972C198.561 80.5867 198.561 80.7763 198.561 80.9659L198.595 82.3561V82.5773H198.73L198.696 80.9343ZM198.966 97.6486H198.831L198.865 100.145C193.025 102.862 188.536 102.957 183.405 101.503L183.371 101.63C185.633 102.262 187.624 102.578 189.549 102.578C191.068 102.578 192.553 102.388 194.105 102.009C195.658 101.63 197.245 101.061 198.932 100.271L199 100.239L198.966 97.6486Z" fill="#FFAD16"/>
        <path opacity="0.6" d="M216.837 77.1472L212.473 72.5975L204.887 79.9481L209.252 84.4978L216.837 77.1472Z" fill="#D5DAF0"/>
        <path d="M210.368 85.6435L203.833 78.8312L180.757 101.191L187.293 108.004L210.368 85.6435Z" fill="#D5DAF0"/>
        <path d="M213.011 43.1039C222.495 33.9144 237.655 34.1877 246.798 43.7189C255.942 53.25 255.67 68.4862 246.186 77.6757C237.451 86.1136 223.956 86.5919 214.711 79.1788C213.895 78.5297 213.113 77.8123 212.399 77.0608C211.652 76.2751 210.972 75.4893 210.36 74.6353C203.358 65.1383 204.309 51.5761 213.011 43.1039ZM241.836 73.1663C248.838 66.3681 249.042 55.1289 242.277 48.1257C235.513 41.0884 224.33 40.8834 217.362 47.6816C210.36 54.4798 210.156 65.7191 216.92 72.7222C223.684 79.7596 234.867 79.9645 241.836 73.1663Z" fill="#D5DAF0"/>
        <path opacity="0.5" d="M216.92 72.7221C223.684 79.7595 234.867 79.9644 241.836 73.1662C248.838 66.368 249.042 55.1288 242.277 48.1256C235.513 41.0883 224.33 40.8833 217.362 47.6815C210.36 54.4456 210.156 65.6848 216.92 72.7221Z" fill="white"/>
        <path fill-rule="evenodd" clip-rule="evenodd" d="M192.596 77.6925C192.902 77.6242 193.174 77.5559 193.48 77.4875C194.976 83.705 195.621 90.2641 195.281 96.9598C194.806 97.6088 194.33 98.2238 193.854 98.8387C193.48 98.1554 193.106 97.4722 192.732 96.8231C193.582 90.4007 193.548 83.9441 192.596 77.6925Z" fill="url(#paint12_linear_186_3178)"/>
        <path d="M194.704 71.7484L194.228 76.531C193.106 77.1118 192.086 77.0093 191.101 76.2236L191.576 71.4409L194.704 71.7484Z" fill="#E49963"/>
        <path d="M194.704 71.7484L194.5 73.9347C194.262 74.0031 194.024 74.0372 193.786 74.0372C193.718 74.0372 193.616 74.0372 193.548 74.0372C192.698 73.9689 191.916 73.4906 191.475 72.7732L191.611 71.4751L194.704 71.7484Z" fill="#D68D5D"/>
        <path d="M196.403 68.9471L196.029 71.7484C195.859 72.8757 194.908 73.6956 193.786 73.6956C192.766 73.6956 191.849 73.0465 191.475 72.09C191.237 71.4409 191.033 70.7235 190.863 69.9378C190.557 68.708 190.965 67.3756 191.916 66.5558C192.732 65.8384 193.684 65.7017 194.806 66.1458C195.927 66.6241 196.573 67.7514 196.403 68.9471Z" fill="#E49963"/>
        <path d="M195.927 67.4097C195.927 67.4097 196.403 68.3662 196.233 70.1085C196.233 70.1085 196.709 68.4004 196.471 66.9998L195.927 67.4097Z" fill="#050F64"/>
        <path d="M189.843 69.8694C189.843 69.8694 188.449 67.5122 190.115 65.8383C191.916 64.0277 193.038 64.2668 194.228 64.6768C195.757 65.155 196.539 65.7358 197.151 65.6333C197.457 65.565 197.763 65.3259 197.797 65.4967C197.831 65.6675 197.865 66.7265 196.947 67.478C196.029 68.2296 194.874 68.0588 193.752 67.4097C192.63 66.7606 192.12 66.829 191.61 67.5122C191.067 68.2296 191.712 69.6302 191.712 69.6302L191.373 69.7327C191.339 69.7327 190.081 68.9128 189.843 69.8694Z" fill="#B7BAC8"/>
        <path d="M192.151 69.8171C192.212 69.1323 191.708 68.5274 191.025 68.4659C190.342 68.4044 189.739 68.9097 189.678 69.5945C189.617 70.2793 190.12 70.8843 190.803 70.9458C191.486 71.0073 192.089 70.5019 192.151 69.8171Z" fill="#E49963"/>
        <path d="M189.877 75.6087L192.188 79.4006L193.038 77.5901L194.84 79.1274L194.976 75.5745C194.772 75.472 194.568 75.4379 194.364 75.3696L193.004 76.7702L191.203 75.2329C190.727 75.3354 190.319 75.4379 189.877 75.6087Z" fill="#FEAF1A"/>
        <path d="M213.943 76.8385L212.617 77.7267L213.671 79.059L214.827 77.9658C215.133 77.6926 215.201 77.2484 214.963 76.9752C214.725 76.6335 214.283 76.5994 213.943 76.8385Z" fill="#E49963"/>
        <path d="M213.739 79.0932L212.583 77.5217C210.748 78.7174 208.912 79.8789 207.043 80.8013C206.091 81.2454 205.139 81.6553 204.187 81.9286C203.236 82.2019 202.284 82.4069 201.298 82.441C199.361 82.5777 197.423 82.2361 195.486 81.6553C194.5 81.3478 193.548 81.0062 192.597 80.6305L191.883 80.323L191.169 80.0155L190.795 79.8447L190.421 79.6739L189.707 79.3323C189.673 79.3323 189.639 79.2981 189.605 79.2981C189.299 79.1615 188.959 79.1273 188.654 79.1273C188.348 79.1273 188.008 79.1957 187.702 79.3323C187.09 79.5714 186.58 80.0497 186.308 80.6988C186.002 81.382 186.036 82.0994 186.308 82.7143C186.58 83.3292 187.124 83.8758 187.804 84.115L188.62 84.3882L189.027 84.5249L189.435 84.6615C189.707 84.7299 189.979 84.8324 190.251 84.9007L191.101 85.1398C192.223 85.4473 193.378 85.7206 194.534 85.9255C195.69 86.1305 196.913 86.2671 198.137 86.2671C199.361 86.3013 200.584 86.1988 201.808 85.9597C203.032 85.7206 204.187 85.3448 205.309 84.8665C206.431 84.3882 207.451 83.8075 208.436 83.1926C209.422 82.5777 210.34 81.8944 211.224 81.2112C212.039 80.528 212.889 79.8106 213.739 79.0932Z" fill="#28282C"/>
        <path d="M191.271 80.0838V79.9813L191.135 79.913L190.761 79.7422L189.673 79.2297C189.639 79.2297 189.605 79.1956 189.571 79.1956C189.265 79.0589 188.925 78.9906 188.585 78.9906C188.449 78.9906 188.347 78.9906 188.211 79.0248L188.245 79.1272C188.347 79.1272 188.449 79.0931 188.585 79.0931C188.891 79.0931 189.231 79.1614 189.537 79.2639C189.571 79.2639 189.605 79.2981 189.639 79.2981L190.353 79.6397L190.727 79.8105L191.101 79.9813L191.271 80.0838ZM195.35 81.6211V81.5186C194.704 81.3136 194.058 81.1086 193.344 80.8353L193.31 80.9378C193.99 81.177 194.67 81.4161 195.35 81.6211ZM188.042 84.3198L188.11 84.2515L187.736 84.1149C187.022 83.8416 186.478 83.3291 186.24 82.7142C185.968 82.0993 185.968 81.3478 186.24 80.6987C186.478 80.1863 186.818 79.8105 187.26 79.5372L187.226 79.4347C186.75 79.708 186.41 80.1521 186.172 80.6645C186.036 81.0061 185.934 81.3478 185.934 81.7235C185.934 82.0993 186.002 82.4409 186.138 82.7826C186.41 83.4658 186.988 83.9782 187.702 84.2515L188.042 84.3198ZM199.497 86.3354L199.463 86.2329C198.987 86.2671 198.511 86.2671 198.069 86.2671C196.845 86.2329 195.656 86.0963 194.466 85.9254C193.31 85.7205 192.154 85.4472 191.033 85.1397L190.183 84.9006C190.183 84.9006 190.183 84.9006 190.149 84.9006V85.0031L190.999 85.2422C192.256 85.5838 193.378 85.823 194.432 86.0279C195.724 86.2329 196.913 86.3695 198.035 86.3695C198.579 86.3695 199.021 86.3695 199.497 86.3354ZM206.023 84.6273C206.805 84.2515 207.586 83.8074 208.436 83.2608C209.32 82.7142 210.204 82.0652 211.223 81.2794C211.597 81.0061 211.971 80.6987 212.345 80.3912L212.209 80.3571C211.869 80.6304 211.495 80.9378 211.155 81.2111C210.272 81.8943 209.354 82.5776 208.368 83.1925C207.62 83.6708 206.805 84.149 205.989 84.559C205.989 84.5931 205.989 84.5931 206.023 84.6273ZM207.824 80.3912L207.756 80.3229C207.484 80.4596 207.246 80.5962 206.975 80.6987C205.955 81.177 205.037 81.5527 204.153 81.826C203.168 82.0993 202.216 82.3043 201.298 82.3385C200.822 82.3726 200.346 82.3726 199.836 82.3385L199.802 82.4409C200.312 82.4751 200.788 82.4751 201.298 82.4409C202.25 82.3726 203.236 82.2018 204.187 81.9285C205.139 81.6552 206.091 81.2453 207.043 80.8012C207.28 80.6645 207.552 80.5279 207.824 80.3912ZM208.606 79.9471C209.932 79.1956 211.257 78.3757 212.549 77.5216L213.093 78.239C213.127 78.239 213.161 78.239 213.195 78.2049L212.583 77.3508L212.515 77.385C211.325 78.1707 209.966 79.0589 208.572 79.8105L208.606 79.9471Z" fill="#FFB72C"/>
        <path fill-rule="evenodd" clip-rule="evenodd" d="M332.478 115.615L311 127.744L332.478 140.687L353 127.744L332.478 115.615Z" fill="#4D4D56"/>
        <path fill-rule="evenodd" clip-rule="evenodd" d="M332 140.422V181.805L311 169.28V127.649L332 140.422Z" fill="url(#paint13_linear_186_3178)"/>
        <path fill-rule="evenodd" clip-rule="evenodd" d="M332 140.062V181.805L353 169.642V127.649L332 140.062Z" fill="url(#paint14_linear_186_3178)"/>
        <path fill-rule="evenodd" clip-rule="evenodd" d="M127.898 154.727L110 164.916L127.898 175.788L145 164.916L127.898 154.727Z" fill="#4D4D56"/>
        <path fill-rule="evenodd" clip-rule="evenodd" d="M128 175.4V209.886L110 199.449V164.756L128 175.4Z" fill="url(#paint15_linear_186_3178)"/>
        <path fill-rule="evenodd" clip-rule="evenodd" d="M127 175.1V209.886L145 199.75V164.756L127 175.1Z" fill="url(#paint16_linear_186_3178)"/>
        <path d="M115 145.313L127 152.097V165.759L115 158.975V145.313Z" fill="#36363C"/>
        <path d="M139 145.313L127 152.097V165.759L139 158.975V145.313Z" fill="#323238"/>
        <path d="M115 145.497L127 138.681L139 145.497L127 152.313L115 145.497Z" fill="#4D4D56"/>
        <path fill-rule="evenodd" clip-rule="evenodd" d="M51.7616 17.3323L40 24.1247L51.7616 31.3726L63 24.1247L51.7616 17.3323Z" fill="#4D4D56"/>
        <path fill-rule="evenodd" clip-rule="evenodd" d="M51 30.2089V52.4332L40 45.707V23.3496L51 30.2089Z" fill="url(#paint17_linear_186_3178)"/>
        <path fill-rule="evenodd" clip-rule="evenodd" d="M51 30.0158V52.4332L62 45.9013V23.3496L51 30.0158Z" fill="url(#paint18_linear_186_3178)"/>
        <g opacity="0.7">
            <path fill-rule="evenodd" clip-rule="evenodd" d="M280.762 20.3408L269 27.1333L280.762 34.3812L292 27.1333L280.762 20.3408Z" fill="#4D4D56"/>
            <path fill-rule="evenodd" clip-rule="evenodd" d="M281 34.2204V56.4447L270 49.7185V27.3611L281 34.2204Z" fill="url(#paint19_linear_186_3178)"/>
            <path fill-rule="evenodd" clip-rule="evenodd" d="M281 34.0272V56.4447L292 49.9128V27.3611L281 34.0272Z" fill="url(#paint20_linear_186_3178)"/>
        </g>
        <g opacity="0.7">
            <path fill-rule="evenodd" clip-rule="evenodd" d="M304.762 170.773L293 177.566L304.762 184.814L316 177.566L304.762 170.773Z" fill="#4D4D56"/>
            <path fill-rule="evenodd" clip-rule="evenodd" d="M304 183.65V205.874L293 199.148V176.791L304 183.65Z" fill="url(#paint21_linear_186_3178)"/>
            <path fill-rule="evenodd" clip-rule="evenodd" d="M304 183.457V205.874L315 199.342V176.791L304 183.457Z" fill="url(#paint22_linear_186_3178)"/>
        </g>
        <path fill-rule="evenodd" clip-rule="evenodd" d="M391.853 128.652L376 137.385L391.853 146.704L407 137.385L391.853 128.652Z" fill="#4D4D56"/>
        <path fill-rule="evenodd" clip-rule="evenodd" d="M392 146.903V176.791L376 167.745V137.678L392 146.903Z" fill="url(#paint23_linear_186_3178)"/>
        <path fill-rule="evenodd" clip-rule="evenodd" d="M391 146.643V176.791L407 168.006V137.678L391 146.643Z" fill="url(#paint24_linear_186_3178)"/>
        <path d="M315.926 96.0408L330.344 104.269V120.838L315.926 112.61V96.0408Z" fill="#36363C"/>
        <path d="M344.762 96.0408L330.344 104.269V120.838L344.762 112.61V96.0408Z" fill="#323238"/>
        <path d="M315.926 96.2642L330.344 87.9983L344.762 96.2642L330.344 104.53L315.926 96.2642Z" fill="#4D4D56"/>
        <path d="M384.009 109.214L384.008 109.214L363.836 97.6831V95.1498L374.618 89.5591H393.399L404.181 95.1498V97.6831L384.009 109.214L384.009 109.214Z" fill="black"/>
        <path fill-rule="evenodd" clip-rule="evenodd" d="M384.009 109.214L384.008 109.214L363.836 97.6831V95.1498L374.618 89.5591H393.399L404.181 95.1498V97.6831L384.009 109.214L384.009 109.214Z" fill="#2D2D31"/>
        <path d="M363.603 95.0577L383.775 83.4753L403.948 95.0577L383.775 106.64L363.603 95.0577Z" fill="#4D4D56"/>
        <path d="M383.892 103.072L383.892 103.071L370.366 95.3499V89.2663L377.595 85.5225H390.189L397.418 89.2663V95.3499L383.892 103.071L383.892 103.072Z" fill="#2D2D31"/>
        <path d="M370.366 89.2074L383.892 81.4858L397.418 89.2074L383.892 96.929L370.366 89.2074Z" fill="#4D4D56"/>
        <path d="M389.859 84.6923L383.988 81.314L383.894 85.3383L382.696 84.6491L382.784 80.8959L377.004 84.3647L375.806 83.6754L382.744 79.5113L382.815 79.5518L382.943 74.0566L377.28 77.455L376.082 76.7658L382.976 72.6286L383.107 66.9792L377.357 70.4305L376.159 69.7412L383.097 65.5771L383.139 65.6014L383.266 60.14L377.633 63.5208L376.435 62.8315L383.3 58.7117L383.431 53.0622L377.709 56.4963L376.511 55.807L383.45 51.6429L383.464 51.6508L383.596 45.9851L377.786 49.4717L376.588 48.7824L383.526 44.6184L383.626 44.6756L383.76 38.9077L377.862 42.4472L376.664 41.7579L383.603 37.5938L383.788 37.7004L383.916 32.2031L378.02 35.7414L376.822 35.0521L383.761 30.888L383.944 30.9934L384.155 21.9373L384.839 21.625L385.357 22.1585L385.143 31.4115L391.466 35.0495L390.875 36.069L385.112 32.753L384.988 38.1188L391.308 41.7552L390.717 42.7747L384.957 39.4603L384.826 45.0944L391.232 48.7798L390.641 49.7993L384.795 46.4359L384.665 52.07L391.155 55.8043L390.564 56.8238L384.634 53.4115L384.503 59.0456L391.079 62.8289L390.488 63.8484L384.472 60.3871L384.342 66.0213L390.802 69.7385L390.212 70.758L384.311 67.3628L384.18 72.9969L390.726 76.7631L390.135 77.7826L384.149 74.3384L384.019 79.9725L390.45 83.6728L389.859 84.6923Z" fill="#2F2F34"/>
        <path d="M390.738 88.7822L389.57 89.497L389.683 84.4671L383.918 87.9269L383.805 92.7426L383.266 93.0756L382.598 92.7554L382.71 87.9659L382.699 87.9848L377.086 84.756L376.975 89.588L375.776 88.8984L376.702 49.1746L376.688 49.1666L376.703 49.1416L376.865 42.1961L376.765 42.1385L376.871 41.9566L377.021 35.4859L376.923 35.4294L377.027 35.2508L377.233 26.3894L378.447 25.6742L378.236 34.8247L383.871 38.0662L384.058 30.0123L385.257 30.7019L385.091 37.7763L390.495 34.5331L390.801 34.7092L391 25.8461L392.199 26.5357L390.738 88.7822ZM383.715 44.7765L383.846 39.1124L383.716 39.3372L378.205 36.167L378.082 41.5359L383.715 44.7765ZM383.552 51.7552L383.69 45.8179L383.558 46.0463L378.051 42.8782L377.921 48.5156L383.552 51.7552ZM383.39 58.734L383.523 53.002L383.481 53.0744L377.89 49.8579L377.76 55.4953L383.39 58.734ZM390.65 41.4224L390.777 35.773L385.058 39.2053L384.934 44.4846L390.337 41.2423L390.65 41.4224ZM383.228 65.7126L383.359 60.076L377.729 56.8375L377.6 62.4749L383.228 65.7126ZM390.493 48.4042L390.627 42.4777L384.901 45.9137L384.769 51.5663L390.261 48.2703L390.493 48.4042ZM383.065 72.6914L383.197 67.0548L377.569 63.8172L377.439 69.4546L383.065 72.6914ZM390.337 55.3861L390.468 49.5552L384.735 52.9952L384.603 58.6477L390.184 55.2984L390.337 55.3861ZM382.903 79.67L383.034 74.0334L377.408 70.7968L377.278 76.4342L382.903 79.67ZM390.18 62.3679L390.309 56.6328L384.569 60.0769L384.437 65.7295L390.108 62.3264L390.18 62.3679ZM382.741 86.6488L382.872 81.0122L377.247 77.7764L377.117 83.4138L382.741 86.6488ZM390.023 69.3497L390.15 63.7103L384.404 67.1583L384.277 72.5729L389.831 69.2396L390.023 69.3497ZM389.866 76.3316L389.996 70.5498L384.244 74.0018L384.111 79.6544L389.755 76.2676L389.866 76.3316ZM389.709 83.3134L389.837 77.6275L384.078 81.0832L383.951 86.4978L389.478 83.1808L389.709 83.3134Z" fill="#4D4D56"/>
        <path d="M400.237 11.9825L410.498 6.13281V27.8936L400.237 33.7433V11.9825Z" fill="#303035"/>
        <path d="M400.237 11.9825L389.976 6.13281V27.8936L400.237 33.7433V11.9825Z" fill="#36363D"/>
        <path d="M400.237 11.9826L389.976 6.13289L400.237 0.283203L410.498 6.13289L400.237 11.9826Z" fill="#4D4D56"/>
        <path d="M379.461 32.3484L377.595 44.5158L369.899 42.6439V39.1767L371.065 37.2622V32.8604L375.263 31.6465L379.461 32.3484Z" fill="#FEBC08"/>
        <path d="M379.927 32.5826L378.062 44.7499L370.366 42.878V39.4108L371.532 37.4963V33.0945L375.73 31.8806L379.927 32.5826Z" fill="#4D4D56"/>
        <path d="M377.362 29.3066L383.892 33.0504L377.829 36.7942L371.065 32.8604L377.362 29.3066Z" fill="#FED544"/>
        <path d="M369.899 39.3682L376.429 43.112V46.3878L369.899 42.644V39.3682Z" fill="#FEC11B"/>
        <path d="M383.892 33.0505V42.176L376.429 46.3878V42.9206L377.595 41.0061V36.6043L383.892 33.0505Z" fill="#F7A91A"/>
        <path d="M383.193 34.2205V37.8913L378.528 40.5236V36.7796L383.063 34.2205H383.193Z" fill="#4D4D56"/>
        <path d="M388.81 13.6204V20.5213L392.308 18.5341V19.938L389.062 21.7818L394.873 25.0857V26.4897L387.877 22.5119V22.4553L383.147 25.1421L388.81 28.3616V29.7655L381.912 25.8439L377.026 28.6192L382.746 31.8714V33.2753L375.791 29.3209L371.111 31.9795L376.683 35.1472V36.5511L369.876 32.6812L364.99 35.4568L370.619 38.657V40.0609L363.755 36.1583L358.87 38.9338L364.556 42.1668V43.5707L357.635 39.6355L352.749 42.4111L358.493 45.6766V47.0805L351.514 43.1126L346.95 45.7049L352.662 48.9524V50.3564L345.715 46.4067L341.152 48.999L346.832 52.2283V53.6322L339.917 49.7005L334.915 52.5423L340.535 55.7381V57.142L333.68 53.244L329.116 55.8364L334.705 59.0139V60.4178L327.881 56.5378L322.995 59.3134L328.642 62.5237V63.9276L321.76 60.0151L316.758 62.8569L322.345 66.0335V67.4374L315.523 63.5586L309.519 66.9695V65.5655L315.116 62.3859V54.5681H316.282V61.7235L321.412 58.8089V51.0583H322.578V58.1465L327.476 55.3644V47.5485H328.642V54.702L333.306 52.0523V44.2727H334.472V51.3899L339.603 48.4753V40.7629H340.769V47.8129L345.433 45.1633V37.4871H346.599V44.5008L351.263 41.8512V34.2112H352.429V41.1887L357.326 38.4066V30.7014H358.493V37.7442L363.39 34.9619V27.1916H364.556V34.2995L369.453 31.5173V23.6818H370.619V30.8549L375.517 28.0728V20.406H376.683V27.4104L381.58 24.6283V16.8962H382.746V23.9659L387.644 21.1838V13.6204H388.81Z" fill="#2F2F34"/>
        <path d="M391.039 11.2029L392.263 11.9116L388.655 13.9613L394.416 17.2369L397.97 15.2179L399.194 15.9266L395.016 18.3001H395.106V24.8967L399.304 22.5119V23.9158L317.003 70.6698L316.981 70.7133L316.966 70.6908L316.515 70.9473L309.519 66.9695V65.3316L315.116 54.3342L369.453 23.4656V23.4479L369.469 23.4568L391.039 11.2029ZM315.477 55.9438L310.342 66.0338L316.515 69.5434V69.3094L321.412 59.6866V59.3179L315.477 55.9438ZM321.412 62.0071L318.009 68.6947L321.412 66.761V62.0071ZM327.709 56.5362L322.578 59.4508V66.0986L327.709 63.1841V56.5362ZM333.772 53.0915L328.875 55.8738V62.5216L333.772 59.7395V53.0915ZM339.603 49.7796L334.938 52.4293V59.0771L339.603 56.4274V49.7796ZM321.412 52.1609L316.351 55.0364L322.112 58.312L327.114 55.4702L321.412 52.2283V52.1609ZM345.899 46.2024L340.769 49.1172V55.765L345.899 52.8505V46.2024ZM327.476 48.7164L322.588 51.4929L328.349 54.7685L333.235 51.9929L327.476 48.7185V48.7164ZM351.729 42.8906L347.065 45.5402V52.1881L351.729 49.5384V42.8906ZM333.306 45.4043L328.709 48.0158L334.47 51.2914L339.033 48.6991L333.306 45.4427V45.4043ZM357.56 39.5782L352.896 42.2282V48.876L357.56 46.2263V39.5782ZM339.603 41.8273L334.507 44.7218L340.269 47.9973L345.271 45.1556L339.603 41.9329V41.8273ZM363.623 36.1337L358.726 38.9161V45.5639L363.623 42.7818V36.1337ZM345.433 38.5152L340.745 41.1785L346.506 44.4538L351.069 41.8617L345.433 38.657V38.5152ZM369.687 32.6892L364.789 35.4715V42.1193L369.687 39.3372V32.6892ZM351.263 35.2032L346.543 37.8844L352.304 41.16L356.868 38.5677L351.263 35.3812V35.2032ZM375.75 29.2447L370.853 32.027V38.6748L375.75 35.8927V29.2447ZM357.326 31.7589L352.342 34.5906L358.103 37.8659L362.988 35.0904L357.326 31.8714V31.7589ZM381.813 25.8001L376.916 28.5822V35.2303L381.813 32.4482V25.8001ZM363.39 28.3141L358.462 31.1133L364.223 34.3889L369.109 31.6133L363.39 28.3616V28.3141ZM387.877 22.3558L382.98 25.138V31.7858L387.877 29.0037V22.3558ZM369.469 24.8607L364.583 27.6362L370.344 30.9116L375.23 28.1363L369.469 24.8607ZM393.94 18.9111L389.043 21.6934V28.3412L393.94 25.5591V18.9111ZM375.517 21.4248L370.704 24.159L376.45 27.4256V27.4434L381.145 24.776L375.517 21.576V21.4248ZM381.58 17.9803L376.619 20.7987L382.38 24.0742L387.266 21.2989L381.58 18.0662V17.9803ZM387.644 14.536L382.74 17.3216L388.501 20.5972L393.181 17.9386L387.644 14.7903V14.536Z" fill="#4D4D56"/>
    </g>
    <defs>
        <linearGradient id="paint0_linear_186_3178" x1="95.5" y1="72.4907" x2="95.5" y2="132.175" gradientUnits="userSpaceOnUse">
            <stop stop-color="#4C4C56"/>
            <stop offset="1" stop-color="#28282C" stop-opacity="0"/>
        </linearGradient>
        <linearGradient id="paint1_linear_186_3178" x1="133.5" y1="88.8119" x2="133.5" y2="130.759" gradientUnits="userSpaceOnUse">
            <stop stop-color="#35353C"/>
            <stop offset="1" stop-color="#28282C" stop-opacity="0"/>
        </linearGradient>
        <linearGradient id="paint2_linear_186_3178" x1="111.417" y1="35.4053" x2="111.417" y2="57.0771" gradientUnits="userSpaceOnUse">
            <stop stop-color="#FEA402"/>
            <stop offset="1" stop-color="#FFCD5D"/>
        </linearGradient>
        <linearGradient id="paint3_linear_186_3178" x1="43.75" y1="136.219" x2="43.75" y2="176.083" gradientUnits="userSpaceOnUse">
            <stop stop-color="#4C4C56"/>
            <stop offset="1" stop-color="#28282C" stop-opacity="0"/>
        </linearGradient>
        <linearGradient id="paint4_linear_186_3178" x1="69.25" y1="146.556" x2="69.25" y2="174.862" gradientUnits="userSpaceOnUse">
            <stop stop-color="#35353C"/>
            <stop offset="1" stop-color="#28282C" stop-opacity="0"/>
        </linearGradient>
        <linearGradient id="paint5_linear_186_3178" x1="54.9743" y1="111.614" x2="54.9743" y2="122.043" gradientUnits="userSpaceOnUse">
            <stop stop-color="#FEA402"/>
            <stop offset="1" stop-color="#FFCD5D"/>
        </linearGradient>
        <linearGradient id="paint6_linear_186_3178" x1="188.595" y1="120.894" x2="188.595" y2="220.613" gradientUnits="userSpaceOnUse">
            <stop stop-color="#4C4C56"/>
            <stop offset="1" stop-color="#28282C" stop-opacity="0"/>
        </linearGradient>
        <linearGradient id="paint7_linear_186_3178" x1="253.095" y1="146.751" x2="253.095" y2="217.558" gradientUnits="userSpaceOnUse">
            <stop stop-color="#35353C"/>
            <stop offset="1" stop-color="#28282C" stop-opacity="0"/>
        </linearGradient>
        <linearGradient id="paint8_linear_186_3178" x1="264.602" y1="62.3997" x2="264.602" y2="77.3621" gradientUnits="userSpaceOnUse">
            <stop stop-color="#FEA402"/>
            <stop offset="1" stop-color="#FFCD5D"/>
        </linearGradient>
        <linearGradient id="paint9_linear_186_3178" x1="219.723" y1="56.9756" x2="219.723" y2="62.2304" gradientUnits="userSpaceOnUse">
            <stop stop-color="#FEA402"/>
            <stop offset="1" stop-color="#FFCD5D"/>
        </linearGradient>
        <linearGradient id="paint10_linear_186_3178" x1="225.24" y1="42.6875" x2="225.24" y2="53.2437" gradientUnits="userSpaceOnUse">
            <stop stop-color="#FEA402"/>
            <stop offset="1" stop-color="#FFCD5D"/>
        </linearGradient>
        <linearGradient id="paint11_linear_186_3178" x1="259.348" y1="56.0684" x2="259.348" y2="82.0364" gradientUnits="userSpaceOnUse">
            <stop stop-color="#FEA402"/>
            <stop offset="1" stop-color="#FFCD5D"/>
        </linearGradient>
        <linearGradient id="paint12_linear_186_3178" x1="193.983" y1="77.4875" x2="193.983" y2="95.5025" gradientUnits="userSpaceOnUse">
            <stop stop-color="#FEA402"/>
            <stop offset="1" stop-color="#FFCD5D"/>
        </linearGradient>
        <linearGradient id="paint13_linear_186_3178" x1="321.5" y1="127.649" x2="321.5" y2="160.537" gradientUnits="userSpaceOnUse">
            <stop stop-color="#4C4C56"/>
            <stop offset="1" stop-color="#28282C" stop-opacity="0"/>
        </linearGradient>
        <linearGradient id="paint14_linear_186_3178" x1="342.5" y1="136.177" x2="342.5" y2="159.529" gradientUnits="userSpaceOnUse">
            <stop stop-color="#35353C"/>
            <stop offset="1" stop-color="#28282C" stop-opacity="0"/>
        </linearGradient>
        <linearGradient id="paint15_linear_186_3178" x1="119" y1="164.756" x2="119" y2="192.162" gradientUnits="userSpaceOnUse">
            <stop stop-color="#4C4C56"/>
            <stop offset="1" stop-color="#28282C" stop-opacity="0"/>
        </linearGradient>
        <linearGradient id="paint16_linear_186_3178" x1="136" y1="171.863" x2="136" y2="191.323" gradientUnits="userSpaceOnUse">
            <stop stop-color="#35353C"/>
            <stop offset="1" stop-color="#28282C" stop-opacity="0"/>
        </linearGradient>
        <linearGradient id="paint17_linear_186_3178" x1="45.5" y1="23.3496" x2="45.5" y2="41.0113" gradientUnits="userSpaceOnUse">
            <stop stop-color="#4C4C56"/>
            <stop offset="1" stop-color="#28282C" stop-opacity="0"/>
        </linearGradient>
        <linearGradient id="paint18_linear_186_3178" x1="56.5" y1="27.9293" x2="56.5" y2="40.4703" gradientUnits="userSpaceOnUse">
            <stop stop-color="#35353C"/>
            <stop offset="1" stop-color="#28282C" stop-opacity="0"/>
        </linearGradient>
        <linearGradient id="paint19_linear_186_3178" x1="275.5" y1="27.3611" x2="275.5" y2="45.0228" gradientUnits="userSpaceOnUse">
            <stop stop-color="#4C4C56"/>
            <stop offset="1" stop-color="#28282C" stop-opacity="0"/>
        </linearGradient>
        <linearGradient id="paint20_linear_186_3178" x1="286.5" y1="31.9408" x2="286.5" y2="44.4818" gradientUnits="userSpaceOnUse">
            <stop stop-color="#35353C"/>
            <stop offset="1" stop-color="#28282C" stop-opacity="0"/>
        </linearGradient>
        <linearGradient id="paint21_linear_186_3178" x1="298.5" y1="176.791" x2="298.5" y2="194.453" gradientUnits="userSpaceOnUse">
            <stop stop-color="#4C4C56"/>
            <stop offset="1" stop-color="#28282C" stop-opacity="0"/>
        </linearGradient>
        <linearGradient id="paint22_linear_186_3178" x1="309.5" y1="181.37" x2="309.5" y2="193.911" gradientUnits="userSpaceOnUse">
            <stop stop-color="#35353C"/>
            <stop offset="1" stop-color="#28282C" stop-opacity="0"/>
        </linearGradient>
        <linearGradient id="paint23_linear_186_3178" x1="384" y1="137.678" x2="384" y2="161.43" gradientUnits="userSpaceOnUse">
            <stop stop-color="#4C4C56"/>
            <stop offset="1" stop-color="#28282C" stop-opacity="0"/>
        </linearGradient>
        <linearGradient id="paint24_linear_186_3178" x1="399" y1="143.837" x2="399" y2="160.703" gradientUnits="userSpaceOnUse">
            <stop stop-color="#35353C"/>
            <stop offset="1" stop-color="#28282C" stop-opacity="0"/>
        </linearGradient>
    </defs>
</svg>
