<svg xmlns="http://www.w3.org/2000/svg" width="435" height="200" fill="none" viewBox="0 0 435 200"><mask id="mask0_162_238" width="435" height="200" x="0" y="0" style="mask-type:alpha"><rect width="435" height="200" fill="#FFFAE5" rx="8"/></mask><g mask="url(#mask0_162_238)"><rect width="435" height="200" fill="url(#paint0_linear_162_238)" rx="8"/><path fill="#EAEDF8" fill-rule="evenodd" d="M104.535 59.8909L63.5654 81.083L104.916 104.768L143.683 82.3296L104.535 59.8909Z" clip-rule="evenodd"/><path fill="url(#paint1_linear_162_238)" fill-rule="evenodd" d="M104.678 104.884V181.264L63.5654 158.147V81.3097L104.678 104.884Z" clip-rule="evenodd"/><path fill="url(#paint2_linear_162_238)" fill-rule="evenodd" d="M104.678 105.006V181.264L143.683 159.044V82.3296L104.678 105.006Z" clip-rule="evenodd"/><path fill="#EAEFF8" fill-rule="evenodd" d="M104.127 32.4672L70.948 50.9759C68.9892 52.0686 67.7822 54.0899 67.7822 56.2775V80.0932C67.7822 82.1211 69.4813 83.765 71.5773 83.765C72.2427 83.765 72.8964 83.5957 73.4729 83.2741L106.652 64.7654C108.61 63.6727 109.817 61.6514 109.817 59.4638V35.6481C109.817 33.6202 108.118 31.9763 106.022 31.9763C105.357 31.9763 104.703 32.1456 104.127 32.4672Z" clip-rule="evenodd"/><path fill="#FEFFFE" fill-rule="evenodd" stroke="#D5E1F5" stroke-width="1.2" d="M108.57 33.8044C108.015 33.8044 107.471 33.9454 106.99 34.2134L73.8114 52.7222C72.93 53.2139 72.2177 53.9145 71.7258 54.7383C71.2339 55.5621 70.9623 56.5091 70.9623 57.4936V81.3093C70.9623 82.1542 71.3163 82.9192 71.8886 83.4729C72.4609 84.0266 73.2515 84.3691 74.1248 84.3691C74.6793 84.3691 75.2241 84.228 75.7045 83.96L108.883 65.4513C109.765 64.9596 110.477 64.259 110.969 63.4351C111.461 62.6113 111.732 61.6643 111.732 60.6799V36.8642C111.732 36.0192 111.378 35.2543 110.806 34.7006C110.234 34.1468 109.443 33.8044 108.57 33.8044Z" clip-rule="evenodd"/><path fill="url(#paint3_linear_162_238)" fill-rule="evenodd" d="M107.908 43.7645L92.6044 52.5377C92.22 52.7581 91.9843 53.1583 91.9843 53.5907V68.4916C91.9843 69.1676 92.5507 69.7156 93.2493 69.7156C93.4762 69.7156 93.6989 69.6565 93.8942 69.5446L109.197 60.7714C109.582 60.5511 109.817 60.1508 109.817 59.7185V44.8175C109.817 44.1415 109.251 43.5936 108.552 43.5936C108.325 43.5936 108.103 43.6526 107.908 43.7645Z" clip-rule="evenodd"/><path fill="#FEFFFE" fill-rule="evenodd" d="M99.2443 55.3917L95.8055 59.7505V60.4409L99.2443 62.1269V60.7127L97.1808 59.7505L99.4449 56.482L99.2443 55.3917ZM100.709 52.0241L99.4449 52.4418L102.718 61.285L103.994 60.9953L100.709 52.0241ZM104.904 51.1822V52.7522L106.932 53.8546L104.904 57.3602L105.16 58.7593L108.543 53.0624L104.904 51.1822Z" clip-rule="evenodd"/><path fill="#EEF1FD" fill-rule="evenodd" d="M107.241 38.5673L91.3209 47.8792C90.9419 48.1009 90.7104 48.4981 90.7104 48.9266V49.7092C90.7104 50.168 91.0948 50.54 91.569 50.54C91.7255 50.54 91.8792 50.4985 92.0132 50.4201L107.933 41.1082C108.312 40.8866 108.543 40.4893 108.543 40.0608V39.2782C108.543 38.8194 108.159 38.4475 107.685 38.4475C107.528 38.4475 107.375 38.4889 107.241 38.5673Z" clip-rule="evenodd"/><path fill="#EEF1FD" fill-rule="evenodd" d="M88.8046 54.6977L73.5016 63.3967C73.1148 63.6166 72.8774 64.0181 72.8774 64.452V68.5009C72.8774 69.1768 73.4437 69.7248 74.1424 69.7248C74.3677 69.7248 74.5889 69.6666 74.7832 69.5562L90.0863 60.8571C90.473 60.6373 90.7104 60.2358 90.7104 59.8018V55.753C90.7104 55.077 90.1441 54.5291 89.4454 54.5291C89.2201 54.5291 88.9989 54.5873 88.8046 54.6977Z" clip-rule="evenodd"/><path fill="#EEF1FD" fill-rule="evenodd" d="M87.4775 64.5867L79.8172 69.4501C79.4608 69.6763 79.2462 70.061 79.2462 70.4734V74.4529C79.2462 75.1289 79.8125 75.6768 80.5112 75.6768C80.7578 75.6768 80.999 75.6071 81.2052 75.4762L88.8655 70.6129C89.2219 70.3866 89.4365 70.002 89.4365 69.5896V65.61C89.4365 64.9341 88.8702 64.3861 88.1715 64.3861C87.9249 64.3861 87.6837 64.4558 87.4775 64.5867Z" clip-rule="evenodd"/><path fill="#E49963" d="M108.243 60.7512C108.243 60.7512 107.116 61.0825 106.399 60.8357C105.683 60.5889 104.449 60.994 104.25 61.2929C104.052 61.5918 104.125 61.7098 104.479 61.813C104.833 61.9162 106.089 62.5278 106.915 62.1738C107.74 61.8199 108.817 61.8071 108.817 61.8071L108.244 60.7512H108.243Z"/><path fill="#FC8400" d="M117.987 49.5596C117.987 49.5596 116.721 59.8457 114.624 60.7669C113.589 61.2211 109.016 62.2525 107.663 62.3557C107.663 62.3557 107.331 62.048 107.412 60.7984C107.412 60.7984 112.203 58.7878 112.883 57.6954C113.897 56.0683 112.255 51.0491 113.526 49.5213C114.797 47.9934 116.938 47.3366 117.986 49.5606L117.987 49.5596Z"/><path fill="#B0B9D9" d="M116.98 90.344H116.918C116.451 90.344 116.073 89.9783 116.073 89.5271V73.6445C116.073 73.1934 116.451 72.8276 116.918 72.8276H116.98C117.447 72.8276 117.825 73.1934 117.825 73.6445V89.5271C117.825 89.9783 117.447 90.344 116.98 90.344Z"/><path fill="#B0B9D9" d="M122.354 91.4953C121.788 90.1553 119.583 89.1563 116.95 89.1563C114.316 89.1563 112.112 90.1553 111.545 91.4953H122.355H122.354Z"/><path fill="#EAEFFD" d="M113.071 86.951H120.829C120.96 86.951 121.067 86.8528 121.067 86.7311V86.4659C121.067 86.3441 120.96 86.2459 120.829 86.2459H113.071C112.939 86.2459 112.833 86.3441 112.833 86.4659V86.7311C112.833 86.8528 112.939 86.951 113.071 86.951Z"/><path fill="#272948" d="M117.56 71.2309C117.191 71.9467 116.763 72.6182 116.322 73.2533C114.961 75.2167 113.479 76.8361 113.221 78.3669C113.169 78.6717 113.088 79 112.981 79.3461C112.874 79.6971 112.74 80.0658 112.587 80.4463C112.009 81.8798 111.145 83.4873 110.283 84.9473C108.792 87.4721 107.389 89.5781 107.389 89.5781L104.818 89.4532C104.921 89.1583 106.042 85.6729 107.542 81.4128C108.152 79.6834 108.799 77.8438 109.425 76.0702C109.507 75.8332 109.591 75.5972 109.673 75.3632C109.865 74.8205 110.053 74.2857 110.236 73.7656C111.645 69.766 112.766 66.5805 112.766 66.5805C112.766 66.5805 118.397 64.1432 118.982 65.7221C119.463 67.0239 119.071 68.3 117.559 71.2299L117.56 71.2309Z"/><path fill="#163560" d="M107.311 89.0452C107.311 89.0452 107.179 91.4698 106.768 91.5042C106.714 91.5091 104.686 91.5091 104.686 91.5091L102.098 91.4924C102.098 91.4924 102.115 90.7796 102.871 90.6291C103.627 90.4787 104.894 89.8711 105.352 88.7286C105.834 87.5262 107.309 89.0462 107.309 89.0462L107.311 89.0452Z"/><path fill="#163560" d="M113.264 82.1187C113.264 82.1187 115.053 83.4322 114.879 83.858C114.856 83.915 113.868 85.9374 113.868 85.9374L112.593 88.5114C112.593 88.5114 112.057 88.1476 112.31 87.3188C112.564 86.4909 112.718 84.9306 112.068 83.917C111.384 82.8502 113.264 82.1187 113.264 82.1187Z"/><path fill="#36395B" d="M110.746 65.497C110.746 65.497 103.778 70.4552 102.989 73.8354C102.2 77.2156 112.39 84.4272 112.39 84.4272C112.39 84.4272 113.508 83.3005 113.704 82.4746C113.704 82.4746 109.099 76.1695 108.1 74.7556C107.486 73.8875 117.172 71.751 118.355 69.647C119.539 67.544 119.114 65.7743 119.114 65.7743L110.746 65.498V65.497Z"/><path fill="#B0B9D9" d="M110.019 76.3917H123.88C124.337 76.3917 124.708 76.0495 124.708 75.6267V72.6487C124.708 72.2269 124.338 71.8838 123.88 71.8838H110.019C109.563 71.8838 109.192 72.2259 109.192 72.6487V75.6267C109.192 76.0485 109.562 76.3917 110.019 76.3917Z"/><path fill="#E49963" d="M114.113 47.7958C113.418 48.2874 113.037 48.9107 113.037 48.9107C114.729 49.4111 117.537 47.6188 117.537 47.6188C117.537 47.6188 116.447 46.7821 116.044 44.9435C116.024 44.8511 116.004 44.7558 115.988 44.6584C115.935 44.3487 115.902 44.0135 115.897 43.6516L115.12 44.448L113.827 45.7724C113.827 45.7724 113.856 46.322 114.018 47.2668C114.046 47.432 114.079 47.609 114.116 47.7967L114.113 47.7958Z"/><path fill="#FFA103" d="M119.328 56.9305C119.086 60.6578 119.405 66.3258 119.129 67.308C118.892 68.1546 116.187 67.6512 115.107 67.369C114.707 67.2648 114.223 67.1153 113.723 66.9384C112.328 66.4448 110.809 65.7399 110.646 65.2168C110.64 65.1962 110.634 65.1765 110.631 65.1568C110.616 65.0811 110.62 65.0093 110.634 64.9376C110.689 64.6711 110.898 64.3821 110.923 63.7224C110.95 62.985 110.946 62.1168 110.97 61.1838C110.972 61.0786 110.973 60.9645 110.983 60.8593V60.821C110.983 60.8013 110.984 60.7817 110.985 60.761C111.009 59.7198 111.057 58.6255 111.112 57.5401C111.147 56.8588 111.187 56.1833 111.234 55.5364C111.355 53.8669 111.52 52.3823 111.737 51.4434C112.091 49.9135 112.874 48.9156 113.585 48.1841L114.1 47.6798C114.674 47.8233 115.353 47.7279 115.967 47.3956C116.632 47.0348 116.861 46.7762 116.977 46.8735C118.513 48.2264 119.616 52.3735 119.33 56.9295L119.328 56.9305Z"/><path fill="#FC8400" d="M113.724 66.9374C112.329 66.4438 110.809 65.7389 110.646 65.2158C110.64 65.1952 110.635 65.1755 110.632 65.1558C110.632 65.0831 110.634 65.0093 110.635 64.9366C110.689 64.6701 110.898 64.3811 110.923 63.7214C110.951 62.984 110.946 62.1158 110.971 61.1828C110.972 61.0776 110.973 60.9635 110.984 60.8583V60.82C110.984 60.8003 110.985 60.7807 110.986 60.76L116.253 58.0297C116.253 58.0297 116.556 62.8817 113.725 66.9364L113.724 66.9374Z"/><path fill="#D68D5D" d="M113.823 45.7714C113.823 45.7714 113.853 46.321 114.015 47.2658C115.278 46.7998 115.85 45.4961 116.042 44.9435C116.096 44.7872 116.119 44.6909 116.119 44.6909C116.119 44.6909 116.07 44.6791 115.986 44.6584C115.809 44.6152 115.475 44.5345 115.116 44.448L113.823 45.7724V45.7714Z"/><path fill="#E49963" d="M113.312 45.7576C113.312 45.7576 116.086 46.1155 116.254 44.1373C116.422 42.1592 116.894 40.8741 115.129 40.5615C113.365 40.2498 112.956 40.9656 112.759 41.6105C112.562 42.2555 112.593 45.6131 113.311 45.7576H113.312Z"/><path fill="#2B478B" d="M116.243 44.274C116.243 44.274 116.068 41.6489 113.543 41.3766C111.813 41.1907 112.777 39.4888 112.962 39.2175C112.962 39.2175 114.287 39.4249 115.646 39.6815C118.496 40.2203 116.524 43.865 116.244 44.273L116.243 44.274Z"/><path fill="#4A75CB" d="M102.813 63.3291L102.571 63.4195L100.505 56.1528L100.747 56.0624L102.813 63.3291Z"/><path fill="#4A75CB" d="M109.576 62.7687L102.562 62.9396L102.571 63.4188L109.586 63.2469L109.576 62.7687Z"/><path fill="#E49963" d="M108.824 62.3321C108.824 62.3321 107.735 62.8031 106.999 62.6477C106.263 62.4924 105.076 63.0508 104.908 63.3723C104.738 63.6938 104.822 63.803 105.185 63.861C105.548 63.919 106.854 64.3693 107.64 63.9131C108.426 63.4569 109.495 63.3084 109.495 63.3084L108.823 62.3311L108.824 62.3321Z"/><path fill="#FFA103" d="M117.428 49.9814C117.428 49.9814 117.161 60.3648 115.167 61.5446C114.182 62.1266 109.736 63.7273 108.401 64.0006C108.401 64.0006 108.041 63.7371 108.001 62.4835C108.001 62.4835 112.569 59.882 113.14 58.7101C113.989 56.9649 111.873 52.1827 112.99 50.5044C114.106 48.8251 116.17 47.9029 117.427 49.9814H117.428Z"/><path fill="#EAEDF8" fill-rule="evenodd" d="M43.6204 131.287L16.1274 146.239L43.6204 162.194L69.8903 146.239L43.6204 131.287Z" clip-rule="evenodd"/><path fill="url(#paint4_linear_162_238)" fill-rule="evenodd" d="M43.0088 161.867V212.882L16.1274 197.443V146.122L43.0088 161.867Z" clip-rule="evenodd"/><path fill="url(#paint5_linear_162_238)" fill-rule="evenodd" d="M43.0087 161.424V212.882L69.8901 197.888V146.122L43.0087 161.424Z" clip-rule="evenodd"/><path fill="#D5DBED" fill-rule="evenodd" d="M41.5418 118.634L16.0345 133.247C15.0325 133.821 14.7012 135.072 15.2945 136.042C15.4756 136.338 15.7312 136.585 16.0373 136.759L41.5446 151.32C42.1972 151.692 43.0062 151.697 43.6637 151.333L69.9428 136.773C70.9532 136.213 71.3033 134.966 70.7246 133.989C70.5388 133.675 70.2699 133.414 69.9456 133.234L43.6666 118.621C43.0076 118.254 42.1958 118.259 41.5418 118.634Z" clip-rule="evenodd" opacity=".3"/><path fill="#F5F7FD" fill-rule="evenodd" d="M41.5418 111.494L16.0345 126.108C15.0325 126.682 14.7012 127.933 15.2945 128.902C15.4756 129.198 15.7312 129.445 16.0373 129.62L41.5446 144.18C42.1972 144.553 43.0062 144.558 43.6637 144.193L69.9428 129.633C70.9532 129.073 71.3033 127.827 70.7246 126.849C70.5388 126.535 70.2699 126.275 69.9456 126.094L43.6666 111.481C43.0076 111.115 42.1958 111.12 41.5418 111.494Z" clip-rule="evenodd"/><path fill="#D5DAF0" fill-rule="evenodd" d="M41.5562 111.455L37.5649 113.62L67.2 130.537L69.4479 129.525C70.5035 129.05 70.961 127.836 70.4697 126.815C70.2864 126.434 69.9857 126.116 69.6089 125.907L43.6381 111.465C42.9945 111.107 42.2037 111.103 41.5562 111.455Z" clip-rule="evenodd"/><path fill="#B0B9D9" fill-rule="evenodd" d="M43.3203 113.031C43.9025 113.371 44.3745 114.103 44.3745 114.666C44.3745 115.23 43.9025 115.411 43.3203 115.071C42.7381 114.732 42.2661 114 42.2661 113.436C42.2661 112.873 42.7381 112.692 43.3203 113.031ZM46.4828 114.876C47.065 115.216 47.537 115.948 47.537 116.511C47.537 117.075 47.065 117.256 46.4828 116.916C45.9006 116.577 45.4286 115.845 45.4286 115.281C45.4286 114.718 45.9006 114.537 46.4828 114.876ZM49.6453 116.722C50.2275 117.061 50.6995 117.793 50.6995 118.356C50.6995 118.92 50.2275 119.101 49.6453 118.761C49.0631 118.422 48.5911 117.69 48.5911 117.126C48.5911 116.563 49.0631 116.382 49.6453 116.722Z" clip-rule="evenodd"/><path fill="url(#paint6_linear_162_238)" fill-rule="evenodd" d="M47.5369 127.835L51.1426 132.931L50.408 133.669L43.9355 132.651L44.3744 131.505L49.0961 132.214L46.4828 128.513L47.5369 127.835ZM45.8977 125.091L47.1174 126.226L36.8365 130.537L36.2402 129.207L45.8977 125.091ZM32.1633 121.098L39.0171 121.871V123.285L34.4428 122.82L36.7637 125.798L35.943 126.962L31.6587 121.871L32.1633 121.098Z" clip-rule="evenodd"/><path fill="#EAEDF8" fill-rule="evenodd" d="M216.933 93.549L147.392 130.42L216.933 169.764L283.38 130.42L216.933 93.549Z" clip-rule="evenodd"/><path fill="url(#paint7_linear_162_238)" fill-rule="evenodd" d="M217.129 168.536V297.537L147.392 258.495V130.536L217.129 168.536Z" clip-rule="evenodd"/><path fill="url(#paint8_linear_162_238)" fill-rule="evenodd" d="M217.129 168.814V297.537L283.38 260.03V130.536L217.129 168.814Z" clip-rule="evenodd"/><path fill="#000" d="M232.022 105.705C231.781 105.573 231.486 105.573 231.245 105.705C223.914 109.249 218.416 111.907 214.751 113.679C214.735 113.687 214.712 113.889 214.681 114.287C214.699 114.741 214.707 115.055 214.704 115.23C214.702 115.362 214.734 115.496 214.806 115.619C214.877 115.74 214.98 115.84 215.104 115.908L242.495 130.94C243.338 131.403 244.371 131.402 245.214 130.939L260.384 122.601C260.635 122.463 260.778 122.212 260.784 121.951C260.786 121.862 260.794 121.602 260.807 121.17C260.807 120.533 260.741 120.214 260.61 120.214C251.804 120.214 242.274 115.378 232.022 105.705Z"/><path fill="#D5DAF0" fill-rule="evenodd" d="M232.022 105.705C231.781 105.573 231.486 105.573 231.245 105.705C223.914 109.249 218.416 111.907 214.751 113.679C214.735 113.687 214.712 113.889 214.681 114.287C214.699 114.741 214.707 115.055 214.704 115.23C214.702 115.362 214.734 115.496 214.806 115.619C214.877 115.74 214.98 115.84 215.104 115.908L242.495 130.94C243.338 131.403 244.371 131.402 245.214 130.939L260.384 122.601C260.635 122.463 260.778 122.212 260.784 121.951C260.786 121.862 260.794 121.602 260.807 121.17C260.807 120.533 260.741 120.214 260.61 120.214C251.804 120.214 242.274 115.378 232.022 105.705Z" clip-rule="evenodd"/><path fill="#F8F9FD" d="M260.384 119.74L232.022 104.175C231.781 104.043 231.486 104.043 231.245 104.175L215.104 113.047C214.725 113.256 214.592 113.722 214.807 114.09C214.877 114.21 214.98 114.31 215.104 114.378L242.495 129.41C243.339 129.873 244.371 129.873 245.214 129.409L260.384 121.071C260.763 120.863 260.896 120.396 260.682 120.029C260.611 119.908 260.508 119.808 260.384 119.74Z"/><path fill="#D5DAF0" d="M247.009 107.404L229.662 97.8436L245.432 121.552L247.009 120.596V107.404Z"/><path fill="#EDEDF7" fill-rule="evenodd" d="M245.432 108.36L228.085 98.7996V111.992L245.432 121.552V108.36Z" clip-rule="evenodd"/><path fill="#D5DAF0" d="M245.432 108.36L228.085 98.7996V111.992L245.432 121.552V108.36Z"/><path fill="#D5DAF0" d="M274.56 67.134L209.737 31.5805C209.147 31.2567 208.458 31.2603 207.892 31.5313C207.664 31.6407 206.904 32.0116 205.613 32.644C205.219 33.0615 205.022 33.3802 205.022 33.6L206.796 84.7462C206.796 86.8139 207.943 88.7216 209.799 89.7393L274.409 126.332C275.448 125.852 276.162 125.508 276.548 125.3C276.856 125.135 277.121 124.888 277.307 124.57C277.475 124.282 277.562 123.958 277.562 123.628V72.1271C277.562 70.0594 276.415 68.1518 274.56 67.134Z"/><path fill="#EFF1FA" d="M272.588 68.09L207.766 32.5366C206.818 32.0168 205.616 32.3406 205.08 33.2598C204.913 33.5469 204.825 33.8711 204.825 34.2009V85.7023C204.825 87.7699 205.972 89.6776 207.827 90.6953L272.65 126.249C273.597 126.769 274.8 126.445 275.336 125.526C275.503 125.238 275.591 124.914 275.591 124.584V73.0831C275.591 71.0154 274.444 69.1078 272.588 68.09Z"/><path fill="#F8F9FD" d="M275.591 119.449L204.825 80.6355V85.7022C204.825 87.7699 205.972 89.6776 207.827 90.6953L272.65 126.249C273.597 126.769 274.8 126.445 275.336 125.526C275.503 125.238 275.591 124.914 275.591 124.584V119.449Z"/><path fill="#D5DAF0" d="M257.456 100.301V103.169L267.312 108.584V105.716L257.456 100.301Z"/><path fill="#D5DAF0" d="M241.095 86.5311V89.4309L267.312 103.804V100.936L255.485 94.4516V94.4377L252.725 92.9213V92.9387L250.754 91.858V91.8383L241.095 86.5311Z"/><path fill="url(#paint9_linear_162_238)" fill-rule="evenodd" d="M257.456 71.0467V83.666L267.312 89.0816V76.4623L257.456 71.0467Z" clip-rule="evenodd"/><path fill="#D5DAF0" d="M231.83 56.9671V84.3088L239.124 88.3162V60.9743L231.83 56.9671Z"/><path fill="#D5DAF0" d="M220.2 79.8307V82.6987L229.859 88.0057V85.1377L220.2 79.8307Z"/><path fill="#FEC11B" d="M220.2 75.0507V77.9187L229.859 83.2257V80.3576L220.2 75.0507Z"/><path fill="#D5DAF0" d="M252.725 78.1988V81.0668L255.485 82.583V79.715L252.725 78.1988Z"/><path fill="#D5DAF0" d="M241.095 71.8087V74.6767L250.754 79.9837V77.1156L241.095 71.8087Z"/><path fill="#D5DAF0" d="M220.2 70.0795V72.9475L229.859 78.2544V75.3864L220.2 70.0795Z"/><path fill="#D5DAF0" d="M252.725 73.4188V76.2868L255.485 77.803V74.935L252.725 73.4188Z"/><path fill="#D5DAF0" d="M211.921 70.5018V73.3698L218.229 76.8357V73.9677L211.921 70.5018Z"/><path fill="#D5DAF0" d="M241.095 67.0287V69.8967L250.754 75.2036V72.3356L241.095 67.0287Z"/><path fill="#D5DAF0" d="M211.921 60.5594V63.4274L212.118 63.5356V63.5786L229.859 73.2832V70.4152L218.229 64.0534V64.0251L211.921 60.5594Z"/><path fill="#D5DAF0" d="M252.725 68.4476V71.3156L255.485 72.8318V69.9638L252.725 68.4476Z"/><path fill="url(#paint10_linear_162_238)" fill-rule="evenodd" d="M211.921 65.5306V68.3986L218.229 71.8645V68.9965L211.921 65.5306Z" clip-rule="evenodd"/><path fill="#D5DAF0" d="M241.095 62.0574V64.9254L250.754 70.2324V67.3644L241.095 62.0574Z"/><path fill="#D5DAF0" d="M211.921 55.7793V58.6474L212.118 58.7556V58.7986L229.859 68.5032V65.6352L218.229 59.2733V59.2451L211.921 55.7793Z"/><path fill="url(#paint11_linear_162_238)" fill-rule="evenodd" d="M211.921 50.9993V53.8673L212.118 53.9755V54.0186L229.859 63.7232V60.8552L218.229 54.4931V54.465L211.921 50.9993Z" clip-rule="evenodd"/><path fill="#D5DAF0" d="M211.921 46.0281V48.8961L212.118 49.0043V49.0473L229.859 58.7519V55.8839L218.229 49.5219V49.4938L211.921 46.0281Z"/><path fill="url(#paint12_linear_162_238)" fill-rule="evenodd" d="M246.445 64.6078L267.247 75.9006V95.9082L246.445 84.6788V64.6078Z" clip-rule="evenodd"/><path fill="#FEFFFE" fill-rule="evenodd" d="M260.1 79.1591L264.085 84.4396V85.276L260.1 87.3186V85.6053L262.491 84.4396L259.868 80.48L260.1 79.1591ZM258.403 75.0793L259.868 75.5854L256.075 86.2987L254.597 85.9477L258.403 75.0793ZM253.543 74.0594V75.9615L251.194 77.297L253.543 81.5439L253.247 83.2389L249.326 76.3372L253.543 74.0594Z" clip-rule="evenodd"/><path fill="#36395B" d="M195.457 141.958L203.34 141.61C203.304 141.332 203.269 141.089 203.089 140.915C202.874 140.672 202.588 140.568 202.265 140.533C201.979 140.499 201.656 140.533 201.334 140.533C200.581 140.533 199.829 140.36 199.148 140.047C198.789 139.873 198.467 139.665 198.109 139.561L195.959 139.699C195.672 140.012 195.493 140.429 195.457 140.846C195.421 141.193 195.421 141.576 195.457 141.958Z"/><path fill="#36395B" d="M171.091 139.352L178.508 141.992C178.58 141.749 178.651 141.506 178.544 141.228C178.436 140.95 178.221 140.742 177.935 140.568C177.684 140.429 177.361 140.325 177.111 140.221C176.43 139.943 175.785 139.491 175.319 138.935C175.068 138.657 174.853 138.31 174.531 138.067L172.488 137.406C172.094 137.58 171.772 137.928 171.557 138.275C171.377 138.622 171.234 138.97 171.091 139.352Z"/><path fill="#36395B" d="M196.336 122.638C196.228 121.734 196.048 120.831 195.795 119.928C194.894 116.792 192.551 108.848 192.551 108.848L175.462 109.858L176.976 121.575L172.145 138.713L174.741 139.457L182.78 122.292C182.78 122.239 184.98 115.491 184.98 115.491L190.207 122.266L195.543 140.466L198.499 140.307L196.336 122.638Z"/><path fill="#E49963" d="M202.889 110.989L201.599 109.912L200.56 111.302L201.993 112.136C202.352 112.344 202.818 112.309 203.032 111.997C203.319 111.719 203.247 111.267 202.889 110.989Z"/><path fill="#fff" d="M200.56 111.441L201.814 109.842C200.094 108.383 198.374 106.889 196.905 105.291C196.188 104.492 195.507 103.658 194.97 102.79C194.397 101.921 193.967 101.018 193.608 100.114C192.927 98.2383 192.712 96.2232 192.712 94.1733C192.712 93.1311 192.82 92.0888 192.927 91.0465L193.035 90.2474L193.142 89.4483L193.214 89.0662L193.286 88.684L193.429 87.8849C193.429 87.8502 193.429 87.8154 193.429 87.7807C193.465 87.4332 193.429 87.1206 193.322 86.7731C193.214 86.4604 193.071 86.1478 192.856 85.9046C192.426 85.3834 191.817 85.0012 191.064 84.897C190.312 84.7928 189.559 85.0012 189.022 85.4529C188.448 85.9046 188.09 86.5647 188.018 87.329L187.983 88.1976L187.947 88.6492V89.1009C187.947 89.3788 187.947 89.6915 187.947 89.9695V90.8728C187.947 92.054 188.018 93.27 188.162 94.4513C188.305 95.6673 188.52 96.8833 188.843 98.0645C189.165 99.2805 189.595 100.462 190.204 101.574C190.778 102.72 191.494 103.762 192.283 104.7C193.071 105.673 193.967 106.507 194.862 107.306C195.758 108.105 196.726 108.8 197.657 109.495C198.625 110.155 199.592 110.78 200.56 111.441Z"/><path fill="#FEAA0F" d="M193.143 89.5875L193.25 89.5527L193.286 89.4137L193.358 89.0316L193.573 87.8503C193.573 87.8156 193.573 87.7808 193.573 87.7461C193.608 87.3987 193.573 87.0512 193.465 86.7038C193.429 86.5648 193.393 86.4606 193.322 86.3564L193.25 86.4259C193.286 86.5301 193.322 86.6343 193.358 86.7385C193.465 87.0512 193.501 87.3987 193.465 87.7461C193.465 87.7808 193.465 87.8156 193.465 87.8503L193.322 88.6494L193.25 89.0316L193.178 89.4137L193.143 89.5875ZM192.748 94.0345H192.856C192.856 93.3744 192.928 92.6448 192.999 91.8805H192.892C192.784 92.5753 192.748 93.3049 192.748 94.0345ZM187.947 87.6071L188.054 87.6766V87.2944C188.126 86.5301 188.484 85.87 189.058 85.4183C189.631 84.9667 190.348 84.7582 191.1 84.8624C191.673 84.9319 192.175 85.1751 192.569 85.5225L192.641 85.4531C192.211 85.0709 191.673 84.8277 191.1 84.7582C190.706 84.6887 190.348 84.7235 189.989 84.8277C189.631 84.9319 189.273 85.1056 188.986 85.3141C188.377 85.7657 188.019 86.4953 187.947 87.2597V87.6071ZM189.165 99.4197L189.273 99.3849C189.129 98.9333 188.986 98.4816 188.843 98.03C188.52 96.814 188.305 95.598 188.162 94.4167C188.019 93.2007 187.983 92.0195 187.947 90.8382V89.9349C187.947 89.9349 187.947 89.9349 187.947 89.9001H187.839V90.8035C187.875 92.1237 187.911 93.3049 188.054 94.4167C188.198 95.7369 188.413 96.9182 188.735 98.0647C188.878 98.5164 189.022 98.968 189.165 99.4197ZM192.748 105.361C193.358 106.021 194.038 106.681 194.791 107.341C195.615 108.036 196.511 108.731 197.586 109.53C197.98 109.808 198.374 110.086 198.804 110.398V110.259C198.41 109.982 198.016 109.704 197.657 109.46C196.69 108.766 195.758 108.071 194.863 107.272C194.146 106.646 193.465 105.986 192.82 105.291C192.784 105.291 192.784 105.326 192.748 105.361ZM197.55 105.951L197.586 105.847C197.371 105.639 197.156 105.43 196.977 105.187C196.188 104.318 195.579 103.519 195.042 102.72C194.468 101.852 194.003 100.948 193.68 100.045C193.501 99.5934 193.358 99.107 193.25 98.6206H193.143C193.25 99.107 193.393 99.5934 193.573 100.08C193.895 101.018 194.361 101.921 194.934 102.755C195.507 103.624 196.152 104.457 196.869 105.256C197.12 105.5 197.335 105.743 197.55 105.951ZM198.231 106.611C199.377 107.723 200.596 108.766 201.814 109.843L201.241 110.572C201.241 110.607 201.277 110.642 201.277 110.676L201.957 109.843L201.886 109.773C200.739 108.8 199.485 107.723 198.302 106.542L198.231 106.611Z"/><path fill="#fff" d="M176.362 110.82C182.02 112.429 186.823 112.429 193.229 109.621L192.979 94.4733L192.944 92.5168V91.791L192.908 90.4025C192.908 90.2131 192.908 90.0238 192.873 89.8344C192.588 87.5308 190.916 85.6374 188.603 84.8169C188.389 84.7222 188.14 84.6591 187.927 84.596C187.144 84.4066 186.29 84.312 185.4 84.4066C185.151 84.4382 184.938 84.4697 184.724 84.5013C184.226 84.5644 183.763 84.6906 183.301 84.8484C180.739 85.7005 178.782 87.5939 178.07 89.9607C177.892 90.5287 177.821 91.1283 177.785 91.7279V91.9172V92.643L177.75 93.5582L176.362 110.82Z"/><path fill="#FFAD16" d="M193.015 94.0095V93.9453L192.873 93.9131V94.0095L193.051 104.292H193.193L193.015 94.0095ZM181.628 84.7551C179.742 85.7834 178.355 87.4543 177.785 89.3823C177.785 89.4466 177.75 89.5109 177.75 89.5751L177.892 89.6073C177.892 89.543 177.928 89.4787 177.928 89.4466C178.497 87.5186 179.849 85.8798 181.699 84.8836L181.628 84.7551ZM176.362 107.666H176.504L177.536 94.0738L177.394 94.0417L176.362 107.666ZM192.908 89.8965C192.908 89.7037 192.908 89.5109 192.873 89.3181C192.624 87.1972 191.236 85.3335 189.136 84.3695L189.101 84.498C191.058 85.4299 192.517 87.2294 192.73 89.3502C192.766 89.543 192.766 89.7358 192.766 89.9286L192.802 91.3425V91.5674H192.944L192.908 89.8965ZM193.193 106.895H193.051L193.086 109.434C186.93 112.197 182.198 112.294 176.789 110.815L176.753 110.944C179.137 111.587 181.237 111.908 183.265 111.908C184.866 111.908 186.432 111.715 188.069 111.33C189.706 110.944 191.378 110.366 193.157 109.562L193.229 109.53L193.193 106.895Z"/><path fill="#A2A9C9" d="M212.032 86.0451L207.43 81.418L199.434 88.8936L204.035 93.5207L212.032 86.0451Z"/><path fill="#B0B9D9" d="M205.212 94.6858L198.323 87.7577L173.997 110.498L180.887 117.426L205.212 94.6858Z"/><path fill="url(#paint13_linear_162_238)" d="M207.998 51.4228C217.996 42.0769 233.977 42.3549 243.616 52.0481C253.255 61.7414 252.968 77.2367 242.971 86.5825C233.762 95.164 219.537 95.6504 209.79 88.1112C208.93 87.4511 208.106 86.7215 207.353 85.9572C206.565 85.1581 205.849 84.359 205.204 83.4904C197.822 73.8319 198.825 60.039 207.998 51.4228ZM238.384 81.9965C245.766 75.0826 245.981 63.6522 238.85 56.53C231.72 49.3729 219.931 49.1645 212.585 56.0783C205.204 62.9921 204.989 74.4225 212.119 81.5448C219.25 88.7018 231.039 88.9103 238.384 81.9965Z"/><path fill="#fff" d="M212.119 81.5448C219.25 88.7018 231.039 88.9103 238.385 81.9965C245.766 75.0826 245.981 63.6522 238.85 56.53C231.72 49.3729 219.931 49.1645 212.585 56.0783C205.204 62.9574 204.989 74.3878 212.119 81.5448Z" opacity=".5"/><path fill="url(#paint14_linear_162_238)" fill-rule="evenodd" d="M186.478 86.5995C186.8 86.5301 187.087 86.4606 187.409 86.3911C188.986 92.7143 189.667 99.3849 189.308 106.195C188.807 106.855 188.305 107.48 187.803 108.105C187.409 107.411 187.015 106.716 186.621 106.056C187.517 99.5239 187.481 92.9575 186.478 86.5995Z" clip-rule="evenodd"/><path fill="#E49963" d="M188.7 80.5543L188.198 85.4183C187.015 86.0089 185.941 85.9047 184.901 85.1056L185.403 80.2416L188.7 80.5543Z"/><path fill="#D68D5D" d="M188.699 80.5543L188.484 82.7778C188.234 82.8473 187.983 82.882 187.732 82.882C187.66 82.882 187.553 82.882 187.481 82.882C186.585 82.8125 185.761 82.3261 185.295 81.5965L185.439 80.2763L188.699 80.5543Z"/><path fill="#E49963" d="M190.491 77.7054L190.097 80.5543C189.918 81.7008 188.914 82.5346 187.732 82.5346C186.657 82.5346 185.69 81.8745 185.295 80.9017C185.045 80.2416 184.83 79.512 184.65 78.7129C184.328 77.4622 184.758 76.1072 185.761 75.2734C186.621 74.5438 187.625 74.4048 188.807 74.8565C189.989 75.3429 190.67 76.4894 190.491 77.7054Z"/><path fill="#050F64" d="M189.99 76.142C189.99 76.142 190.491 77.1148 190.312 78.8866C190.312 78.8866 190.814 77.1495 190.563 75.725L189.99 76.142Z"/><path fill="#050F64" d="M183.576 78.6434C183.576 78.6434 182.107 76.2462 183.862 74.5438C185.761 72.7024 186.944 72.9456 188.198 73.3625C189.81 73.8489 190.635 74.4395 191.28 74.3353C191.602 74.2658 191.925 74.0226 191.96 74.1963C191.996 74.3701 192.032 75.4471 191.065 76.2114C190.097 76.9758 188.879 76.8021 187.696 76.1419C186.514 75.4818 185.976 75.5513 185.439 76.2462C184.866 76.9758 185.546 78.4002 185.546 78.4002L185.188 78.5045C185.152 78.5045 183.826 77.6706 183.576 78.6434Z"/><path fill="#E49963" d="M186.008 78.5903C186.073 77.8938 185.542 77.2786 184.822 77.216C184.102 77.1535 183.466 77.6674 183.402 78.3639C183.337 79.0603 183.868 79.6756 184.588 79.7381C185.308 79.8006 185.944 79.2867 186.008 78.5903Z"/><path fill="#FEAF1A" d="M183.611 84.4803L186.048 88.3367L186.944 86.4953L188.843 88.0588L188.986 84.4455C188.771 84.3413 188.556 84.3065 188.341 84.2371L186.908 85.6615L185.009 84.0981C184.507 84.2023 184.077 84.3065 183.611 84.4803Z"/><path fill="#E49963" d="M208.981 85.731L207.583 86.6343L208.694 87.9893L209.913 86.8775C210.235 86.5996 210.307 86.1479 210.056 85.87C209.805 85.5225 209.339 85.4878 208.981 85.731Z"/><path fill="#fff" d="M208.766 88.024L207.547 86.4258C205.612 87.6418 203.677 88.8231 201.707 89.7612C200.703 90.2128 199.7 90.6297 198.697 90.9077C197.693 91.1856 196.69 91.3941 195.651 91.4288C193.608 91.5678 191.566 91.2204 189.524 90.6297C188.484 90.317 187.481 89.9696 186.478 89.5874L185.725 89.2748L184.973 88.9621L184.579 88.7884L184.184 88.6146L183.432 88.2672C183.396 88.2672 183.36 88.2325 183.324 88.2325C183.002 88.0935 182.644 88.0588 182.321 88.0588C181.999 88.0588 181.64 88.1282 181.318 88.2672C180.673 88.5104 180.135 88.9968 179.849 89.6569C179.526 90.3518 179.562 91.0814 179.849 91.7068C180.135 92.3321 180.709 92.888 181.425 93.1312L182.285 93.4092L182.715 93.5481L183.145 93.6871C183.432 93.7566 183.719 93.8608 184.005 93.9303L184.901 94.1735C186.084 94.4862 187.302 94.7641 188.52 94.9726C189.739 95.181 191.028 95.32 192.318 95.32C193.608 95.3548 194.898 95.2505 196.188 95.0073C197.478 94.7641 198.697 94.382 199.879 93.8956C201.062 93.4092 202.137 92.8185 203.176 92.1932C204.215 91.5678 205.182 90.8729 206.114 90.1781C206.974 89.4832 207.87 88.7536 208.766 88.024Z"/><path fill="#FFB72C" d="M185.08 89.0316V88.9273L184.937 88.8578L184.543 88.6841L183.396 88.163C183.36 88.163 183.324 88.1282 183.289 88.1282C182.966 87.9893 182.608 87.9198 182.25 87.9198C182.106 87.9198 181.999 87.9198 181.855 87.9545L181.891 88.0588C181.999 88.0588 182.106 88.024 182.25 88.024C182.572 88.024 182.93 88.0935 183.253 88.1977C183.289 88.1977 183.324 88.2325 183.36 88.2325L184.113 88.5799L184.507 88.7536L184.901 88.9273L185.08 89.0316ZM189.38 90.595V90.4908C188.699 90.2823 188.019 90.0738 187.266 89.7959L187.23 89.9001C187.947 90.1433 188.664 90.3865 189.38 90.595ZM181.676 93.3397L181.748 93.2702L181.354 93.1312C180.601 92.8533 180.028 92.3321 179.777 91.7068C179.49 91.0814 179.49 90.317 179.777 89.6569C180.028 89.1358 180.386 88.7536 180.852 88.4757L180.816 88.3714C180.315 88.6494 179.956 89.101 179.705 89.6222C179.562 89.9696 179.455 90.317 179.455 90.6992C179.455 91.0814 179.526 91.4288 179.67 91.7762C179.956 92.4711 180.565 92.9922 181.318 93.2702L181.676 93.3397ZM193.752 95.3895L193.716 95.2853C193.214 95.32 192.713 95.32 192.247 95.32C190.957 95.2853 189.703 95.1463 188.449 94.9726C187.23 94.7641 186.012 94.4862 184.829 94.1735L183.934 93.9303C183.934 93.9303 183.934 93.9303 183.898 93.9303V94.0345L184.794 94.2777C186.119 94.6252 187.302 94.8684 188.413 95.0768C189.774 95.2853 191.028 95.4242 192.211 95.4242C192.784 95.4242 193.25 95.4242 193.752 95.3895ZM200.632 93.6524C201.456 93.2702 202.28 92.8185 203.176 92.2626C204.107 91.7068 205.039 91.0466 206.114 90.2476C206.508 89.9696 206.902 89.6569 207.296 89.3442L207.153 89.3095C206.795 89.5874 206.401 89.9001 206.042 90.1781C205.111 90.8729 204.143 91.5678 203.104 92.1932C202.316 92.6796 201.456 93.166 200.596 93.5829C200.596 93.6176 200.596 93.6176 200.632 93.6524ZM202.531 89.3442L202.459 89.2748C202.172 89.4137 201.922 89.5527 201.635 89.6569C200.56 90.1433 199.592 90.5255 198.661 90.8034C197.622 91.0814 196.618 91.2898 195.651 91.3246C195.149 91.3593 194.648 91.3593 194.11 91.3246L194.074 91.4288C194.612 91.4636 195.113 91.4636 195.651 91.4288C196.654 91.3593 197.693 91.1856 198.697 90.9077C199.7 90.6297 200.703 90.2128 201.707 89.7612C201.957 89.6222 202.244 89.4832 202.531 89.3442ZM203.355 88.8926C204.752 88.1282 206.15 87.2944 207.511 86.4259L208.085 87.1555C208.121 87.1555 208.156 87.1555 208.192 87.1207L207.547 86.2521L207.476 86.2869C206.221 87.086 204.788 87.9893 203.319 88.7536L203.355 88.8926Z"/><path fill="#EAEDF8" fill-rule="evenodd" d="M333.937 125.167L311.296 137.503L333.937 150.666L355.571 137.503L333.937 125.167Z" clip-rule="evenodd"/><path fill="url(#paint15_linear_162_238)" fill-rule="evenodd" d="M333.434 150.396V192.483L311.296 179.746V137.406L333.434 150.396Z" clip-rule="evenodd"/><path fill="url(#paint16_linear_162_238)" fill-rule="evenodd" d="M333.434 150.03V192.483L355.571 180.114V137.406L333.434 150.03Z" clip-rule="evenodd"/><path fill="#EAEDF8" fill-rule="evenodd" d="M118.275 164.945L99.4072 175.307L118.275 186.364L136.303 175.307L118.275 164.945Z" clip-rule="evenodd"/><path fill="url(#paint17_linear_162_238)" fill-rule="evenodd" d="M118.382 185.969V221.042L99.4072 210.427V175.144L118.382 185.969Z" clip-rule="evenodd"/><path fill="url(#paint18_linear_162_238)" fill-rule="evenodd" d="M117.328 185.664V221.042L136.303 210.734V175.144L117.328 185.664Z" clip-rule="evenodd"/><path fill="#DEE4F2" d="M104.678 155.37L117.328 162.27V176.164L104.678 169.264V155.37Z"/><path fill="#D1D8EC" d="M129.979 155.37L117.328 162.27V176.164L129.979 169.264V155.37Z"/><path fill="#EAEDF8" d="M104.678 155.557L117.328 148.626L129.978 155.557L117.328 162.489L104.678 155.557Z"/><path stroke="url(#paint19_linear_162_238)" stroke-width=".8" d="M101.516 153.533L117.855 162.456V180.122L101.516 171.209L101.516 153.533Z"/><path stroke="url(#paint20_linear_162_238)" stroke-width=".8" d="M134.195 153.533L117.855 162.456V180.122L134.195 171.209V153.533Z"/><path stroke="url(#paint21_linear_162_238)" stroke-width=".8" d="M101.516 171.289L117.855 162.334L134.195 171.289L117.855 180.244L101.516 171.289Z" opacity=".3"/><path stroke="url(#paint22_linear_162_238)" stroke-width=".8" d="M101.516 153.501L117.855 144.546L134.195 153.501L117.855 162.456L101.516 153.501Z"/><path fill="#EAEDF8" fill-rule="evenodd" d="M38.014 25.2129L25.6152 32.1209L38.014 39.4921L49.8612 32.1209L38.014 25.2129Z" clip-rule="evenodd"/><path fill="url(#paint23_linear_162_238)" fill-rule="evenodd" d="M37.2111 38.3085V60.9109L25.6152 54.0703V31.3326L37.2111 38.3085Z" clip-rule="evenodd"/><path fill="url(#paint24_linear_162_238)" fill-rule="evenodd" d="M37.2112 38.1121V60.9109L48.8071 54.2679V31.3326L37.2112 38.1121Z" clip-rule="evenodd"/><g opacity=".7"><path fill="#EAEDF8" fill-rule="evenodd" d="M280.473 29.2927L268.075 36.2007L280.473 43.5718L292.321 36.2007L280.473 29.2927Z" clip-rule="evenodd"/><path fill="url(#paint25_linear_162_238)" fill-rule="evenodd" d="M279.671 42.3883V64.9906L268.075 58.15V35.4123L279.671 42.3883Z" clip-rule="evenodd"/><path fill="url(#paint26_linear_162_238)" fill-rule="evenodd" d="M279.671 42.1919V64.9906L291.267 58.3476V35.4123L279.671 42.1919Z" clip-rule="evenodd"/></g><g opacity=".7"><path fill="#EAEDF8" fill-rule="evenodd" d="M304.72 181.264L292.321 188.172L304.72 195.543L316.567 188.172L304.72 181.264Z" clip-rule="evenodd"/><path fill="url(#paint27_linear_162_238)" fill-rule="evenodd" d="M303.917 194.36V216.962L292.321 210.121V187.384L303.917 194.36Z" clip-rule="evenodd"/><path fill="url(#paint28_linear_162_238)" fill-rule="evenodd" d="M303.917 194.163V216.962L315.513 210.319V187.384L303.917 194.163Z" clip-rule="evenodd"/></g><path fill="#EAEDF8" fill-rule="evenodd" d="M396.529 138.426L379.817 147.308L396.529 156.785L412.497 147.308L396.529 138.426Z" clip-rule="evenodd"/><path fill="url(#paint29_linear_162_238)" fill-rule="evenodd" d="M396.684 156.987V187.384L379.817 178.184V147.606L396.684 156.987Z" clip-rule="evenodd"/><path fill="url(#paint30_linear_162_238)" fill-rule="evenodd" d="M395.63 156.723V187.384L412.497 178.45V147.606L395.63 156.723Z" clip-rule="evenodd"/><path fill="#DEE4F2" d="M316.49 105.26L331.689 113.628V130.479L316.49 122.111V105.26Z"/><path fill="#D1D8EC" d="M346.888 105.26L331.689 113.628V130.479L346.888 122.111V105.26Z"/><path fill="#EAEDF8" d="M316.49 105.488L331.689 97.0811L346.888 105.488L331.689 113.894L316.49 105.488Z"/><path stroke="url(#paint31_linear_162_238)" stroke-width=".8" d="M312.268 102.453L332.111 113.448V135.217L312.268 124.233V102.453Z"/><path stroke="url(#paint32_linear_162_238)" stroke-width=".8" d="M351.954 102.453L332.111 113.448V135.217L351.954 124.233V102.453Z"/><path stroke="url(#paint33_linear_162_238)" stroke-width=".8" d="M312.268 124.332L332.111 113.298L351.954 124.332L332.111 135.367L312.268 124.332Z" opacity=".3"/><path stroke="url(#paint34_linear_162_238)" stroke-width=".8" d="M312.268 102.413L332.111 91.379L351.954 102.413L332.111 113.448L312.268 102.413Z"/><path stroke="#777B8E" stroke-linecap="round" stroke-linejoin="round" stroke-width="1.28" d="M333.453 70.5899C333.695 70.2222 333.695 76.8742 333.453 90.5458C333.617 90.3871 333.863 90.3078 334.191 90.3078C334.683 90.3078 334.928 91.2597 334.683 92.2115C334.437 93.1634 333.207 94.1153 332.47 94.1153C331.978 94.1153 331.732 93.798 331.732 93.1634"/><path stroke="#777B8E" stroke-linecap="round" stroke-linejoin="round" stroke-width=".96" d="M320.29 97.7268V96.8355L332.962 93.8773L343.551 107.531V112.688"/><path fill="#000" d="M388.26 118.657L388.259 118.657L366.994 106.93V104.354L378.36 98.6681H398.159L409.525 104.354V106.93L388.26 118.657L388.26 118.657Z"/><path fill="#D5DAF0" fill-rule="evenodd" d="M388.26 118.657L388.259 118.657L366.994 106.93V104.354L378.36 98.6681H398.159L409.525 104.354V106.93L388.26 118.657L388.26 118.657Z" clip-rule="evenodd"/><path fill="#F8F9FD" d="M366.749 104.26L388.014 92.4809L409.279 104.26L388.014 116.04L366.749 104.26Z"/><path fill="#D5DAF0" d="M388.137 112.41L388.137 112.41L373.878 104.557V98.3703L381.499 94.5629H394.775L402.396 98.3703V104.557L388.137 112.41L388.137 112.41Z"/><path fill="#F8F9FD" d="M373.878 98.3105L388.137 90.4576L402.396 98.3105L388.137 106.163L373.878 98.3105Z"/><path fill="#D5DAF0" d="M394.547 93.7307L388.332 90.2735L388.249 94.3655L386.981 93.6601L387.059 89.8439L380.968 93.3497L379.7 92.6443L387.012 88.4358L387.087 88.4772L387.201 82.8898L381.233 86.3244L379.965 85.6191L387.23 81.4377L387.347 75.6935L381.287 79.1816L380.019 78.4762L387.331 74.2677L387.376 74.2925L387.489 68.7393L381.552 72.1563L380.284 71.4509L387.519 67.2871L387.636 61.5427L381.606 65.0134L380.338 64.3081L387.65 60.0995L387.665 60.1076L387.783 54.3468L381.66 57.8706L380.392 57.1652L387.704 52.9567L387.81 53.0152L387.929 47.1505L381.714 50.7277L380.446 50.0223L387.758 45.8138L387.954 45.9229L388.068 40.3332L381.855 43.9093L380.587 43.204L387.899 38.9954L388.093 39.1032L388.281 29.8951L389.003 29.58L389.552 30.1245L389.362 39.5329L396.054 43.2558L395.434 44.2903L389.334 40.897L389.223 46.3528L395.912 50.0742L395.292 51.1087L389.196 47.7169L389.079 53.4456L395.859 57.2171L395.239 58.2516L389.052 54.8097L388.935 60.5384L395.805 64.3599L395.185 65.3944L388.908 61.9024L388.791 67.6312L395.751 71.5028L395.131 72.5373L388.764 68.9952L388.648 74.7239L395.486 78.5281L394.866 79.5626L388.62 76.088L388.504 81.8167L395.432 85.6709L394.812 86.7054L388.476 83.1807L388.36 88.9095L395.167 92.6962L394.547 93.7307Z"/><path fill="#EDEDF7" d="M395.485 97.8943L394.254 98.6166L394.354 93.5031L388.279 96.9993L388.179 101.895L387.611 102.232L386.905 101.904L387.004 97.0344L386.993 97.0536L381.054 93.7499L380.954 98.6623L379.686 97.9567L380.512 57.5725L380.497 57.5643L380.512 57.5389L380.657 50.478L380.551 50.4191L380.662 50.2346L380.796 43.6563L380.692 43.5985L380.801 43.4172L380.985 34.4086L382.264 33.6859L382.076 42.9886L388.039 46.3052L388.205 38.1174L389.474 38.823L389.327 46.015L395.021 42.7378L395.345 42.9179L395.521 33.9075L396.789 34.6131L395.485 97.8943ZM387.9 53.127L388.017 47.3688L387.88 47.5968L382.049 44.3532L381.939 49.8113L387.9 53.127ZM387.755 60.2218L387.878 54.1857L387.739 54.4175L381.911 51.1759L381.796 56.907L387.755 60.2218ZM387.61 67.3166L387.729 61.4893L387.685 61.5627L381.769 58.2716L381.653 64.0027L387.61 67.3166ZM395.211 49.7428L395.323 43.9995L389.297 47.4677L389.187 52.8348L394.88 49.5584L395.211 49.7428ZM387.466 74.4112L387.583 68.6809L381.626 65.3673L381.51 71.0984L387.466 74.4112ZM395.072 56.8406L395.19 50.8156L389.157 54.2877L389.039 60.0343L394.826 56.7037L395.072 56.8406ZM387.321 81.506L387.438 75.7757L381.483 72.463L381.367 78.1941L387.321 81.506ZM394.933 63.9387L395.049 58.0107L389.009 61.4869L388.891 67.2334L394.772 63.8489L394.933 63.9387ZM387.176 88.6006L387.293 82.8703L381.34 79.5586L381.224 85.2897L387.176 88.6006ZM394.794 71.0365L394.908 65.2061L388.861 68.6863L388.743 74.4329L394.718 70.9941L394.794 71.0365ZM387.032 95.6954L387.149 89.9651L381.197 86.6543L381.081 92.3854L387.032 95.6954ZM394.655 78.1344L394.767 72.4012L388.713 75.8855L388.6 81.39L394.452 78.0217L394.655 78.1344ZM394.516 85.2324L394.631 79.3544L388.57 82.8427L388.452 88.5893L394.399 85.1669L394.516 85.2324ZM394.377 92.3303L394.49 86.5498L388.422 90.0418L388.309 95.5464L394.133 92.1945L394.377 92.3303Z"/><path fill="#D5DAF0" d="M405.367 19.7723L416.184 13.8231V35.954L405.367 41.9032V19.7723Z"/><path fill="#DEE1F1" d="M405.367 19.7723L394.55 13.8231V35.954L405.367 41.9032V19.7723Z"/><path fill="#EFF1F9" d="M405.367 19.7723L394.55 13.8231L405.367 7.8739L416.184 13.8231L405.367 19.7723Z"/><path fill="#FEBC08" d="M383.466 40.4845L381.499 52.8588L373.386 50.9551V47.4289L374.615 45.4818V41.0052L379.041 39.7706L383.466 40.4845Z"/><path fill="#F5F0D9" d="M383.957 40.7225L381.991 53.0968L373.878 51.193V47.6668L375.107 45.7198V41.2432L379.532 40.0086L383.957 40.7225Z"/><path fill="#FED544" d="M381.253 37.3909L388.137 41.1984L381.745 45.0059L374.615 41.0052L381.253 37.3909Z"/><path fill="#FEC11B" d="M373.386 47.6235L380.27 51.431V54.7625L373.386 50.9551V47.6235Z"/><path fill="#F7A91A" d="M388.137 41.1984V50.4791L380.27 54.7626V51.2364L381.499 49.2893V44.8127L388.137 41.1984Z"/><path fill="#F5F0D9" d="M387.399 42.3883V46.1215L382.482 48.7986V44.9909L387.263 42.3883H387.399Z"/><path fill="#D5DAF0" d="M393.321 21.438V28.4564L397.009 26.4353V27.8631L393.587 29.7383L399.713 33.0984V34.5262L392.338 30.4808V30.4232L387.352 33.1558L393.321 36.43V37.8578L386.05 33.8694L380.899 36.692L386.929 39.9995V41.4273L379.597 37.4056L374.664 40.1094L380.537 43.331V44.7588L373.362 40.8231L368.211 43.6458L374.145 46.9005V48.3283L366.909 44.3593L361.759 47.182L367.753 50.47V51.8978L360.457 47.8957L355.307 50.7185L361.361 54.0395V55.4673L354.005 51.4319L349.194 54.0683L355.215 57.3711V58.7989L347.892 54.782L343.082 57.4184L349.069 60.7026V62.1304L341.78 58.1318L336.506 61.022L342.431 64.2721V65.6999L335.204 61.7356L330.394 64.3721L336.285 67.6036V69.0315L329.092 65.0855L323.941 67.9083L329.894 71.1732V72.601L322.639 68.6219L317.366 71.512L323.256 74.7427V76.1705L316.064 72.2257L309.734 75.6945V74.2667L315.635 71.033V63.0823H316.864V70.3593L322.272 67.3952V59.5128H323.502V66.7215L328.664 63.8921V55.9433H329.894V63.2184L334.81 60.5237V52.6117H336.04V59.85L341.448 56.8859V49.0422H342.677V56.2122L347.594 53.5174V45.7107H348.823V52.8437L353.74 50.149V42.3791H354.969V49.4753L360.132 46.6459V38.8096H361.361V45.9722L366.524 43.1425V35.2401H367.753V42.4688L372.916 39.6394V31.6706H374.145V38.9657L379.308 36.1363V28.3391H380.537V35.4626L385.7 32.6332V24.7696H386.929V31.9595L392.092 29.1301V21.438H393.321Z"/><path fill="#EDEDF7" d="M395.671 18.9794L396.961 19.7002L393.158 21.7847L399.231 25.116L402.977 23.0627L404.268 23.7835L399.863 26.1974H399.959V32.9061L404.384 30.4808V31.9086L317.625 79.4578L317.601 79.502L317.586 79.4792L317.11 79.74L309.734 75.6945V74.0288L315.635 62.8443L372.916 31.4507V31.4326L372.933 31.4417L395.671 18.9794ZM316.016 64.4813L310.602 74.7429L317.11 78.3122V78.0742L322.272 68.2878V67.9128L316.016 64.4813ZM322.272 70.6477L318.684 77.4491L322.272 75.4825V70.6477ZM328.91 65.0838L323.502 68.0479V74.8088L328.91 71.8447V65.0838ZM335.302 61.5805L330.139 64.4101V71.171L335.302 68.3416V61.5805ZM341.448 58.2123L336.531 60.907V67.6679L341.448 64.9732V58.2123ZM322.272 60.6341L316.937 63.5585L323.01 66.8898L328.283 63.9996L322.272 60.7026V60.6341ZM348.086 54.5742L342.677 57.5386V64.2995L348.086 61.3354V54.5742ZM328.664 57.131L323.512 59.9547L329.585 63.286L334.736 60.4632L328.664 57.1331V57.131ZM354.232 51.2061L349.315 53.9008V60.6617L354.232 57.9669V51.2061ZM334.81 53.7625L329.964 56.4185L336.038 59.7498L340.848 57.1134L334.81 53.8016V53.7625ZM360.378 47.8374L355.461 50.5324V57.2933L360.378 54.5985V47.8374ZM341.448 50.1247L336.077 53.0684L342.15 56.3997L347.424 53.5096L341.448 50.2321V50.1247ZM366.77 44.3343L361.607 47.1639V53.9248L366.77 51.0954V44.3343ZM347.594 46.7563L342.652 49.4648L348.726 52.7959L353.536 50.1597L347.594 46.9005V46.7563ZM373.162 40.8312L367.999 43.6608V50.4217L373.162 47.5923V40.8312ZM353.74 43.3879L348.765 46.1147L354.838 49.446L359.648 46.8096L353.74 43.569V43.3879ZM379.554 37.328L374.391 40.1577V46.9186L379.554 44.0892V37.328ZM360.132 39.885L354.877 42.7649L360.95 46.0959L366.101 43.2732L360.132 39.9995V39.885ZM385.946 33.8249L380.783 36.6544V43.4155L385.946 40.5861V33.8249ZM366.524 36.3817L361.33 39.2285L367.403 42.5598L372.553 39.737L366.524 36.43V36.3817ZM392.338 30.3221L387.175 33.1515V39.9124L392.338 37.0829V30.3221ZM372.933 32.8695L367.782 35.6923L373.855 39.0233L379.006 36.2008L372.933 32.8695ZM398.73 26.8187L393.567 29.6484V36.4093L398.73 33.5798V26.8187ZM379.308 29.3752L374.234 32.1558L380.291 35.4781V35.4962L385.241 32.7834L379.308 29.5289V29.3752ZM385.7 25.8721L380.47 28.7384L386.543 32.0697L391.694 29.2472L385.7 25.9594V25.8721ZM392.092 22.3692L386.922 25.2022L392.996 28.5335L397.929 25.8297L392.092 22.6279V22.3692Z"/></g><defs><linearGradient id="paint0_linear_162_238" x1="0" x2="405.579" y1="73" y2="85.416" gradientUnits="userSpaceOnUse"><stop stop-color="#FBFBFF"/><stop offset="1" stop-color="#F6F6FB"/></linearGradient><linearGradient id="paint1_linear_162_238" x1="84.122" x2="84.122" y1="81.31" y2="188.864" gradientUnits="userSpaceOnUse"><stop stop-color="#D9E0F1"/><stop offset="1" stop-color="#F4F7FD" stop-opacity="0"/></linearGradient><linearGradient id="paint2_linear_162_238" x1="124.18" x2="124.18" y1="97.908" y2="181.264" gradientUnits="userSpaceOnUse"><stop stop-color="#D2D8EC"/><stop offset="1" stop-color="#F5F7FE" stop-opacity="0"/></linearGradient><linearGradient id="paint3_linear_162_238" x1="100.901" x2="100.901" y1="43.594" y2="65.634" gradientUnits="userSpaceOnUse"><stop stop-color="#FEA402"/><stop offset="1" stop-color="#FFCD5D"/></linearGradient><linearGradient id="paint4_linear_162_238" x1="29.568" x2="29.568" y1="146.122" y2="217.958" gradientUnits="userSpaceOnUse"><stop stop-color="#D9E0F1"/><stop offset="1" stop-color="#F4F7FD" stop-opacity="0"/></linearGradient><linearGradient id="paint5_linear_162_238" x1="56.449" x2="56.449" y1="156.635" y2="212.882" gradientUnits="userSpaceOnUse"><stop stop-color="#D2D8EC"/><stop offset="1" stop-color="#F5F7FE" stop-opacity="0"/></linearGradient><linearGradient id="paint6_linear_162_238" x1="41.401" x2="41.401" y1="121.098" y2="131.705" gradientUnits="userSpaceOnUse"><stop stop-color="#FEA402"/><stop offset="1" stop-color="#FFCD5D"/></linearGradient><linearGradient id="paint7_linear_162_238" x1="182.26" x2="182.26" y1="130.536" y2="231.952" gradientUnits="userSpaceOnUse"><stop stop-color="#D9E0F1"/><stop offset="1" stop-color="#F4F7FD" stop-opacity="0"/></linearGradient><linearGradient id="paint8_linear_162_238" x1="250.255" x2="250.255" y1="156.833" y2="228.845" gradientUnits="userSpaceOnUse"><stop stop-color="#D2D8EC"/><stop offset="1" stop-color="#F5F7FE" stop-opacity="0"/></linearGradient><linearGradient id="paint9_linear_162_238" x1="262.384" x2="262.384" y1="71.047" y2="86.264" gradientUnits="userSpaceOnUse"><stop stop-color="#FEA402"/><stop offset="1" stop-color="#FFCD5D"/></linearGradient><linearGradient id="paint10_linear_162_238" x1="215.075" x2="215.075" y1="65.531" y2="70.875" gradientUnits="userSpaceOnUse"><stop stop-color="#FEA402"/><stop offset="1" stop-color="#FFCD5D"/></linearGradient><linearGradient id="paint11_linear_162_238" x1="220.89" x2="220.89" y1="50.999" y2="61.735" gradientUnits="userSpaceOnUse"><stop stop-color="#FEA402"/><stop offset="1" stop-color="#FFCD5D"/></linearGradient><linearGradient id="paint12_linear_162_238" x1="256.846" x2="256.846" y1="64.608" y2="91.017" gradientUnits="userSpaceOnUse"><stop stop-color="#FEA402"/><stop offset="1" stop-color="#FFCD5D"/></linearGradient><linearGradient id="paint13_linear_162_238" x1="208.698" x2="224.597" y1="49.041" y2="93.732" gradientUnits="userSpaceOnUse"><stop stop-color="#C9D0E4"/><stop offset="1" stop-color="#9DA6C8"/></linearGradient><linearGradient id="paint14_linear_162_238" x1="187.94" x2="187.94" y1="86.391" y2="104.712" gradientUnits="userSpaceOnUse"><stop stop-color="#FEA402"/><stop offset="1" stop-color="#FFCD5D"/></linearGradient><linearGradient id="paint15_linear_162_238" x1="322.365" x2="322.365" y1="137.406" y2="196.671" gradientUnits="userSpaceOnUse"><stop stop-color="#D9E0F1"/><stop offset="1" stop-color="#F4F7FD" stop-opacity="0"/></linearGradient><linearGradient id="paint16_linear_162_238" x1="344.502" x2="344.502" y1="146.079" y2="192.483" gradientUnits="userSpaceOnUse"><stop stop-color="#D2D8EC"/><stop offset="1" stop-color="#F5F7FE" stop-opacity="0"/></linearGradient><linearGradient id="paint17_linear_162_238" x1="108.895" x2="108.895" y1="175.144" y2="224.531" gradientUnits="userSpaceOnUse"><stop stop-color="#D9E0F1"/><stop offset="1" stop-color="#F4F7FD" stop-opacity="0"/></linearGradient><linearGradient id="paint18_linear_162_238" x1="126.816" x2="126.816" y1="182.372" y2="221.042" gradientUnits="userSpaceOnUse"><stop stop-color="#D2D8EC"/><stop offset="1" stop-color="#F5F7FE" stop-opacity="0"/></linearGradient><linearGradient id="paint19_linear_162_238" x1="109.685" x2="109.685" y1="153.533" y2="180.122" gradientUnits="userSpaceOnUse"><stop stop-color="#FFCD5D"/><stop offset="1" stop-color="#FE9A02"/></linearGradient><linearGradient id="paint20_linear_162_238" x1="126.025" x2="126.025" y1="153.533" y2="180.122" gradientUnits="userSpaceOnUse"><stop stop-color="#FFCD5D"/><stop offset="1" stop-color="#FE9A02"/></linearGradient><linearGradient id="paint21_linear_162_238" x1="117.855" x2="117.855" y1="162.334" y2="180.244" gradientUnits="userSpaceOnUse"><stop stop-color="#FFCD5D"/><stop offset="1" stop-color="#FE9A02"/></linearGradient><linearGradient id="paint22_linear_162_238" x1="117.855" x2="117.855" y1="144.546" y2="162.456" gradientUnits="userSpaceOnUse"><stop stop-color="#FFCD5D"/><stop offset="1" stop-color="#FE9A02"/></linearGradient><linearGradient id="paint23_linear_162_238" x1="31.413" x2="31.413" y1="31.333" y2="63.16" gradientUnits="userSpaceOnUse"><stop stop-color="#D9E0F1"/><stop offset="1" stop-color="#F4F7FD" stop-opacity="0"/></linearGradient><linearGradient id="paint24_linear_162_238" x1="43.009" x2="43.009" y1="35.99" y2="60.911" gradientUnits="userSpaceOnUse"><stop stop-color="#D2D8EC"/><stop offset="1" stop-color="#F5F7FE" stop-opacity="0"/></linearGradient><linearGradient id="paint25_linear_162_238" x1="273.873" x2="273.873" y1="35.412" y2="67.24" gradientUnits="userSpaceOnUse"><stop stop-color="#D9E0F1"/><stop offset="1" stop-color="#F4F7FD" stop-opacity="0"/></linearGradient><linearGradient id="paint26_linear_162_238" x1="285.469" x2="285.469" y1="40.07" y2="64.991" gradientUnits="userSpaceOnUse"><stop stop-color="#D2D8EC"/><stop offset="1" stop-color="#F5F7FE" stop-opacity="0"/></linearGradient><linearGradient id="paint27_linear_162_238" x1="298.119" x2="298.119" y1="187.384" y2="219.211" gradientUnits="userSpaceOnUse"><stop stop-color="#D9E0F1"/><stop offset="1" stop-color="#F4F7FD" stop-opacity="0"/></linearGradient><linearGradient id="paint28_linear_162_238" x1="309.715" x2="309.715" y1="192.041" y2="216.962" gradientUnits="userSpaceOnUse"><stop stop-color="#D2D8EC"/><stop offset="1" stop-color="#F5F7FE" stop-opacity="0"/></linearGradient><linearGradient id="paint29_linear_162_238" x1="388.251" x2="388.251" y1="147.606" y2="190.408" gradientUnits="userSpaceOnUse"><stop stop-color="#D9E0F1"/><stop offset="1" stop-color="#F4F7FD" stop-opacity="0"/></linearGradient><linearGradient id="paint30_linear_162_238" x1="404.063" x2="404.063" y1="153.87" y2="187.384" gradientUnits="userSpaceOnUse"><stop stop-color="#D2D8EC"/><stop offset="1" stop-color="#F5F7FE" stop-opacity="0"/></linearGradient><linearGradient id="paint31_linear_162_238" x1="322.189" x2="322.189" y1="102.453" y2="135.217" gradientUnits="userSpaceOnUse"><stop stop-color="#FFCD5D"/><stop offset="1" stop-color="#FE9A02"/></linearGradient><linearGradient id="paint32_linear_162_238" x1="342.032" x2="342.032" y1="102.453" y2="135.217" gradientUnits="userSpaceOnUse"><stop stop-color="#FFCD5D"/><stop offset="1" stop-color="#FE9A02"/></linearGradient><linearGradient id="paint33_linear_162_238" x1="332.111" x2="332.111" y1="113.298" y2="135.367" gradientUnits="userSpaceOnUse"><stop stop-color="#FFCD5D"/><stop offset="1" stop-color="#FE9A02"/></linearGradient><linearGradient id="paint34_linear_162_238" x1="332.111" x2="332.111" y1="91.379" y2="113.448" gradientUnits="userSpaceOnUse"><stop stop-color="#FFCD5D"/><stop offset="1" stop-color="#FE9A02"/></linearGradient></defs></svg>