<svg width="36" height="36" viewBox="0 0 36 36" fill="none" xmlns="http://www.w3.org/2000/svg">
<path d="M15 3L27.9904 10.5V25.5L15 33L2.00962 25.5V10.5L15 3Z" fill="url(#paint0_linear_168_110)"/>
<path fill-rule="evenodd" clip-rule="evenodd" d="M15.0711 15.3067L8.73494 11.1819C8.21541 10.8437 7.52009 10.9907 7.18189 11.5102C6.84369 12.0297 6.99068 12.725 7.5102 13.0632L13.7748 17.1414V23.6145C13.7748 24.2344 14.2774 24.737 14.8973 24.737C15.5172 24.737 16.0197 24.2344 16.0197 23.6145V17.3678L22.4898 13.1559C23.0093 12.8177 23.1563 12.1224 22.8181 11.6028C22.4799 11.0833 21.7846 10.9363 21.2651 11.2745L15.0711 15.3067Z" fill="white"/>
<defs>
<linearGradient id="paint0_linear_168_110" x1="13" y1="18" x2="22" y2="36" gradientUnits="userSpaceOnUse">
<stop offset="0.103829" stop-color="#F6E085"/>
<stop offset="0.550209" stop-color="#A8E9D6"/>
<stop offset="1" stop-color="#3BD8E0"/>
</linearGradient>
</defs>
</svg>
