<svg width="435" height="200" viewBox="0 0 435 200" fill="none" xmlns="http://www.w3.org/2000/svg">
    <mask id="mask0_186_2990" style="mask-type:alpha" x="0" y="0" width="435" height="200">
        <rect width="435" height="200" rx="8" fill="url(#paint0_linear_186_2990)"/>
    </mask>
    <g mask="url(#mask0_186_2990)">
        <rect width="435" height="200" rx="8" fill="#212126"/>
        <path opacity="0.6" d="M114.568 113.02L211.799 52.2505C214.99 50.2561 219.031 50.2219 222.255 52.162L321.052 111.608C325.785 114.455 327.313 120.6 324.465 125.332C323.656 126.678 322.54 127.814 321.21 128.648L222.304 190.674C219.06 192.708 214.938 192.712 211.691 190.682L114.568 129.98C109.885 127.053 108.461 120.883 111.388 116.2C112.193 114.912 113.28 113.825 114.568 113.02Z" fill="#37373D"/>
        <path opacity="0.4" d="M46.8757 167.091L81.5853 146.952C84.006 145.548 86.9937 145.548 89.4144 146.952L124.124 167.091C125.366 167.812 125.789 169.403 125.068 170.645C124.841 171.037 124.515 171.362 124.124 171.589L89.4144 191.729C86.9937 193.133 84.006 193.133 81.5853 191.729L46.8757 171.589C45.6336 170.869 45.211 169.278 45.9316 168.036C46.1588 167.644 46.4842 167.319 46.8757 167.091Z" fill="#4D4D56"/>
        <path fill-rule="evenodd" clip-rule="evenodd" d="M45.6152 158.23V156.814L84.9271 136.227C85.6823 135.832 86.5833 135.832 87.3386 136.227L126.692 156.814V158.228C126.692 160.076 125.711 161.786 124.116 162.718L90.0702 182.614C87.6378 184.035 84.628 184.035 82.1962 182.612L48.1895 162.718C46.5952 161.786 45.6152 160.077 45.6152 158.23Z" fill="url(#paint1_linear_186_2990)"/>
        <path d="M46.8757 155.411L81.5853 135.271C84.006 133.867 86.9937 133.867 89.4144 135.271L124.124 155.411C125.366 156.131 125.789 157.722 125.068 158.964C124.841 159.356 124.515 159.681 124.124 159.908L89.4144 180.048C86.9937 181.452 84.006 181.452 81.5853 180.048L46.8757 159.908C45.6336 159.188 45.211 157.597 45.9316 156.355C46.1588 155.963 46.4842 155.638 46.8757 155.411Z" fill="#4D4D56"/>
        <path fill-rule="evenodd" clip-rule="evenodd" d="M63.5236 155.411L81.5853 144.931C84.006 143.526 86.9936 143.526 89.4143 144.931L107.476 155.411C108.718 156.131 109.141 157.722 108.42 158.964C108.193 159.356 107.867 159.681 107.476 159.908L89.4143 170.388C86.9936 171.793 84.006 171.793 81.5853 170.388L63.5236 159.908C62.2816 159.188 61.8589 157.597 62.5796 156.355C62.8067 155.963 63.1321 155.638 63.5236 155.411Z" fill="url(#paint2_linear_186_2990)"/>
        <path fill-rule="evenodd" clip-rule="evenodd" d="M70.4177 155.411L81.5854 148.931C84.0061 147.526 86.9938 147.526 89.4145 148.931L100.582 155.411C101.824 156.131 102.247 157.722 101.526 158.964C101.299 159.356 100.974 159.681 100.582 159.908L89.4145 166.388C86.9938 167.793 84.0061 167.793 81.5854 166.388L70.4177 159.908C69.1756 159.188 68.753 157.597 69.4736 156.355C69.7008 155.963 70.0262 155.638 70.4177 155.411Z" fill="#4D4D56"/>
        <path d="M81.7142 131.766C81.7142 131.766 80.7362 132.07 80.1143 131.844C79.4925 131.617 78.4222 131.989 78.2497 132.264C78.0772 132.538 78.1408 132.646 78.4481 132.741C78.7553 132.836 79.8449 133.397 80.5618 133.072C81.2778 132.747 82.2124 132.736 82.2124 132.736L81.7151 131.766H81.7142Z" fill="#E49963"/>
        <path d="M90.1689 121.493C90.1689 121.493 89.0701 130.935 87.2507 131.781C86.3529 132.198 82.3847 133.144 81.2102 133.239C81.2102 133.239 80.9223 132.957 80.9925 131.81C80.9925 131.81 85.1498 129.964 85.7403 128.961C86.6196 127.468 85.195 122.861 86.2976 121.458C87.4011 120.056 89.2583 119.453 90.168 121.494L90.1689 121.493Z" fill="#317B86"/>
        <path d="M89.2863 158.931H89.2499C88.8403 158.931 88.5083 158.599 88.5083 158.189V143.593C88.5083 143.184 88.8403 142.852 89.2499 142.852H89.2863C89.6958 142.852 90.0279 143.184 90.0279 143.593V158.189C90.0279 158.599 89.6958 158.931 89.2863 158.931Z" fill="#28282C"/>
        <path d="M93.9581 159.987C93.4663 158.757 91.5537 157.84 89.2683 157.84C86.983 157.84 85.0704 158.757 84.5786 159.987H93.959H93.9581Z" fill="#28282C"/>
        <path d="M85.903 155.816H92.6345C92.7489 155.816 92.8411 155.726 92.8411 155.614V155.37C92.8411 155.258 92.7489 155.168 92.6345 155.168H85.903C85.7886 155.168 85.6963 155.258 85.6963 155.37V155.614C85.6963 155.726 85.7886 155.816 85.903 155.816Z" fill="#28282C"/>
        <path d="M89.7981 141.386C89.478 142.043 89.1071 142.659 88.7242 143.242C87.5432 145.045 86.2571 146.531 86.0329 147.936C85.9886 148.216 85.9175 148.518 85.8253 148.835C85.7321 149.157 85.6158 149.496 85.483 149.845C84.982 151.161 84.2319 152.637 83.4836 153.977C82.1901 156.294 80.9731 158.227 80.9731 158.227L78.7422 158.113C78.8317 157.842 79.8042 154.643 81.106 150.732C81.6347 149.145 82.1966 147.456 82.7391 145.828C82.811 145.611 82.8839 145.394 82.955 145.179C83.121 144.681 83.2843 144.19 83.443 143.713C84.6655 140.041 85.6389 137.117 85.6389 137.117C85.6389 137.117 90.5242 134.88 91.0317 136.329C91.4496 137.524 91.1092 138.696 89.7972 141.385L89.7981 141.386Z" fill="#273F5F"/>
        <path d="M80.9048 157.738C80.9048 157.738 80.7904 159.964 80.4342 159.996C80.3872 160 78.6277 160 78.6277 160L76.382 159.985C76.382 159.985 76.3968 159.33 77.0528 159.192C77.7088 159.054 78.8076 158.497 79.2053 157.448C79.6233 156.344 80.9039 157.739 80.9039 157.739L80.9048 157.738Z" fill="#163560"/>
        <path d="M86.0707 151.38C86.0707 151.38 87.6225 152.586 87.4722 152.977C87.4519 153.029 86.5947 154.886 86.5947 154.886L85.4885 157.248C85.4885 157.248 85.0235 156.914 85.2431 156.154C85.4636 155.394 85.5964 153.962 85.0327 153.031C84.4395 152.052 86.0707 151.38 86.0707 151.38Z" fill="#163560"/>
        <path d="M83.8856 136.123C83.8856 136.123 77.8396 140.674 77.155 143.777C76.4705 146.88 85.312 153.499 85.312 153.499C85.312 153.499 86.2817 152.465 86.4524 151.707C86.4524 151.707 82.4565 145.919 81.5892 144.622C81.0569 143.825 89.4611 141.864 90.488 139.932C91.5149 138.002 91.1467 136.377 91.1467 136.377L83.8856 136.124V136.123Z" fill="#274B79"/>
        <path d="M83.2549 146.123H95.2823C95.6781 146.123 96.0001 145.809 96.0001 145.421V142.687C96.0001 142.3 95.6791 141.985 95.2823 141.985H83.2549C82.8591 141.985 82.5371 142.299 82.5371 142.687V145.421C82.5371 145.808 82.8582 146.123 83.2549 146.123Z" fill="#28282C"/>
        <path d="M86.807 119.874C86.2045 120.326 85.8733 120.898 85.8733 120.898C87.3421 121.357 89.7778 119.712 89.7778 119.712C89.7778 119.712 88.8321 118.944 88.4825 117.256C88.4649 117.171 88.4483 117.084 88.4345 116.994C88.3884 116.71 88.3597 116.402 88.3551 116.07L87.6807 116.801L86.5588 118.017C86.5588 118.017 86.5846 118.521 86.7248 119.389C86.7488 119.54 86.7774 119.703 86.8097 119.875L86.807 119.874Z" fill="#E49963"/>
        <path d="M91.3324 128.259C91.1221 131.681 91.3989 136.884 91.1599 137.785C90.9541 138.562 88.607 138.1 87.6696 137.841C87.3227 137.745 86.9029 137.608 86.4692 137.446C85.2587 136.993 83.9403 136.346 83.7991 135.866C83.7936 135.847 83.789 135.829 83.7862 135.811C83.7733 135.741 83.7761 135.675 83.789 135.609C83.836 135.365 84.0178 135.099 84.039 134.494C84.063 133.817 84.0593 133.02 84.0805 132.164C84.0815 132.067 84.0824 131.962 84.0916 131.866V131.831C84.0916 131.812 84.0925 131.794 84.0935 131.775C84.1138 130.82 84.1553 129.815 84.2033 128.819C84.2337 128.193 84.2688 127.573 84.3094 126.98C84.4145 125.447 84.5575 124.084 84.7458 123.223C85.053 121.818 85.7321 120.902 86.3493 120.231L86.7958 119.768C87.2941 119.9 87.8836 119.812 88.416 119.507C88.9926 119.176 89.1919 118.938 89.2925 119.028C90.6248 120.27 91.5825 124.076 91.3343 128.258L91.3324 128.259Z" fill="#4799A6"/>
        <path d="M86.4693 137.445C85.2588 136.992 83.9403 136.345 83.7992 135.865C83.7936 135.846 83.789 135.828 83.7862 135.81C83.7862 135.743 83.7881 135.675 83.789 135.608C83.8361 135.364 84.0178 135.098 84.039 134.493C84.063 133.816 84.0593 133.019 84.0806 132.163C84.0815 132.066 84.0824 131.961 84.0916 131.865V131.83C84.0916 131.812 84.0926 131.793 84.0935 131.775L88.6642 129.268C88.6642 129.268 88.9271 133.722 86.4702 137.444L86.4693 137.445Z" fill="#317B86"/>
        <path d="M86.5559 118.016C86.5559 118.016 86.5817 118.521 86.722 119.388C87.8181 118.96 88.3144 117.763 88.4805 117.256C88.5276 117.113 88.5479 117.024 88.5479 117.024C88.5479 117.024 88.5054 117.013 88.4325 116.994C88.2784 116.955 87.9887 116.881 87.6778 116.801L86.5559 118.017V118.016Z" fill="#D68D5D"/>
        <path d="M86.1123 118.003C86.1123 118.003 88.5194 118.332 88.6652 116.516C88.811 114.7 89.2206 113.521 87.6891 113.234C86.1584 112.948 85.8032 113.605 85.6325 114.197C85.4618 114.789 85.4886 117.871 86.1114 118.003H86.1123Z" fill="#E49963"/>
        <path d="M88.6558 116.642C88.6558 116.642 88.5036 114.232 86.3124 113.982C84.8112 113.811 85.6481 112.249 85.8086 112C85.8086 112 86.9582 112.19 88.1373 112.426C90.6109 112.921 88.8994 116.266 88.6568 116.641L88.6558 116.642Z" fill="#2B478B"/>
        <path d="M77.0029 134.133L76.7926 134.216L74.9999 127.545L75.2103 127.462L77.0029 134.133Z" fill="#4A75CB"/>
        <path d="M82.8711 133.618L76.7845 133.775L76.7928 134.216L82.8794 134.058L82.8711 133.618Z" fill="#4A75CB"/>
        <path d="M82.2176 133.218C82.2176 133.218 81.2729 133.65 80.6344 133.507C79.9959 133.365 78.9654 133.877 78.8196 134.173C78.6729 134.468 78.7458 134.568 79.0604 134.621C79.375 134.674 80.5089 135.088 81.1907 134.669C81.8726 134.25 82.7998 134.114 82.7998 134.114L82.2167 133.217L82.2176 133.218Z" fill="#E49963"/>
        <path d="M89.6836 121.881C89.6836 121.881 89.452 131.412 87.7212 132.495C86.8668 133.029 83.0093 134.498 81.8505 134.749C81.8505 134.749 81.5386 134.507 81.5035 133.357C81.5035 133.357 85.4672 130.969 85.9626 129.893C86.6998 128.291 84.8638 123.901 85.8325 122.361C86.8013 120.819 88.5921 119.973 89.6827 121.881H89.6836Z" fill="#4799A6"/>
        <path fill-rule="evenodd" clip-rule="evenodd" d="M70.4865 108.637L44.4775 123.835C42.9432 124.731 42 126.375 42 128.152V147.772C42 149.429 43.3431 150.772 45 150.772C45.5319 150.772 46.0543 150.631 46.5135 150.363L72.5225 135.165C74.0568 134.269 75 132.625 75 130.848V111.228C75 109.571 73.6569 108.228 72 108.228C71.4681 108.228 70.9457 108.369 70.4865 108.637Z" fill="#484851"/>
        <path fill-rule="evenodd" clip-rule="evenodd" d="M72.4865 109.637L46.4775 124.835C44.9432 125.731 44 127.375 44 129.152V148.772C44 150.429 45.3431 151.772 47 151.772C47.5319 151.772 48.0543 151.631 48.5135 151.363L74.5225 136.165C76.0568 135.269 77 133.625 77 131.848V112.228C77 110.571 75.6569 109.228 74 109.228C73.4681 109.228 72.9457 109.369 72.4865 109.637Z" fill="#36363C"/>
        <path fill-rule="evenodd" clip-rule="evenodd" d="M73.4852 117.91L61.4852 125.116C61.1842 125.296 61 125.622 61 125.973V138.233C61 138.785 61.4477 139.233 62 139.233C62.1814 139.233 62.3593 139.184 62.5148 139.09L74.5148 131.884C74.8158 131.703 75 131.378 75 131.027V118.767C75 118.215 74.5523 117.767 74 117.767C73.8186 117.767 73.6407 117.816 73.4852 117.91Z" fill="#28282C"/>
        <path fill-rule="evenodd" clip-rule="evenodd" d="M66.6996 127.462L64 131.046V131.614L66.6996 133V131.837L65.0796 131.046L66.8571 128.358L66.6996 127.462ZM67.8498 124.692L66.8571 125.036L69.4269 132.308L70.4286 132.069L67.8498 124.692ZM71.1429 124V125.291L72.7345 126.198L71.1429 129.08L71.3436 130.231L74 125.546L71.1429 124Z" fill="url(#paint3_linear_186_2990)"/>
        <path fill-rule="evenodd" clip-rule="evenodd" d="M72.9672 113.633L60.4776 121.285C60.1809 121.467 60 121.79 60 122.138V122.789C60 123.163 60.3037 123.467 60.6784 123.467C60.8035 123.467 60.9261 123.432 61.0328 123.367L73.5224 115.715C73.8191 115.533 74 115.21 74 114.862V114.211C74 113.836 73.6963 113.533 73.3216 113.533C73.1965 113.533 73.0739 113.567 72.9672 113.633Z" fill="#4D4D56"/>
        <path fill-rule="evenodd" clip-rule="evenodd" d="M58.926 126.64L46.4884 134.045C46.1856 134.226 46 134.552 46 134.904V135.586C46 135.978 46.3181 136.297 46.7105 136.297C46.8385 136.297 46.9641 136.262 47.074 136.197L59.5116 128.791C59.8144 128.611 60 128.284 60 127.932V127.25C60 126.858 59.6819 126.54 59.2895 126.54C59.1615 126.54 59.0359 126.574 58.926 126.64Z" fill="#4D4D56"/>
        <path fill-rule="evenodd" clip-rule="evenodd" d="M52.751 137.831L46.4463 142.023C46.1675 142.209 46 142.521 46 142.856V143.82C46 144.264 46.3599 144.624 46.8039 144.624C46.9623 144.624 47.1171 144.577 47.249 144.489L53.5537 140.297C53.8325 140.111 54 139.799 54 139.464V138.5C54 138.056 53.6401 137.696 53.1961 137.696C53.0377 137.696 52.8829 137.743 52.751 137.831Z" fill="#4D4D56"/>
        <path opacity="0.4" d="M46.9937 73.2687L82.4962 52.7372C84.3545 51.6625 86.6454 51.6625 88.5037 52.7372L124.006 73.2687C124.962 73.8217 125.289 75.0451 124.736 76.0013C124.561 76.3044 124.309 76.5561 124.006 76.7314L88.5037 97.2629C86.6454 98.3376 84.3545 98.3376 82.4962 97.2629L46.9937 76.7314C46.0375 76.1784 45.7107 74.955 46.2636 73.9988C46.4389 73.6957 46.6906 73.444 46.9937 73.2687Z" fill="#4D4D56"/>
        <path fill-rule="evenodd" clip-rule="evenodd" d="M46 64.6359V62.6512L84.553 42.4846C85.1334 42.181 85.8257 42.1809 86.4063 42.4843L125 62.6512V64.6347C125 66.057 124.245 67.3723 123.016 68.0893L88.5058 88.2335C86.6361 89.3249 84.3233 89.3244 82.4541 88.2322L47.982 68.0896C46.7545 67.3724 46 66.0576 46 64.6359Z" fill="url(#paint4_linear_186_2990)"/>
        <path d="M46.9937 61.2687L82.4962 40.7372C84.3545 39.6625 86.6454 39.6625 88.5037 40.7372L124.006 61.2687C124.962 61.8217 125.289 63.0451 124.736 64.0013C124.561 64.3044 124.309 64.5561 124.006 64.7314L88.5037 85.2629C86.6454 86.3376 84.3545 86.3376 82.4962 85.2629L46.9937 64.7314C46.0375 64.1784 45.7107 62.955 46.2636 61.9988C46.4389 61.6957 46.6906 61.444 46.9937 61.2687Z" fill="#4D4D56"/>
        <path opacity="0.4" d="M152.168 142.555L215.449 105.468C217.024 104.545 218.975 104.545 220.55 105.468L283.832 142.555C284.633 143.025 284.902 144.055 284.432 144.856C284.287 145.105 284.08 145.311 283.832 145.457L220.55 182.544C218.975 183.467 217.024 183.467 215.449 182.544L152.168 145.457C151.367 144.987 151.098 143.957 151.567 143.156C151.713 142.908 151.92 142.701 152.168 142.555Z" fill="#4D4D56"/>
        <path d="M151.763 128.066V124.27L217.69 89.8283C218.185 89.5702 218.775 89.5737 219.266 89.8379L284.229 124.789V128.586C284.229 129.774 283.603 130.873 282.581 131.479L221.051 167.957C219.466 168.897 217.495 168.898 215.909 167.959L153.413 130.96C152.39 130.355 151.763 129.255 151.763 128.066Z" fill="#2D2D31"/>
        <path d="M152.168 123.839L215.449 86.7512C217.024 85.8281 218.975 85.8281 220.55 86.7512L283.832 123.839C284.633 124.308 284.902 125.338 284.432 126.14C284.287 126.388 284.08 126.594 283.832 126.74L220.55 163.827C218.975 164.751 217.024 164.751 215.449 163.827L152.168 126.74C151.367 126.27 151.098 125.24 151.567 124.439C151.713 124.191 151.92 123.984 152.168 123.839Z" fill="#4D4D56"/>
        <path opacity="0.43" d="M270.544 18H166.507V122.037H270.544V18Z" fill="url(#paint5_linear_186_2990)"/>
        <mask id="mask1_186_2990" style="mask-type:alpha" x="165" y="90" width="107" height="65">
            <path d="M167.103 120.313L214.477 91.889C216.969 90.3938 220.082 90.3938 222.574 91.889L269.948 120.313C271.19 121.059 271.593 122.67 270.848 123.912C270.626 124.281 270.317 124.59 269.948 124.812L222.574 153.236C220.082 154.731 216.969 154.731 214.477 153.236L167.103 124.812C165.861 124.066 165.458 122.455 166.203 121.213C166.425 120.844 166.734 120.535 167.103 120.313Z" fill="white"/>
        </mask>
        <g mask="url(#mask1_186_2990)">
            <path d="M167.103 120.313L214.477 91.889C216.969 90.3938 220.082 90.3938 222.574 91.889L269.948 120.313C271.19 121.059 271.593 122.67 270.848 123.912C270.626 124.281 270.317 124.59 269.948 124.812L222.574 153.236C220.082 154.731 216.969 154.731 214.477 153.236L167.103 124.812C165.861 124.066 165.458 122.455 166.203 121.213C166.425 120.844 166.734 120.535 167.103 120.313Z" fill="url(#paint6_linear_186_2990)"/>
        </g>
        <path d="M180.155 119.886V113.354L217.352 97.9738C217.763 97.8037 218.225 97.8037 218.636 97.9735L255.873 113.354V119.885C255.873 121.076 255.242 122.178 254.216 122.783L220.554 142.598C218.974 143.528 217.014 143.528 215.435 142.597L181.81 122.783C180.784 122.178 180.155 121.076 180.155 119.886Z" fill="#35353B"/>
        <path d="M181 111L216.517 90.9318C218.084 90.0217 220.018 90.0217 221.585 90.9318L254.748 111.351C255.551 111.818 255.823 112.847 255.357 113.65C255.21 113.902 255 114.112 254.748 114.259L221.585 134.385C220.018 135.295 218.084 135.295 216.517 134.385L181 113.908C180.197 113.441 179.924 112.412 180.391 111.609C180.537 111.357 180.747 111.147 181 111Z" fill="#4D4D56"/>
        <g opacity="0.8">
            <path fill-rule="evenodd" clip-rule="evenodd" d="M248.391 101.297L200.647 54.667C200.302 54.3296 199.853 54.1179 199.372 54.0662L197.492 53.8637L187.77 66.0028C187.087 66.8565 187.154 68.0863 187.926 68.8608L233.046 114.096C233.45 114.501 234 114.729 234.573 114.729L235.945 114.729C236.528 114.729 237.087 114.493 237.493 114.074L248.412 102.812C248.824 102.387 248.815 101.71 248.391 101.297Z" fill="url(#paint7_linear_186_2990)"/>
            <mask id="mask2_186_2990" style="mask-type:alpha" x="184" y="54" width="63" height="61">
                <path d="M246.136 100.992L198.642 54.9558C197.791 54.1308 196.431 54.1481 195.602 54.9944L184.863 65.947C184.031 66.7955 184.046 68.1562 184.896 68.9864C184.902 68.9921 184.908 68.9979 184.914 69.0036L232.176 114.09C233.036 114.91 234.399 114.879 235.221 114.021C235.223 114.019 235.225 114.017 235.227 114.015L246.167 102.502C246.573 102.075 246.559 101.402 246.136 100.992Z" fill="url(#paint8_linear_186_2990)"/>
            </mask>
            <g mask="url(#mask2_186_2990)">
                <path fill-rule="evenodd" clip-rule="evenodd" d="M248.391 101.297L200.647 54.667C200.302 54.3296 199.853 54.1179 199.372 54.0662L197.492 53.8637L187.77 66.0028C187.087 66.8565 187.154 68.0863 187.926 68.8608L233.046 114.096C233.45 114.501 234 114.729 234.573 114.729L235.945 114.729C236.528 114.729 237.087 114.493 237.493 114.074L248.412 102.812C248.824 102.387 248.815 101.71 248.391 101.297Z" fill="url(#paint9_linear_186_2990)"/>
                <path d="M246.136 100.992L198.642 54.9558C197.791 54.1308 196.431 54.1481 195.602 54.9944L184.863 65.947C184.031 66.7955 184.046 68.1562 184.896 68.9864C184.902 68.9921 184.908 68.9979 184.914 69.0036L232.176 114.09C233.036 114.91 234.399 114.879 235.221 114.021C235.223 114.019 235.225 114.017 235.227 114.015L246.167 102.502C246.573 102.075 246.559 101.402 246.136 100.992Z" fill="url(#paint10_linear_186_2990)"/>
                <path d="M227.544 103.16L222.307 108.572L221.533 107.825L226.769 102.414L227.544 103.16ZM204.929 80.5933L199.692 86.0045L198.917 85.258L204.154 79.8468L204.929 80.5933ZM225.481 91.1698L215.755 101.219L214.981 100.473L224.706 90.4233L225.481 91.1698ZM216.775 91.3396L211.538 96.7507L210.763 96.0042L216 90.5931L216.775 91.3396ZM182.313 58.0262L177.077 63.4373L176.302 62.6908L181.539 57.2797L182.313 58.0262ZM213.544 88.1157L208.307 93.5269L207.533 92.7804L212.769 87.3692L213.544 88.1157ZM237.327 101.916L227.602 111.965L226.827 111.219L236.552 101.17L237.327 101.916ZM202.865 68.6026L193.14 78.6519L192.365 77.9054L202.091 67.8561L202.865 68.6026ZM236.159 109.608L230.923 115.019L230.148 114.273L235.385 108.862L236.159 109.608ZM201.698 76.2948L196.461 81.706L195.687 80.9595L200.923 75.5483L201.698 76.2948ZM194.159 68.7724L188.923 74.1836L188.148 73.4371L193.385 68.0259L194.159 68.7724ZM225.39 98.862L220.154 104.273L219.379 103.527L224.616 98.1155L225.39 98.862ZM190.929 65.5485L185.692 70.9597L184.917 70.2132L190.154 64.802L190.929 65.5485ZM252.313 124.653L247.077 130.064L246.302 129.318L251.539 123.907L252.313 124.653ZM248.096 111.588L238.371 121.637L237.596 120.89L247.321 110.841L248.096 111.588ZM214.711 79.3489L204.986 89.3982L204.212 88.6517L213.937 78.6024L214.711 79.3489ZM248.006 120.355L242.769 125.766L241.994 125.019L247.231 119.608L248.006 120.355ZM179.173 44.9608L169.448 55.0101L168.673 54.2636L178.398 44.2143L179.173 44.9608ZM179.083 53.7276L173.846 59.1388L173.071 58.3923L178.308 52.9811L179.083 53.7276ZM240.467 112.832L235.23 118.243L234.456 117.497L239.692 112.086L240.467 112.832ZM192.096 56.7817L182.371 66.831L181.596 66.0845L191.321 56.0352L192.096 56.7817Z" fill="white"/>
                <path opacity="0.177987" fill-rule="evenodd" clip-rule="evenodd" d="M223.03 128L269.562 84.2972L213.539 32L166 75.3728L223.03 128Z" fill="#277C7B"/>
                <path opacity="0.177987" fill-rule="evenodd" clip-rule="evenodd" d="M218.367 101.76L234.739 86.0272L215.028 67.2002L198.301 82.8144L218.367 101.76Z" fill="#277C7B"/>
            </g>
        </g>
        <mask id="mask3_186_2990" style="mask-type:alpha" x="185" y="52" width="65" height="64">
            <path d="M185.568 115.143L188.415 98.76L234.019 53.3539C234.861 52.5152 236.225 52.5167 237.064 53.3571C237.065 53.3583 237.066 53.3595 237.068 53.3607L248.492 64.8512C249.33 65.6936 249.325 67.0547 248.48 67.8914C248.477 67.8944 248.474 67.8974 248.471 67.9005L202.282 113.126L185.568 115.143Z" fill="white"/>
        </mask>
        <g mask="url(#mask3_186_2990)">
            <path d="M185.568 115.136L188.413 98.7546L234.017 53.3587C234.859 52.5203 236.223 52.522 237.062 53.3624C237.064 53.3636 237.065 53.3648 237.066 53.366L248.494 64.8568C249.331 65.6992 249.326 67.0602 248.482 67.8966C248.479 67.8997 248.476 67.9027 248.473 67.9057L202.284 113.121L185.568 115.136Z" fill="url(#paint11_linear_186_2990)"/>
            <path fill-rule="evenodd" clip-rule="evenodd" d="M192.557 103.064L197.857 108.581L242.101 66.3056L236.39 61.0257L192.557 103.064Z" fill="url(#paint12_linear_186_2990)"/>
            <path fill-rule="evenodd" clip-rule="evenodd" d="M192.555 103.063L236.389 61.0253L228.63 53.7675L183.555 98.4162L192.555 103.063Z" fill="url(#paint13_linear_186_2990)"/>
            <path fill-rule="evenodd" clip-rule="evenodd" d="M188.413 98.7476L203.618 114.474L185.25 119.655L179.94 113.804L188.413 98.7476Z" fill="#D5E1F5"/>
            <path fill-rule="evenodd" clip-rule="evenodd" d="M186.582 109.183L193.823 117.442L183.445 118.148L182.697 110.653L186.582 109.183Z" fill="#B1EAD5"/>
            <path opacity="0.2" fill-rule="evenodd" clip-rule="evenodd" d="M197.858 108.573L185.568 115.129L184.642 119.477L203.62 114.474L197.858 108.573Z" fill="black"/>
            <path d="M230.343 57.695L245.892 73.8343L251.889 66.7238L236.147 50.4842L228.787 56.6149L230.343 57.695Z" fill="url(#paint14_linear_186_2990)"/>
            <path opacity="0.1" fill-rule="evenodd" clip-rule="evenodd" d="M197.856 108.574L185.567 115.129L192.557 103.057L197.856 108.574Z" fill="black"/>
        </g>
        <g opacity="0.67">
            <path fill-rule="evenodd" clip-rule="evenodd" d="M144.202 42L134 47.6115L144.202 53.5993L153.951 47.6115L144.202 42Z" fill="#4D4D56"/>
            <path fill-rule="evenodd" clip-rule="evenodd" d="M143.976 53.5994V73.0001L134 67.1284V47.6116L143.976 53.5994Z" fill="url(#paint15_linear_186_2990)"/>
            <path fill-rule="evenodd" clip-rule="evenodd" d="M144.024 53.5994V73.0001L154 67.1284V47.6116L144.024 53.5994Z" fill="url(#paint16_linear_186_2990)"/>
        </g>
        <path fill-rule="evenodd" clip-rule="evenodd" d="M173.202 179L163 184.612L173.202 190.599L182.951 184.612L173.202 179Z" fill="#4D4D56"/>
        <path fill-rule="evenodd" clip-rule="evenodd" d="M172.976 190.599V210L163 204.128V184.612L172.976 190.599Z" fill="url(#paint17_linear_186_2990)"/>
        <path fill-rule="evenodd" clip-rule="evenodd" d="M173.024 190.599V210L183 204.128V184.612L173.024 190.599Z" fill="url(#paint18_linear_186_2990)"/>
        <path fill-rule="evenodd" clip-rule="evenodd" d="M385.202 115L375 120.612L385.202 126.599L394.951 120.612L385.202 115Z" fill="#4D4D56"/>
        <path fill-rule="evenodd" clip-rule="evenodd" d="M384.976 126.599V146L375 140.128V120.612L384.976 126.599Z" fill="url(#paint19_linear_186_2990)"/>
        <path fill-rule="evenodd" clip-rule="evenodd" d="M385.024 126.599V146L395 140.128V120.612L385.024 126.599Z" fill="url(#paint20_linear_186_2990)"/>
        <path fill-rule="evenodd" clip-rule="evenodd" d="M131.671 122L124 126.354L131.671 131L139 126.354L131.671 122Z" fill="#4D4D56"/>
        <path fill-rule="evenodd" clip-rule="evenodd" d="M132 130.717V146L124 141.375V126L132 130.717Z" fill="url(#paint21_linear_186_2990)"/>
        <path fill-rule="evenodd" clip-rule="evenodd" d="M132 130.717V146L140 141.375V126L132 130.717Z" fill="url(#paint22_linear_186_2990)"/>
        <path fill-rule="evenodd" clip-rule="evenodd" d="M62.3027 60.3029V56.76L84.5162 47.678C84.8265 47.5511 85.1742 47.551 85.4845 47.6778L107.721 56.76V60.3021C107.721 61.2135 107.237 62.0561 106.449 62.5146L86.9331 73.8749C85.7385 74.5703 84.2623 74.57 83.068 73.8741L63.5739 62.5148C62.7868 62.0561 62.3027 61.2138 62.3027 60.3029Z" fill="url(#paint23_linear_186_2990)"/>
        <path d="M62.937 55.6496L83.0903 44.0951C84.2732 43.4169 85.7272 43.4169 86.9102 44.0951L107.063 55.6496C107.677 56.0012 107.889 56.7834 107.537 57.3967C107.424 57.5939 107.261 57.7574 107.063 57.8705L86.9102 69.425C85.7272 70.1033 84.2732 70.1033 83.0903 69.425L62.937 57.8705C62.3237 57.5189 62.1116 56.7367 62.4632 56.1234C62.5763 55.9262 62.7398 55.7627 62.937 55.6496Z" fill="#4D4D56"/>
        <path fill-rule="evenodd" clip-rule="evenodd" d="M62.3027 50.3029V46.76L84.5162 37.678C84.8265 37.5511 85.1742 37.551 85.4845 37.6778L107.721 46.76V50.3021C107.721 51.2135 107.237 52.0561 106.449 52.5146L86.9331 63.8749C85.7385 64.5703 84.2623 64.57 83.068 63.8741L63.5739 52.5148C62.7868 52.0561 62.3027 51.2138 62.3027 50.3029Z" fill="url(#paint24_linear_186_2990)"/>
        <path d="M62.937 45.6496L83.0903 34.0951C84.2732 33.4169 85.7272 33.4169 86.9102 34.0951L107.063 45.6496C107.677 46.0012 107.889 46.7834 107.537 47.3967C107.424 47.5939 107.261 47.7574 107.063 47.8705L86.9102 59.425C85.7272 60.1033 84.2732 60.1033 83.0903 59.425L62.937 47.8705C62.3237 47.5189 62.1116 46.7367 62.4632 46.1234C62.5763 45.9262 62.7398 45.7627 62.937 45.6496Z" fill="#4D4D56"/>
        <path fill-rule="evenodd" clip-rule="evenodd" d="M62.3027 40.3029V36.76L84.5162 27.678C84.8265 27.5511 85.1742 27.551 85.4845 27.6778L107.721 36.76V40.3021C107.721 41.2135 107.237 42.0561 106.449 42.5146L86.9331 53.8749C85.7385 54.5703 84.2623 54.57 83.068 53.8741L63.5739 42.5148C62.7868 42.0561 62.3027 41.2138 62.3027 40.3029Z" fill="url(#paint25_linear_186_2990)"/>
        <path d="M62.937 35.6496L83.0903 24.0951C84.2732 23.4169 85.7272 23.4169 86.9102 24.0951L107.063 35.6496C107.677 36.0012 107.889 36.7834 107.537 37.3967C107.424 37.5939 107.261 37.7574 107.063 37.8705L86.9102 49.425C85.7272 50.1033 84.2732 50.1033 83.0903 49.425L62.937 37.8705C62.3237 37.5189 62.1116 36.7367 62.4632 36.1234C62.5763 35.9262 62.7398 35.7627 62.937 35.6496Z" fill="#4D4D56"/>
        <path fill-rule="evenodd" clip-rule="evenodd" d="M85.6706 26L78 30.354L85.6706 35L93 30.354L85.6706 26Z" fill="#4D4D56"/>
        <path fill-rule="evenodd" clip-rule="evenodd" d="M86 34.7169V41L78 36.3746V30L86 34.7169Z" fill="url(#paint26_linear_186_2990)"/>
        <path fill-rule="evenodd" clip-rule="evenodd" d="M86 34.7169V41L93 37.002V30.354L86 34.7169Z" fill="url(#paint27_linear_186_2990)"/>
        <path opacity="0.4" d="M288.022 87.2654L339.513 57.7141C341.363 56.6526 343.637 56.6526 345.487 57.7141L396.977 87.2654C397.935 87.8152 398.266 89.0376 397.717 89.9956C397.54 90.3031 397.285 90.5582 396.977 90.7347L345.487 120.286C343.637 121.348 341.363 121.348 339.513 120.286L288.022 90.7347C287.064 90.1849 286.733 88.9625 287.283 88.0045C287.46 87.697 287.715 87.4419 288.022 87.2654Z" fill="#4D4D56"/>
        <path d="M288 75.9812V72.3953L341.548 44.4816C342.127 44.1798 342.817 44.1796 343.396 44.4812L397 72.3953V75.98C397 77.4044 396.243 78.7214 395.011 79.4376L345.49 108.244C343.624 109.329 341.319 109.329 339.454 108.243L289.987 79.4379C288.757 78.7214 288 77.405 288 75.9812Z" fill="#2D2D31"/>
        <path d="M288.022 70.2654L339.513 40.7141C341.363 39.6526 343.637 39.6526 345.487 40.7141L396.977 70.2654C397.935 70.8152 398.266 72.0376 397.717 72.9956C397.54 73.3031 397.285 73.5582 396.977 73.7347L345.487 103.286C343.637 104.348 341.363 104.348 339.513 103.286L288.022 73.7347C287.064 73.1849 286.733 71.9625 287.283 71.0045C287.46 70.697 287.715 70.4419 288.022 70.2654Z" fill="#4D4D56"/>
        <path d="M330 67.035L345.531 58.5263C346.129 58.1984 346.854 58.1983 347.452 58.5258L363 67.035C363 68.1982 362.395 69.2776 361.402 69.8844L349.623 77.0858C347.701 78.2608 345.283 78.2602 343.361 77.0844L331.597 69.8851C330.605 69.2779 330 68.1983 330 67.035Z" fill="#2D2D31"/>
        <path d="M331.064 64.7608L343.538 57.6811C345.375 56.6385 347.625 56.6385 349.461 57.6811L361.935 64.7608C362.896 65.306 363.233 66.5267 362.687 67.4873C362.509 67.8014 362.249 68.0613 361.935 68.2395L349.461 75.3192C347.625 76.3617 345.375 76.3617 343.538 75.3192L331.064 68.2395C330.104 67.6943 329.767 66.4735 330.312 65.5129C330.49 65.1989 330.75 64.939 331.064 64.7608Z" fill="#4D4D56"/>
        <path fill-rule="evenodd" clip-rule="evenodd" d="M330.515 15.6404L370.524 39.04C372.058 39.9368 373 41.5797 373 43.3561V74.7701C373 76.4269 371.657 77.7701 370 77.7701C369.468 77.7701 368.945 77.6284 368.485 77.3597L328.476 53.96C326.942 53.0633 326 51.4203 326 49.644V18.23C326 16.5731 327.343 15.23 329 15.23C329.532 15.23 330.055 15.3716 330.515 15.6404Z" fill="#46464F"/>
        <path fill-rule="evenodd" clip-rule="evenodd" d="M327 16.73C327.444 16.73 327.879 16.848 328.262 17.072L368.272 40.4716C369.652 41.2787 370.5 42.7574 370.5 44.3561V75.7701C370.5 76.4604 370.22 77.0854 369.768 77.5378C369.315 77.9902 368.69 78.2701 368 78.2701C367.556 78.2701 367.121 78.152 366.738 77.9281L326.728 54.5284C325.348 53.7213 324.5 52.2427 324.5 50.644V19.23C324.5 18.5396 324.78 17.9146 325.232 17.4622C325.685 17.0098 326.31 16.73 327 16.73Z" fill="#36363C"/>
        <path fill-rule="evenodd" clip-rule="evenodd" d="M331.53 31.7936L344.283 39.3528C345.802 40.2532 346.733 41.8881 346.733 43.654V55.843C346.733 57.4998 345.39 58.843 343.733 58.843C343.195 58.843 342.666 58.6981 342.203 58.4237L329.451 50.8644C327.931 49.964 327 48.3291 327 46.5633V34.3743C327 32.7174 328.343 31.3743 330 31.3743C330.538 31.3743 331.067 31.5191 331.53 31.7936Z" fill="url(#paint28_linear_186_2990)"/>
        <path fill-rule="evenodd" clip-rule="evenodd" d="M340.221 44L344 49.1773V49.9973L340.221 52V50.3202L342.489 49.1773L340 45.2951L340.221 44ZM338.61 40L340 40.4961L336.402 51L335 50.6558L338.61 40ZM334 39V40.8649L331.772 42.1743L334 46.3381L333.719 48L330 41.2333L334 39Z" fill="#FEFFFE"/>
        <path fill-rule="evenodd" clip-rule="evenodd" d="M329.421 23.9506L347.243 34.5146C347.547 34.6947 347.733 35.0217 347.733 35.3749V36.4568C347.733 36.9765 347.312 37.3978 346.792 37.3978C346.623 37.3978 346.458 37.3524 346.312 37.2663L328.49 26.7022C328.186 26.5222 328 26.1952 328 25.842V24.7601C328 24.2404 328.421 23.8191 328.941 23.8191C329.11 23.8191 329.276 23.8645 329.421 23.9506Z" fill="#4D4D56"/>
        <path fill-rule="evenodd" clip-rule="evenodd" d="M349.51 43.0035L367.243 53.5147C367.547 53.6948 367.733 54.0218 367.733 54.375V59.9976C367.733 60.5499 367.285 60.9976 366.733 60.9976C366.554 60.9976 366.378 60.9493 366.223 60.8578L348.49 50.3466C348.186 50.1665 348 49.8396 348 49.4864V43.8638C348 43.3115 348.448 42.8638 349 42.8638C349.179 42.8638 349.356 42.912 349.51 43.0035Z" fill="#4D4D56"/>
        <path fill-rule="evenodd" clip-rule="evenodd" d="M349.535 53.0795L359.301 59.2581C359.591 59.4414 359.766 59.7603 359.766 60.1032V65.6841C359.766 66.2364 359.319 66.6841 358.766 66.6841C358.577 66.6841 358.392 66.6304 358.232 66.5292L348.465 60.3506C348.176 60.1673 348 59.8483 348 59.5055V53.9246C348 53.3723 348.448 52.9246 349 52.9246C349.189 52.9246 349.375 52.9783 349.535 53.0795Z" fill="#4D4D56"/>
        <path d="M324.733 55.2678C324.733 55.2678 321.179 58.8931 321.011 60.2572C320.843 61.6214 322.714 63.7516 322.714 63.7516L324.733 55.2678Z" fill="#317B86"/>
        <path d="M326.795 85.038C326.795 85.038 326.908 86.9604 327.249 86.9875C327.294 86.9911 328.975 86.9875 328.975 86.9875L331.122 86.9685C331.122 86.9685 331.107 86.403 330.479 86.2856C329.851 86.1672 328.8 85.6884 328.418 84.7832C328.016 83.8311 326.794 85.0389 326.794 85.0389L326.795 85.038Z" fill="#062646"/>
        <path d="M322.014 85.049C322.014 85.049 322.128 86.9723 322.468 86.9985C322.513 87.0021 324.195 86.9985 324.195 86.9985L326.341 86.9795C326.341 86.9795 326.326 86.414 325.698 86.2966C325.07 86.1782 324.019 85.6994 323.637 84.7942C323.235 83.842 322.014 85.0499 322.014 85.0499L322.014 85.049Z" fill="#062646"/>
        <path d="M328.89 69.2115C328.89 69.2115 328.355 72.1791 326.344 77.4489C324.333 82.7188 324.063 85 324.063 85L321.891 84.9522C321.891 84.9522 321.858 79.1974 322.785 76.5474C323.711 73.8974 322.962 67 322.962 67L328.891 69.2122L328.89 69.2115Z" fill="#273F5F"/>
        <path d="M329.889 67C329.889 67 329.973 71.5086 329.124 77.0464C328.274 82.5842 328.573 84.9339 328.573 84.9339L326.506 85C326.506 85 325.258 79.4643 325.605 76.6923C325.953 73.9203 323.891 67.1874 323.891 67.1874L329.889 67Z" fill="#274B79"/>
        <path d="M325.291 55.6084L326.62 56.4612L328.537 56.1052C328.51 55.9525 328.382 55.322 328.266 54.7501C328.259 54.7167 328.252 54.6824 328.246 54.6499C328.146 54.1638 328.059 53.7456 328.059 53.7456L326.266 52.9723L325.597 52.6841C325.599 52.694 325.65 53.2243 325.658 53.3011C325.786 54.6743 325.291 55.6075 325.291 55.6075L325.291 55.6084Z" fill="#FFAE73"/>
        <path d="M328.044 55.1712C328.007 55.1558 325.733 54.5009 325.486 54.5822C325.239 54.6626 325.094 55.1332 325.094 55.1332L328.812 55.9517C328.812 55.9517 328.519 55.3672 328.043 55.1712H328.044Z" fill="#317B86"/>
        <path d="M321.992 67.795C322.394 69.2624 329.017 69.4242 330.721 68.0896C330.914 67.9377 330.922 67.2305 330.847 66.2786C330.699 64.4177 330.231 61.6188 330.21 60.1882C330.199 59.4979 330.08 58.7914 329.922 58.1502C329.586 56.7833 329.075 55.7118 329.075 55.7118C329.075 55.7118 325.838 54.8718 325.233 55.0168C322.319 55.7148 321.591 66.3292 321.993 67.7958L321.992 67.795Z" fill="#4799A6"/>
        <path d="M330.529 64.7993C330.385 63.4041 329.933 61.3057 329.912 60.2331C329.902 59.7156 329.786 59.1859 329.634 58.7051L327.749 58.4993C327.749 58.4993 325.924 63.212 330.529 64.7987V64.7993Z" fill="#317B86"/>
        <path d="M329.502 65.3434C329.502 65.3434 329.375 65.6451 329.645 65.8475C329.915 66.0498 330.09 66.3778 330.03 66.6181C329.968 66.8584 329.377 67.2513 329.172 67.1881C328.968 67.1258 328.549 66.8105 328.594 66.6831C328.639 66.5566 328.311 65.5728 328.81 65.1925C329.309 64.8122 329.503 65.3425 329.503 65.3425L329.502 65.3434Z" fill="#FFAE73"/>
        <path d="M327.373 55.5107C327.373 55.5107 329.211 55.845 330.68 57.9634C332.148 60.0819 333.115 61.6574 332.846 62.4235C332.578 63.1887 330.126 65.8464 329.703 65.8473C329.279 65.8482 328.595 65.5465 328.556 64.8644C328.556 64.8644 330.28 62.3097 329.939 61.9284C329.793 61.7658 327.688 60.0918 327.39 60.8507C326.896 62.1055 327.374 55.5107 327.374 55.5107H327.373Z" fill="#4799A6"/>
        <path d="M325.791 53.3256C326.186 53.9806 327.654 54.5443 328.265 54.7512C328.257 54.7178 328.251 54.6834 328.244 54.6509C328.144 54.1649 328.058 53.7466 328.058 53.7466L326.265 52.9733C325.869 52.9688 325.627 53.0564 325.79 53.3256H325.791Z" fill="#FFA05E"/>
        <path d="M328.734 53.6382C328.734 53.6382 325.85 54.5298 325.313 52.7547C324.776 50.9795 324.042 49.899 325.861 49.2549C327.679 48.6108 328.244 49.1827 328.569 49.7319C328.895 50.2812 329.47 53.3599 328.733 53.6373L328.734 53.6382Z" fill="#FFAE73"/>
        <path d="M328.456 49.5611C328.456 49.5611 328.276 51.6281 327.842 51.5395C327.407 51.451 327.013 51.3851 327.078 52.0084C327.143 52.6317 327.747 53.3499 326.408 53.4629C325.07 53.5758 323.137 50.1826 323.503 49.5385C324.56 47.6802 329.985 47.2945 328.456 49.5611Z" fill="#0B3563"/>
        <path opacity="0.4" d="M297.953 173.274L324.472 157.77C326.342 156.677 328.657 156.677 330.528 157.77L357.047 173.274C358 173.831 358.321 175.056 357.764 176.009C357.59 176.306 357.343 176.553 357.047 176.727L330.528 192.23C328.657 193.323 326.342 193.323 324.472 192.23L297.953 176.727C297 176.169 296.679 174.944 297.236 173.991C297.41 173.694 297.657 173.447 297.953 173.274Z" fill="#4D4D56"/>
        <path fill-rule="evenodd" clip-rule="evenodd" d="M297 166.452V160.032L327.306 149.241C327.744 149.085 328.223 149.087 328.66 149.246L358.299 160.032V166.477C358.299 167.88 357.565 169.18 356.364 169.904L331.047 185.155C329.16 186.292 326.802 186.303 324.904 185.184L298.969 169.898C297.749 169.179 297 167.868 297 166.452Z" fill="url(#paint29_linear_186_2990)"/>
        <path d="M297.953 157.274L324.472 141.77C326.342 140.677 328.657 140.677 330.528 141.77L357.047 157.274C358 157.831 358.321 159.056 357.764 160.009C357.59 160.306 357.343 160.553 357.047 160.727L330.528 176.23C328.657 177.323 326.342 177.323 324.472 176.23L297.953 160.727C297 160.169 296.679 158.944 297.236 157.991C297.41 157.694 297.657 157.447 297.953 157.274Z" fill="#4D4D56"/>
        <path fill-rule="evenodd" clip-rule="evenodd" d="M328.486 117.637L302.477 132.835C300.943 133.731 300 135.375 300 137.152V156.772C300 158.429 301.343 159.772 303 159.772C303.532 159.772 304.054 159.631 304.514 159.363L330.523 144.165C332.057 143.269 333 141.625 333 139.848V120.228C333 118.571 331.657 117.228 330 117.228C329.468 117.228 328.946 117.369 328.486 117.637Z" fill="#46464F"/>
        <path fill-rule="evenodd" clip-rule="evenodd" d="M332 118.728C331.557 118.728 331.121 118.845 330.739 119.069L304.73 134.267C303.349 135.073 302.5 136.553 302.5 138.152V157.772C302.5 158.463 302.78 159.088 303.232 159.54C303.685 159.993 304.31 160.272 305 160.272C305.443 160.272 305.879 160.155 306.261 159.931L332.27 144.733C333.651 143.926 334.5 142.447 334.5 140.848V121.228C334.5 120.537 334.22 119.912 333.768 119.46C333.315 119.007 332.69 118.728 332 118.728Z" fill="#36363C"/>
        <path fill-rule="evenodd" clip-rule="evenodd" d="M331.485 126.91L319.485 134.116C319.184 134.296 319 134.622 319 134.973V147.233C319 147.785 319.448 148.233 320 148.233C320.181 148.233 320.359 148.184 320.515 148.09L332.515 140.884C332.816 140.703 333 140.378 333 140.027V127.767C333 127.215 332.552 126.767 332 126.767C331.819 126.767 331.641 126.816 331.485 126.91Z" fill="url(#paint30_linear_186_2990)"/>
        <path fill-rule="evenodd" clip-rule="evenodd" d="M324.7 136.462L322 140.046V140.614L324.7 142V140.837L323.08 140.046L324.857 137.358L324.7 136.462ZM325.85 133.692L324.857 134.036L327.427 141.308L328.429 141.069L325.85 133.692ZM329.143 133V134.291L330.735 135.198L329.143 138.08L329.344 139.231L332 134.546L329.143 133Z" fill="#FEFFFE"/>
        <path fill-rule="evenodd" clip-rule="evenodd" d="M330.967 122.633L318.478 130.285C318.181 130.467 318 130.79 318 131.138V131.789C318 132.163 318.304 132.467 318.678 132.467C318.803 132.467 318.926 132.432 319.033 132.367L331.522 124.715C331.819 124.533 332 124.21 332 123.862V123.211C332 122.836 331.696 122.533 331.322 122.533C331.197 122.533 331.074 122.567 330.967 122.633Z" fill="#4D4D56"/>
        <path fill-rule="evenodd" clip-rule="evenodd" d="M316.488 135.9L304.488 143.045C304.186 143.225 304 143.552 304 143.904V147.241C304 147.793 304.448 148.241 305 148.241C305.18 148.241 305.357 148.192 305.512 148.1L317.512 140.955C317.814 140.775 318 140.448 318 140.096V136.759C318 136.207 317.552 135.759 317 135.759C316.82 135.759 316.643 135.808 316.488 135.9Z" fill="#4D4D56"/>
        <path fill-rule="evenodd" clip-rule="evenodd" d="M315.446 144.033L309.446 148.023C309.168 148.209 309 148.521 309 148.856V152.134C309 152.686 309.448 153.134 310 153.134C310.197 153.134 310.39 153.076 310.554 152.967L316.554 148.977C316.832 148.791 317 148.479 317 148.144V144.866C317 144.314 316.552 143.866 316 143.866C315.803 143.866 315.61 143.924 315.446 144.033Z" fill="#4D4D56"/>
        <path d="M338.151 165.975C338.151 165.975 338.235 165.064 338.429 164.522C338.624 163.98 339.861 164.325 339.861 164.325C339.861 164.325 340.108 164.621 340.161 166L338.151 165.975Z" fill="#233862"/>
        <path d="M333.937 165.962C334.228 165.715 334.062 163.871 334.062 163.871C334.062 163.871 332.708 162.36 332.521 163.517C332.335 164.673 331.234 165.193 330.608 165.334C330.175 165.432 330.042 165.766 330 165.963H333.936L333.937 165.962Z" fill="#233862"/>
        <path d="M336.889 156.055C336.83 156.357 336.793 156.605 336.784 156.783C336.65 159.228 334.593 164.816 334.225 164.947C333.656 165.149 332.759 164.72 332.291 164.579C332.097 164.521 331.965 164.337 332.008 164.15C333.027 159.751 333.402 153.417 333.538 149.666C333.607 147.777 333.952 146.472 333.952 146.472C333.952 146.472 338.97 145.215 339 146.805C339.026 148.212 337.338 153.733 336.891 156.055H336.889Z" fill="#273F5F"/>
        <path d="M337.069 157L334 150.646C334.063 148.767 334.379 147.469 334.379 147.469C334.379 147.469 338.973 146.219 339 147.8C339.024 149.2 337.478 154.691 337.069 157Z" fill="#233862"/>
        <path d="M336 146.581L338.356 164.864C338.356 164.864 339.391 165.131 340.196 164.917C340.196 164.917 340.886 155.194 340.828 152.843C340.771 150.492 341.323 146.553 340.702 146.119C340.081 145.684 336 146.582 336 146.582V146.581Z" fill="#274B79"/>
        <path d="M341.51 141.398L341.869 145.722C341.883 145.884 341.762 146.033 341.58 146.078C341.178 146.179 340.715 146.248 339.82 146.408C338.981 146.559 337.85 146.692 336.462 146.699C334.253 146.711 333.417 146.055 333.417 146.055C333.322 146.056 333.468 145.658 333.599 143.764C333.643 143.122 333.686 142.309 333.717 141.281C333.745 140.356 333.763 139.257 333.765 137.954C333.767 136.386 336.584 134.699 336.636 134.699C336.636 134.925 337.049 135.342 337.685 135.378C338.44 135.42 339.366 135.096 339.366 134.722C339.366 134.718 340.731 136.603 341.215 138.611C341.277 138.866 341.324 139.134 341.362 139.417C341.362 139.421 341.363 139.425 341.364 139.43C341.371 139.481 341.378 139.533 341.385 139.586C341.386 139.595 341.387 139.604 341.388 139.613C341.394 139.661 341.399 139.709 341.404 139.757C341.405 139.771 341.407 139.786 341.408 139.799C341.413 139.843 341.417 139.888 341.421 139.932C341.421 139.936 341.421 139.94 341.422 139.944C341.425 139.977 341.428 140.011 341.431 140.044C341.433 140.067 341.435 140.092 341.437 140.115C341.44 140.154 341.443 140.193 341.446 140.233C341.447 140.253 341.449 140.273 341.45 140.293C341.453 140.33 341.455 140.368 341.458 140.406C341.459 140.423 341.46 140.44 341.461 140.457C341.464 140.512 341.468 140.567 341.471 140.622C341.471 140.627 341.471 140.631 341.471 140.636C341.474 140.689 341.477 140.743 341.48 140.797C341.48 140.81 341.481 140.824 341.483 140.837C341.486 140.888 341.489 140.939 341.491 140.99C341.491 140.998 341.491 141.006 341.492 141.013C341.498 141.138 341.504 141.266 341.509 141.396C341.509 141.399 341.509 141.402 341.509 141.405V141.396L341.51 141.398Z" fill="#4799A6"/>
        <path d="M336.634 134.7C336.634 134.7 334.016 134.674 333.385 135.743C332.754 136.813 331.372 142.567 332.094 144.482C332.816 146.397 334.165 143.689 334.914 142.516C335.662 141.344 336.634 134.7 336.634 134.7Z" fill="#4799A6"/>
        <path d="M336.608 134.216V134.544C336.608 134.544 336.535 135.569 337.579 135.718C338.621 135.868 339.412 135.319 339.383 134.529C339.29 133.916 339.187 133.496 339.18 132.989C339.176 132.801 339.188 132.601 339.217 132.376L337.196 132.327L336.601 132.445L336.609 134.216H336.608Z" fill="#FFB27D"/>
        <path d="M336.6 132.445L336.608 134.216C336.823 134.337 337.065 134.411 337.337 134.411C338.265 134.411 338.866 133.587 339.18 132.989C339.177 132.801 339.188 132.601 339.217 132.376L337.197 132.327L336.601 132.445H336.6Z" fill="#E2915A"/>
        <path d="M339.371 131.982C339.136 133.509 337.509 133.459 336.805 133.363C336.607 133.336 336.482 133.305 336.482 133.305C336.259 133.233 336.134 132.807 336.077 132.25C335.962 131.147 336.107 129.529 336.261 129.114C336.493 128.49 336.929 127.818 338.568 128.304C340.208 128.79 339.671 130.026 339.371 131.981V131.982Z" fill="#FFB27D"/>
        <path d="M333.956 138.989C333.956 138.989 332.943 141.695 332.973 142.508C332.973 142.508 333.475 142.487 333.956 142.661C334.748 142.946 333.956 138.99 333.956 138.99V138.989Z" fill="#317B86"/>
        <path d="M335.758 127.662C335.758 127.662 336.479 127.595 337.33 127.148C338.02 126.784 338.892 127.184 339.175 127.365C339.167 127.31 339.148 127.235 339.106 127.159C339.106 127.159 339.233 127.268 339.251 127.42C339.264 127.432 339.271 127.44 339.267 127.443C339.267 127.443 339.411 127.411 339.503 127.462C339.503 127.462 339.438 127.451 339.415 127.501C339.413 127.506 339.409 127.511 339.405 127.515C340.483 128.146 340.581 130.206 340.235 130.682C339.819 131.256 339.318 132.548 339.318 132.548C339.318 132.548 339.135 132.242 339.211 131.737C339.287 131.232 338.926 131.232 338.471 131.003C338.016 130.774 338.396 130.132 337.997 129.741C337.598 129.351 336.139 129.58 336.157 129.283C335.615 129.044 335.756 127.731 335.756 127.663L335.758 127.662Z" fill="#233862"/>
        <path d="M339.7 144.009C339.272 145.201 334.648 145.817 333.597 145.942C333.641 145.425 333.683 144.771 333.715 143.942L339.7 144.009Z" fill="#317B86"/>
        <path d="M338.685 144.735C338.729 144.735 339.713 144.557 339.889 144.45C340.066 144.344 340.871 142.957 340.343 142.603C339.815 142.247 338.398 143.669 338.398 143.669L338.685 144.735Z" fill="#FFB27D"/>
        <path d="M332.701 145.146C332.701 145.146 336.506 145.396 339.061 144.734C339.061 144.734 339.125 143.84 338.323 143.444C338.323 143.444 334.343 142.423 333.386 142.708C332.429 142.993 332.702 145.146 332.702 145.146H332.701Z" fill="#4799A6"/>
        <path d="M341.44 141.532C340.65 142.684 339.618 143.625 338.48 143.845C338.471 143.828 338.136 143.212 338.199 142.307C338.228 141.888 338.342 141.408 338.613 140.895C338.697 140.738 338.771 140.553 338.838 140.349C339.459 138.431 339.366 134.732 339.366 134.732C339.366 134.732 342.005 135.066 342.828 136.488C343.331 137.359 342.69 139.71 341.441 141.531L341.44 141.532Z" fill="#4799A6"/>
        <path d="M336.805 133.363C336.607 133.336 336.482 133.306 336.482 133.306C336.259 133.233 336.134 132.808 336.076 132.25C336.495 132.375 336.687 132.766 336.766 132.933C336.803 133.008 336.81 133.176 336.805 133.363Z" fill="#E2915A"/>
        <path d="M335.741 134.226C335.741 134.226 334.83 132.406 335.538 132.327C336.247 132.248 336.532 132.828 336.634 133.042C336.736 133.255 336.607 134.216 336.607 134.216L335.74 134.226H335.741Z" fill="#FFB27D"/>
        <path d="M339.216 142.247C339.187 142.477 339.131 142.689 339.06 142.879C338.837 143.477 338.48 143.846 338.48 143.846C336.112 142.553 335.634 138.113 335.553 135.674C335.521 134.694 335.553 134.036 335.553 134.036C336.621 133.608 336.922 134.351 336.922 134.351C336.922 134.351 338.182 137.979 338.837 140.351C339.088 141.258 339.249 141.982 339.217 142.247H339.216Z" fill="#4799A6"/>
        <path d="M341.44 141.532C340.65 142.684 339.618 143.625 338.48 143.845C336.113 142.552 335.634 138.112 335.554 135.673C335.554 135.673 336.674 140.59 338.199 142.308C338.474 142.619 338.763 142.825 339.061 142.879C339.061 142.879 340.983 142.222 341.387 141.602C341.416 141.558 341.433 141.536 341.441 141.533L341.44 141.532Z" fill="#317B86"/>
    </g>
    <defs>
        <linearGradient id="paint0_linear_186_2990" x1="2.04581e-06" y1="73" x2="405.579" y2="85.4161" gradientUnits="userSpaceOnUse">
            <stop stop-color="#FDFDFF"/>
            <stop offset="1" stop-color="#FAFBFF"/>
        </linearGradient>
        <linearGradient id="paint1_linear_186_2990" x1="86.1537" y1="135.93" x2="86.1537" y2="176.219" gradientUnits="userSpaceOnUse">
            <stop stop-color="#28D5E2"/>
            <stop offset="1" stop-color="#B1EAD5"/>
        </linearGradient>
        <linearGradient id="paint2_linear_186_2990" x1="57.8092" y1="157.66" x2="108.772" y2="157.66" gradientUnits="userSpaceOnUse">
            <stop stop-color="#28D5E2"/>
            <stop offset="1" stop-color="#B1EAD5"/>
        </linearGradient>
        <linearGradient id="paint3_linear_186_2990" x1="74.9494" y1="128.5" x2="64" y2="128.5" gradientUnits="userSpaceOnUse">
            <stop stop-color="#28D5E2"/>
            <stop offset="1" stop-color="#B1EAD5"/>
        </linearGradient>
        <linearGradient id="paint4_linear_186_2990" x1="85.5" y1="42.2568" x2="85.5" y2="81.74" gradientUnits="userSpaceOnUse">
            <stop stop-color="#28D5E2"/>
            <stop offset="1" stop-color="#B1EAD5"/>
        </linearGradient>
        <linearGradient id="paint5_linear_186_2990" x1="218.525" y1="18" x2="218.525" y2="122.037" gradientUnits="userSpaceOnUse">
            <stop stop-color="#28282C" stop-opacity="0"/>
            <stop offset="1" stop-color="#50E0E2"/>
        </linearGradient>
        <linearGradient id="paint6_linear_186_2990" x1="218.525" y1="122.563" x2="218.525" y2="154.357" gradientUnits="userSpaceOnUse">
            <stop stop-color="#34C0D6"/>
            <stop offset="1" stop-color="#01D2E8"/>
        </linearGradient>
        <linearGradient id="paint7_linear_186_2990" x1="210.241" y1="51.4" x2="221.023" y2="115.693" gradientUnits="userSpaceOnUse">
            <stop stop-color="#4ACBBF"/>
            <stop offset="1" stop-color="#0FA4B6"/>
        </linearGradient>
        <linearGradient id="paint8_linear_186_2990" x1="210.158" y1="62.6607" x2="217.906" y2="115.762" gradientUnits="userSpaceOnUse">
            <stop stop-color="#9CE9D8"/>
            <stop offset="1" stop-color="#18D7E7"/>
        </linearGradient>
        <linearGradient id="paint9_linear_186_2990" x1="210.241" y1="51.4" x2="221.023" y2="115.693" gradientUnits="userSpaceOnUse">
            <stop stop-color="#69D9CF"/>
            <stop offset="1" stop-color="#16CAE0"/>
        </linearGradient>
        <linearGradient id="paint10_linear_186_2990" x1="210.158" y1="62.6607" x2="217.906" y2="115.762" gradientUnits="userSpaceOnUse">
            <stop stop-color="#9CE9D8"/>
            <stop offset="1" stop-color="#18D7E7"/>
        </linearGradient>
        <linearGradient id="paint11_linear_186_2990" x1="192.892" y1="82.7007" x2="204.725" y2="101.608" gradientUnits="userSpaceOnUse">
            <stop stop-color="#9CE9D8"/>
            <stop offset="1" stop-color="#18D7E7"/>
        </linearGradient>
        <linearGradient id="paint12_linear_186_2990" x1="193.55" y1="83.1614" x2="219.636" y2="110.456" gradientUnits="userSpaceOnUse">
            <stop stop-color="#9CE9D8"/>
            <stop offset="1" stop-color="#18D7E7"/>
        </linearGradient>
        <linearGradient id="paint13_linear_186_2990" x1="199.754" y1="90.0641" x2="208.671" y2="103.889" gradientUnits="userSpaceOnUse">
            <stop stop-color="#9CE9D8"/>
            <stop offset="1" stop-color="#18D7E7"/>
        </linearGradient>
        <linearGradient id="paint14_linear_186_2990" x1="229.025" y1="53.2295" x2="238.735" y2="72.7968" gradientUnits="userSpaceOnUse">
            <stop stop-color="#72CFDB"/>
            <stop offset="1" stop-color="#44ABB8"/>
        </linearGradient>
        <linearGradient id="paint15_linear_186_2990" x1="138.988" y1="47.6116" x2="138.988" y2="63.0293" gradientUnits="userSpaceOnUse">
            <stop stop-color="#4C4C56"/>
            <stop offset="1" stop-color="#28282C" stop-opacity="0"/>
        </linearGradient>
        <linearGradient id="paint16_linear_186_2990" x1="149.012" y1="51.6094" x2="149.012" y2="62.557" gradientUnits="userSpaceOnUse">
            <stop stop-color="#35353C"/>
            <stop offset="1" stop-color="#28282C" stop-opacity="0"/>
        </linearGradient>
        <linearGradient id="paint17_linear_186_2990" x1="167.988" y1="184.612" x2="167.988" y2="200.029" gradientUnits="userSpaceOnUse">
            <stop stop-color="#4C4C56"/>
            <stop offset="1" stop-color="#28282C" stop-opacity="0"/>
        </linearGradient>
        <linearGradient id="paint18_linear_186_2990" x1="178.012" y1="188.609" x2="178.012" y2="199.557" gradientUnits="userSpaceOnUse">
            <stop stop-color="#35353C"/>
            <stop offset="1" stop-color="#28282C" stop-opacity="0"/>
        </linearGradient>
        <linearGradient id="paint19_linear_186_2990" x1="379.988" y1="120.612" x2="379.988" y2="136.029" gradientUnits="userSpaceOnUse">
            <stop stop-color="#4C4C56"/>
            <stop offset="1" stop-color="#28282C" stop-opacity="0"/>
        </linearGradient>
        <linearGradient id="paint20_linear_186_2990" x1="390.012" y1="124.609" x2="390.012" y2="135.557" gradientUnits="userSpaceOnUse">
            <stop stop-color="#35353C"/>
            <stop offset="1" stop-color="#28282C" stop-opacity="0"/>
        </linearGradient>
        <linearGradient id="paint21_linear_186_2990" x1="128" y1="126" x2="128" y2="138.145" gradientUnits="userSpaceOnUse">
            <stop stop-color="#4C4C56"/>
            <stop offset="1" stop-color="#28282C" stop-opacity="0"/>
        </linearGradient>
        <linearGradient id="paint22_linear_186_2990" x1="136" y1="129.149" x2="136" y2="137.773" gradientUnits="userSpaceOnUse">
            <stop stop-color="#35353C"/>
            <stop offset="1" stop-color="#28282C" stop-opacity="0"/>
        </linearGradient>
        <linearGradient id="paint23_linear_186_2990" x1="57.9907" y1="60.9895" x2="107.721" y2="60.9895" gradientUnits="userSpaceOnUse">
            <stop stop-color="#28D5E2"/>
            <stop offset="1" stop-color="#B1EAD5"/>
        </linearGradient>
        <linearGradient id="paint24_linear_186_2990" x1="57.9907" y1="50.9895" x2="107.721" y2="50.9895" gradientUnits="userSpaceOnUse">
            <stop stop-color="#28D5E2"/>
            <stop offset="1" stop-color="#B1EAD5"/>
        </linearGradient>
        <linearGradient id="paint25_linear_186_2990" x1="57.9907" y1="40.9895" x2="107.721" y2="40.9895" gradientUnits="userSpaceOnUse">
            <stop stop-color="#28D5E2"/>
            <stop offset="1" stop-color="#B1EAD5"/>
        </linearGradient>
        <linearGradient id="paint26_linear_186_2990" x1="82" y1="30" x2="82" y2="36.68" gradientUnits="userSpaceOnUse">
            <stop stop-color="#4C4C56"/>
            <stop offset="1" stop-color="#28282C" stop-opacity="0"/>
        </linearGradient>
        <linearGradient id="paint27_linear_186_2990" x1="89.5" y1="32.0304" x2="89.5" y2="36.621" gradientUnits="userSpaceOnUse">
            <stop stop-color="#35353C"/>
            <stop offset="1" stop-color="#28282C" stop-opacity="0"/>
        </linearGradient>
        <linearGradient id="paint28_linear_186_2990" x1="336.867" y1="31.3743" x2="336.867" y2="54.551" gradientUnits="userSpaceOnUse">
            <stop stop-color="#28D5E2"/>
            <stop offset="1" stop-color="#B1EAD5"/>
        </linearGradient>
        <linearGradient id="paint29_linear_186_2990" x1="291.18" y1="167.57" x2="358.299" y2="167.57" gradientUnits="userSpaceOnUse">
            <stop stop-color="#28D5E2"/>
            <stop offset="1" stop-color="#B1EAD5"/>
        </linearGradient>
        <linearGradient id="paint30_linear_186_2990" x1="326" y1="126.767" x2="326" y2="144.879" gradientUnits="userSpaceOnUse">
            <stop stop-color="#28D5E2"/>
            <stop offset="1" stop-color="#B1EAD5"/>
        </linearGradient>
    </defs>
</svg>
