<svg width="435" height="200" viewBox="0 0 435 200" fill="none" xmlns="http://www.w3.org/2000/svg">
<mask id="mask0_162_443" style="mask-type:alpha" maskUnits="userSpaceOnUse" x="0" y="0" width="435" height="200">
<rect width="435" height="200" rx="8" fill="url(#paint0_linear_162_443)"/>
</mask>
<g mask="url(#mask0_162_443)">
<rect width="435" height="200" rx="8" fill="url(#paint1_linear_162_443)"/>
<path opacity="0.6" d="M110.568 113.02L207.799 52.2504C210.99 50.2561 215.031 50.2219 218.255 52.1619L317.052 111.608C321.785 114.455 323.313 120.6 320.465 125.332C319.656 126.678 318.54 127.814 317.21 128.648L218.304 190.674C215.06 192.708 210.938 192.712 207.691 190.682L110.568 129.98C105.885 127.053 104.461 120.883 107.388 116.2C108.193 114.912 109.28 113.825 110.568 113.02Z" fill="url(#paint2_linear_162_443)"/>
<path d="M42.8757 167.092L77.5853 146.952C80.006 145.548 82.9937 145.548 85.4144 146.952L120.124 167.092C121.366 167.812 121.789 169.403 121.068 170.645C120.841 171.037 120.515 171.362 120.124 171.589L85.4144 191.729C82.9937 193.133 80.006 193.133 77.5853 191.729L42.8757 171.589C41.6336 170.869 41.211 169.278 41.9316 168.036C42.1588 167.644 42.4842 167.319 42.8757 167.092Z" fill="#EAEFF8"/>
<path fill-rule="evenodd" clip-rule="evenodd" d="M41.6152 158.23V156.814L80.9271 136.227C81.6823 135.832 82.5833 135.831 83.3386 136.227L122.692 156.814V158.228C122.692 160.076 121.711 161.786 120.116 162.718L86.0702 182.614C83.6378 184.035 80.628 184.035 78.1962 182.612L44.1895 162.718C42.5952 161.786 41.6152 160.077 41.6152 158.23Z" fill="url(#paint3_linear_162_443)"/>
<path d="M42.8757 155.411L77.5853 135.271C80.006 133.867 82.9937 133.867 85.4144 135.271L120.124 155.411C121.366 156.131 121.789 157.722 121.068 158.964C120.841 159.356 120.515 159.681 120.124 159.908L85.4144 180.048C82.9937 181.452 80.006 181.452 77.5853 180.048L42.8757 159.908C41.6336 159.188 41.211 157.597 41.9316 156.355C42.1588 155.963 42.4842 155.638 42.8757 155.411Z" fill="#F7F9FF"/>
<path fill-rule="evenodd" clip-rule="evenodd" d="M59.5236 155.411L77.5853 144.931C80.006 143.526 82.9936 143.526 85.4143 144.931L103.476 155.411C104.718 156.131 105.141 157.722 104.42 158.964C104.193 159.356 103.867 159.681 103.476 159.908L85.4143 170.388C82.9936 171.793 80.006 171.793 77.5853 170.388L59.5236 159.908C58.2816 159.188 57.8589 157.597 58.5796 156.355C58.8067 155.963 59.1321 155.638 59.5236 155.411Z" fill="url(#paint4_linear_162_443)"/>
<path fill-rule="evenodd" clip-rule="evenodd" d="M66.4177 155.411L77.5854 148.931C80.0061 147.526 82.9938 147.526 85.4145 148.931L96.5823 155.411C97.8243 156.131 98.2469 157.722 97.5263 158.964C97.2992 159.356 96.9738 159.681 96.5823 159.908L85.4145 166.388C82.9938 167.793 80.0061 167.793 77.5854 166.388L66.4177 159.908C65.1756 159.188 64.753 157.597 65.4736 156.355C65.7008 155.963 66.0262 155.638 66.4177 155.411Z" fill="#FEFFFE"/>
<path d="M77.7142 131.766C77.7142 131.766 76.7362 132.071 76.1143 131.844C75.4925 131.617 74.4222 131.989 74.2497 132.264C74.0772 132.538 74.1408 132.646 74.4481 132.741C74.7553 132.836 75.8449 133.397 76.5618 133.072C77.2778 132.747 78.2124 132.736 78.2124 132.736L77.7151 131.766H77.7142Z" fill="#E49963"/>
<path d="M86.1689 121.493C86.1689 121.493 85.0701 130.935 83.2507 131.781C82.3529 132.198 78.3847 133.145 77.2102 133.239C77.2102 133.239 76.9223 132.957 76.9925 131.81C76.9925 131.81 81.1498 129.964 81.7403 128.961C82.6196 127.468 81.195 122.861 82.2976 121.458C83.4011 120.056 85.2583 119.453 86.168 121.494L86.1689 121.493Z" fill="#317B86"/>
<path d="M85.2863 158.931H85.2499C84.8403 158.931 84.5083 158.599 84.5083 158.189V143.593C84.5083 143.184 84.8403 142.852 85.2499 142.852H85.2863C85.6958 142.852 86.0279 143.184 86.0279 143.593V158.189C86.0279 158.599 85.6958 158.931 85.2863 158.931Z" fill="#EAEFFD"/>
<path d="M89.9581 159.987C89.4663 158.757 87.5537 157.84 85.2683 157.84C82.983 157.84 81.0704 158.757 80.5786 159.987H89.959H89.9581Z" fill="#EAEFFD"/>
<path d="M81.903 155.816H88.6345C88.7489 155.816 88.8411 155.726 88.8411 155.614V155.37C88.8411 155.258 88.7489 155.168 88.6345 155.168H81.903C81.7886 155.168 81.6963 155.258 81.6963 155.37V155.614C81.6963 155.726 81.7886 155.816 81.903 155.816Z" fill="#EAEFFD"/>
<path d="M85.7981 141.386C85.478 142.043 85.1071 142.659 84.7242 143.242C83.5432 145.045 82.2571 146.531 82.0329 147.936C81.9886 148.216 81.9175 148.518 81.8253 148.835C81.7321 149.157 81.6158 149.496 81.483 149.845C80.982 151.161 80.2319 152.637 79.4836 153.977C78.1901 156.294 76.9731 158.227 76.9731 158.227L74.7422 158.113C74.8317 157.842 75.8042 154.643 77.106 150.732C77.6347 149.145 78.1966 147.456 78.7391 145.828C78.811 145.611 78.8839 145.394 78.955 145.179C79.121 144.681 79.2843 144.19 79.443 143.713C80.6655 140.041 81.6389 137.117 81.6389 137.117C81.6389 137.117 86.5242 134.88 87.0317 136.329C87.4496 137.524 87.1092 138.696 85.7972 141.385L85.7981 141.386Z" fill="#273F5F"/>
<path d="M76.9048 157.738C76.9048 157.738 76.7904 159.964 76.4342 159.995C76.3872 160 74.6277 160 74.6277 160L72.382 159.985C72.382 159.985 72.3968 159.33 73.0528 159.192C73.7088 159.054 74.8076 158.496 75.2053 157.448C75.6233 156.344 76.9039 157.739 76.9039 157.739L76.9048 157.738Z" fill="#163560"/>
<path d="M82.0707 151.38C82.0707 151.38 83.6225 152.586 83.4722 152.977C83.4519 153.029 82.5947 154.886 82.5947 154.886L81.4885 157.248C81.4885 157.248 81.0235 156.914 81.2431 156.154C81.4636 155.394 81.5964 153.961 81.0327 153.031C80.4395 152.052 82.0707 151.38 82.0707 151.38Z" fill="#163560"/>
<path d="M79.8856 136.123C79.8856 136.123 73.8396 140.674 73.155 143.777C72.4705 146.88 81.312 153.499 81.312 153.499C81.312 153.499 82.2817 152.465 82.4524 151.707C82.4524 151.707 78.4565 145.919 77.5892 144.622C77.0569 143.825 85.4611 141.864 86.488 139.932C87.5149 138.002 87.1467 136.377 87.1467 136.377L79.8856 136.124V136.123Z" fill="#274B79"/>
<path d="M79.2549 146.123H91.2823C91.6781 146.123 92.0001 145.809 92.0001 145.421V142.687C92.0001 142.3 91.6791 141.985 91.2823 141.985H79.2549C78.8591 141.985 78.5371 142.299 78.5371 142.687V145.421C78.5371 145.808 78.8582 146.123 79.2549 146.123Z" fill="#D5E1F5"/>
<path d="M82.807 119.874C82.2045 120.326 81.8733 120.898 81.8733 120.898C83.3421 121.357 85.7778 119.712 85.7778 119.712C85.7778 119.712 84.8321 118.944 84.4825 117.256C84.4649 117.171 84.4483 117.084 84.4345 116.994C84.3884 116.71 84.3597 116.402 84.3551 116.07L83.6807 116.801L82.5588 118.017C82.5588 118.017 82.5846 118.521 82.7248 119.389C82.7488 119.54 82.7774 119.703 82.8097 119.875L82.807 119.874Z" fill="#E49963"/>
<path d="M87.3324 128.259C87.1221 131.681 87.3989 136.884 87.1599 137.785C86.9541 138.562 84.607 138.1 83.6696 137.841C83.3227 137.745 82.9029 137.608 82.4692 137.446C81.2587 136.993 79.9403 136.346 79.7991 135.866C79.7936 135.847 79.789 135.829 79.7862 135.81C79.7733 135.741 79.7761 135.675 79.789 135.609C79.836 135.365 80.0178 135.099 80.039 134.494C80.063 133.817 80.0593 133.02 80.0805 132.164C80.0815 132.067 80.0824 131.962 80.0916 131.866V131.83C80.0916 131.812 80.0925 131.794 80.0935 131.775C80.1138 130.82 80.1553 129.815 80.2033 128.819C80.2337 128.193 80.2688 127.573 80.3094 126.98C80.4145 125.447 80.5575 124.084 80.7458 123.223C81.053 121.818 81.7321 120.902 82.3493 120.231L82.7958 119.768C83.2941 119.9 83.8836 119.812 84.416 119.507C84.9926 119.176 85.1919 118.938 85.2925 119.028C86.6248 120.27 87.5825 124.076 87.3343 128.258L87.3324 128.259Z" fill="#4799A6"/>
<path d="M82.4693 137.445C81.2588 136.992 79.9403 136.345 79.7992 135.865C79.7936 135.846 79.789 135.828 79.7862 135.81C79.7862 135.743 79.7881 135.675 79.789 135.608C79.8361 135.364 80.0178 135.098 80.039 134.493C80.063 133.816 80.0593 133.019 80.0806 132.163C80.0815 132.066 80.0824 131.961 80.0916 131.865V131.83C80.0916 131.812 80.0926 131.793 80.0935 131.775L84.6642 129.268C84.6642 129.268 84.9271 133.722 82.4702 137.444L82.4693 137.445Z" fill="#317B86"/>
<path d="M82.5559 118.016C82.5559 118.016 82.5817 118.521 82.722 119.388C83.8181 118.96 84.3144 117.763 84.4805 117.256C84.5276 117.113 84.5479 117.024 84.5479 117.024C84.5479 117.024 84.5054 117.013 84.4325 116.994C84.2784 116.955 83.9887 116.881 83.6778 116.801L82.5559 118.017V118.016Z" fill="#D68D5D"/>
<path d="M82.1123 118.003C82.1123 118.003 84.5194 118.332 84.6652 116.516C84.811 114.7 85.2206 113.521 83.6891 113.234C82.1584 112.948 81.8032 113.605 81.6325 114.197C81.4618 114.789 81.4886 117.871 82.1114 118.003H82.1123Z" fill="#E49963"/>
<path d="M84.6558 116.642C84.6558 116.642 84.5036 114.232 82.3124 113.982C80.8112 113.811 81.6481 112.249 81.8086 112C81.8086 112 82.9582 112.19 84.1373 112.426C86.6109 112.921 84.8994 116.266 84.6568 116.641L84.6558 116.642Z" fill="#2B478B"/>
<path d="M73.0029 134.133L72.7926 134.216L70.9999 127.545L71.2103 127.462L73.0029 134.133Z" fill="#4A75CB"/>
<path d="M78.8711 133.618L72.7845 133.775L72.7928 134.216L78.8794 134.058L78.8711 133.618Z" fill="#4A75CB"/>
<path d="M78.2176 133.218C78.2176 133.218 77.2729 133.65 76.6344 133.507C75.9959 133.365 74.9654 133.877 74.8196 134.172C74.6729 134.468 74.7458 134.568 75.0604 134.621C75.375 134.674 76.5089 135.088 77.1907 134.669C77.8726 134.25 78.7998 134.114 78.7998 134.114L78.2167 133.217L78.2176 133.218Z" fill="#E49963"/>
<path d="M85.6836 121.88C85.6836 121.88 85.452 131.412 83.7212 132.495C82.8668 133.029 79.0093 134.498 77.8505 134.749C77.8505 134.749 77.5386 134.507 77.5035 133.357C77.5035 133.357 81.4672 130.969 81.9626 129.893C82.6998 128.291 80.8638 123.901 81.8325 122.361C82.8013 120.819 84.5921 119.973 85.6827 121.88H85.6836Z" fill="#4799A6"/>
<path fill-rule="evenodd" clip-rule="evenodd" d="M66.4865 108.637L40.4775 123.835C38.9432 124.731 38 126.375 38 128.152V147.772C38 149.429 39.3431 150.772 41 150.772C41.5319 150.772 42.0543 150.631 42.5135 150.363L68.5225 135.165C70.0568 134.269 71 132.625 71 130.848V111.228C71 109.571 69.6569 108.228 68 108.228C67.4681 108.228 66.9457 108.369 66.4865 108.637Z" fill="#D5E1F5"/>
<path fill-rule="evenodd" clip-rule="evenodd" d="M68.4865 109.637L42.4775 124.835C40.9432 125.731 40 127.375 40 129.152V148.772C40 150.429 41.3431 151.772 43 151.772C43.5319 151.772 44.0543 151.631 44.5135 151.363L70.5225 136.165C72.0568 135.269 73 133.625 73 131.848V112.228C73 110.571 71.6569 109.228 70 109.228C69.4681 109.228 68.9457 109.369 68.4865 109.637Z" fill="url(#paint5_linear_162_443)"/>
<path fill-rule="evenodd" clip-rule="evenodd" d="M69.4852 117.91L57.4852 125.116C57.1842 125.296 57 125.622 57 125.973V138.233C57 138.785 57.4477 139.233 58 139.233C58.1814 139.233 58.3593 139.184 58.5148 139.09L70.5148 131.884C70.8158 131.704 71 131.378 71 131.027V118.767C71 118.215 70.5523 117.767 70 117.767C69.8186 117.767 69.6407 117.816 69.4852 117.91Z" fill="#FCFCFF"/>
<path fill-rule="evenodd" clip-rule="evenodd" d="M62.6996 127.462L60 131.046V131.614L62.6996 133V131.837L61.0796 131.046L62.8571 128.358L62.6996 127.462ZM63.8498 124.692L62.8571 125.036L65.4269 132.308L66.4286 132.069L63.8498 124.692ZM67.1429 124V125.291L68.7345 126.198L67.1429 129.08L67.3436 130.231L70 125.546L67.1429 124Z" fill="url(#paint6_linear_162_443)"/>
<path fill-rule="evenodd" clip-rule="evenodd" d="M68.9672 113.633L56.4776 121.285C56.1809 121.467 56 121.79 56 122.138V122.789C56 123.163 56.3037 123.467 56.6784 123.467C56.8035 123.467 56.9261 123.433 57.0328 123.367L69.5224 115.715C69.8191 115.533 70 115.21 70 114.862V114.211C70 113.837 69.6963 113.533 69.3216 113.533C69.1965 113.533 69.0739 113.567 68.9672 113.633Z" fill="#EEF1FD"/>
<path fill-rule="evenodd" clip-rule="evenodd" d="M54.926 126.64L42.4884 134.045C42.1856 134.225 42 134.552 42 134.904V135.586C42 135.978 42.3181 136.296 42.7105 136.296C42.8385 136.296 42.9641 136.262 43.074 136.196L55.5116 128.791C55.8144 128.61 56 128.284 56 127.932V127.25C56 126.858 55.6819 126.539 55.2895 126.539C55.1615 126.539 55.0359 126.574 54.926 126.64Z" fill="#EEF1FD"/>
<path fill-rule="evenodd" clip-rule="evenodd" d="M48.751 137.831L42.4463 142.023C42.1675 142.209 42 142.521 42 142.856V143.82C42 144.264 42.3599 144.624 42.8039 144.624C42.9623 144.624 43.1171 144.577 43.249 144.489L49.5537 140.297C49.8325 140.111 50 139.799 50 139.464V138.5C50 138.056 49.6401 137.696 49.1961 137.696C49.0377 137.696 48.8829 137.743 48.751 137.831Z" fill="#EEF1FD"/>
<path d="M42.9937 73.2687L78.4962 52.7371C80.3545 51.6624 82.6454 51.6624 84.5037 52.7371L120.006 73.2687C120.962 73.8216 121.289 75.0451 120.736 76.0012C120.561 76.3043 120.309 76.5561 120.006 76.7313L84.5037 97.2629C82.6454 98.3376 80.3545 98.3376 78.4962 97.2629L42.9937 76.7313C42.0375 76.1784 41.7107 74.9549 42.2636 73.9987C42.4389 73.6957 42.6906 73.4439 42.9937 73.2687Z" fill="#EAEFF8"/>
<path fill-rule="evenodd" clip-rule="evenodd" d="M42 64.6359V62.6512L80.553 42.4846C81.1334 42.181 81.8257 42.1809 82.4063 42.4843L121 62.6512V64.6347C121 66.057 120.245 67.3723 119.016 68.0893L84.5058 88.2335C82.6361 89.3249 80.3233 89.3244 78.4541 88.2322L43.982 68.0896C42.7545 67.3724 42 66.0576 42 64.6359Z" fill="url(#paint7_linear_162_443)"/>
<path d="M42.9937 61.2687L78.4962 40.7371C80.3545 39.6624 82.6454 39.6624 84.5037 40.7371L120.006 61.2687C120.962 61.8216 121.289 63.0451 120.736 64.0012C120.561 64.3043 120.309 64.5561 120.006 64.7313L84.5037 85.2629C82.6454 86.3376 80.3545 86.3376 78.4962 85.2629L42.9937 64.7313C42.0375 64.1784 41.7107 62.9549 42.2636 61.9987C42.4389 61.6957 42.6906 61.4439 42.9937 61.2687Z" fill="#F7F9FF"/>
<path d="M103.721 77.8562V86C137.144 108.926 153.855 119.386 153.855 117.379" stroke="url(#paint8_linear_162_443)"/>
<path d="M96.4072 179.482V191C159.375 157.884 190.859 140.323 190.859 138.317" stroke="url(#paint9_linear_162_443)"/>
<path d="M316.798 178.205L305.728 187.191L265.576 164.658L293.075 145.955L256.397 127.892" stroke="url(#paint10_linear_162_443)"/>
<path d="M329 94.716L308.241 105.643L261.853 78L238.339 91.9464" stroke="url(#paint11_linear_162_443)"/>
<path opacity="0.6" d="M148.168 142.555L211.449 105.468C213.024 104.545 214.975 104.545 216.55 105.468L279.832 142.555C280.633 143.025 280.902 144.055 280.432 144.856C280.287 145.104 280.08 145.311 279.832 145.457L216.55 182.544C214.975 183.467 213.024 183.467 211.449 182.544L148.168 145.457C147.367 144.987 147.098 143.957 147.567 143.156C147.713 142.908 147.92 142.701 148.168 142.555Z" fill="#DEE6F4"/>
<path d="M147.763 128.066V124.27L213.69 89.8283C214.185 89.5701 214.775 89.5737 215.266 89.8379L280.229 124.789V128.586C280.229 129.774 279.603 130.873 278.581 131.479L217.051 167.957C215.466 168.897 213.495 168.898 211.909 167.959L149.413 130.96C148.39 130.355 147.763 129.255 147.763 128.066Z" fill="#D5E1F5"/>
<path d="M148.168 123.839L211.449 86.751C213.024 85.8279 214.975 85.8279 216.55 86.751L279.832 123.839C280.633 124.308 280.902 125.338 280.432 126.139C280.287 126.388 280.08 126.594 279.832 126.74L216.55 163.827C214.975 164.75 213.024 164.75 211.449 163.827L148.168 126.74C147.367 126.27 147.098 125.24 147.567 124.439C147.713 124.191 147.92 123.984 148.168 123.839Z" fill="white"/>
<path opacity="0.43" d="M266.544 18H162.507V122.037H266.544V18Z" fill="url(#paint12_linear_162_443)"/>
<mask id="mask1_162_443" style="mask-type:alpha" maskUnits="userSpaceOnUse" x="161" y="90" width="107" height="65">
<path d="M163.103 120.313L210.477 91.8889C212.969 90.3937 216.082 90.3937 218.574 91.8889L265.948 120.313C267.19 121.059 267.593 122.67 266.848 123.912C266.626 124.281 266.317 124.59 265.948 124.812L218.574 153.236C216.082 154.731 212.969 154.731 210.477 153.236L163.103 124.812C161.861 124.066 161.458 122.455 162.203 121.213C162.425 120.844 162.734 120.535 163.103 120.313Z" fill="white"/>
</mask>
<g mask="url(#mask1_162_443)">
<path d="M163.103 120.313L210.477 91.8889C212.969 90.3937 216.082 90.3937 218.574 91.8889L265.948 120.313C267.19 121.059 267.593 122.67 266.848 123.912C266.626 124.281 266.317 124.59 265.948 124.812L218.574 153.236C216.082 154.731 212.969 154.731 210.477 153.236L163.103 124.812C161.861 124.066 161.458 122.455 162.203 121.213C162.425 120.844 162.734 120.535 163.103 120.313Z" fill="url(#paint13_linear_162_443)"/>
</g>
<path d="M176.155 119.886V113.354L213.352 97.9737C213.763 97.8037 214.225 97.8036 214.636 97.9734L251.873 113.354V119.885C251.873 121.076 251.242 122.178 250.216 122.783L216.554 142.598C214.974 143.528 213.014 143.528 211.435 142.597L177.81 122.783C176.784 122.178 176.155 121.076 176.155 119.886Z" fill="#EAEFFD"/>
<path d="M177 111L212.517 90.9317C214.084 90.0216 216.018 90.0216 217.585 90.9317L250.748 111.351C251.551 111.818 251.823 112.847 251.357 113.65C251.21 113.902 251 114.112 250.748 114.259L217.585 134.385C216.018 135.295 214.084 135.295 212.517 134.385L177 113.908C176.197 113.441 175.924 112.412 176.391 111.609C176.537 111.357 176.747 111.147 177 111Z" fill="#F3F5FE"/>
<g opacity="0.8">
<path fill-rule="evenodd" clip-rule="evenodd" d="M244.391 101.297L196.647 54.6669C196.302 54.3294 195.853 54.1178 195.372 54.066L193.492 53.8635L183.77 66.0027C183.087 66.8563 183.154 68.0861 183.926 68.8606L229.046 114.096C229.45 114.501 230 114.729 230.573 114.729L231.945 114.729C232.528 114.729 233.087 114.492 233.493 114.074L244.412 102.812C244.824 102.387 244.815 101.71 244.391 101.297Z" fill="url(#paint14_linear_162_443)"/>
<mask id="mask2_162_443" style="mask-type:alpha" maskUnits="userSpaceOnUse" x="180" y="54" width="63" height="61">
<path d="M242.136 100.992L194.642 54.9557C193.791 54.1308 192.431 54.148 191.602 54.9943L180.863 65.947C180.031 66.7954 180.046 68.1562 180.896 68.9863C180.902 68.9921 180.908 68.9978 180.914 69.0036L228.176 114.09C229.036 114.91 230.399 114.879 231.221 114.021C231.223 114.019 231.225 114.017 231.227 114.015L242.167 102.502C242.573 102.075 242.559 101.402 242.136 100.992Z" fill="url(#paint15_linear_162_443)"/>
</mask>
<g mask="url(#mask2_162_443)">
<path fill-rule="evenodd" clip-rule="evenodd" d="M244.391 101.297L196.647 54.6669C196.302 54.3294 195.853 54.1178 195.372 54.066L193.492 53.8635L183.77 66.0027C183.087 66.8563 183.154 68.0861 183.926 68.8606L229.046 114.096C229.45 114.501 230 114.729 230.573 114.729L231.945 114.729C232.528 114.729 233.087 114.492 233.493 114.074L244.412 102.812C244.824 102.387 244.815 101.71 244.391 101.297Z" fill="url(#paint16_linear_162_443)"/>
<path d="M242.136 100.992L194.642 54.9557C193.791 54.1308 192.431 54.148 191.602 54.9943L180.863 65.947C180.031 66.7954 180.046 68.1562 180.896 68.9863C180.902 68.9921 180.908 68.9978 180.914 69.0036L228.176 114.09C229.036 114.91 230.399 114.879 231.221 114.021C231.223 114.019 231.225 114.017 231.227 114.015L242.167 102.502C242.573 102.075 242.559 101.402 242.136 100.992Z" fill="url(#paint17_linear_162_443)"/>
<path d="M223.544 103.16L218.307 108.571L217.533 107.825L222.769 102.414L223.544 103.16ZM200.929 80.593L195.692 86.0042L194.917 85.2577L200.154 79.8465L200.929 80.593ZM221.481 91.1695L211.755 101.219L210.981 100.472L220.706 90.423L221.481 91.1695ZM212.775 91.3393L207.538 96.7505L206.763 96.004L212 90.5928L212.775 91.3393ZM178.313 58.0259L173.077 63.437L172.302 62.6905L177.539 57.2794L178.313 58.0259ZM209.544 88.1154L204.307 93.5266L203.533 92.7801L208.769 87.3689L209.544 88.1154ZM233.327 101.916L223.602 111.965L222.827 111.219L232.552 101.169L233.327 101.916ZM198.865 68.6023L189.14 78.6516L188.365 77.9051L198.091 67.8558L198.865 68.6023ZM232.159 109.608L226.923 115.019L226.148 114.273L231.385 108.861L232.159 109.608ZM197.698 76.2945L192.461 81.7057L191.687 80.9592L196.923 75.548L197.698 76.2945ZM190.159 68.7721L184.923 74.1833L184.148 73.4368L189.385 68.0256L190.159 68.7721ZM221.39 98.8617L216.154 104.273L215.379 103.526L220.616 98.1152L221.39 98.8617ZM186.929 65.5483L181.692 70.9594L180.917 70.2129L186.154 64.8018L186.929 65.5483ZM248.313 124.653L243.077 130.064L242.302 129.317L247.539 123.906L248.313 124.653ZM244.096 111.587L234.371 121.637L233.596 120.89L243.321 110.841L244.096 111.587ZM210.711 79.3486L200.986 89.3979L200.212 88.6514L209.937 78.6021L210.711 79.3486ZM244.006 120.354L238.769 125.765L237.994 125.019L243.231 119.608L244.006 120.354ZM175.173 44.9605L165.448 55.0098L164.673 54.2633L174.398 44.214L175.173 44.9605ZM175.083 53.7274L169.846 59.1385L169.071 58.392L174.308 52.9809L175.083 53.7274ZM236.467 112.832L231.23 118.243L230.456 117.496L235.692 112.085L236.467 112.832ZM188.096 56.7814L178.371 66.8307L177.596 66.0842L187.321 56.0349L188.096 56.7814Z" fill="white"/>
<path opacity="0.177987" fill-rule="evenodd" clip-rule="evenodd" d="M221.03 127L267.562 83.2972L211.539 31L164 74.3728L221.03 127Z" fill="#277C7B"/>
<path opacity="0.177987" fill-rule="evenodd" clip-rule="evenodd" d="M214.367 101.76L230.739 86.027L211.028 67.2L194.301 82.8142L214.367 101.76Z" fill="#277C7B"/>
</g>
</g>
<mask id="mask3_162_443" style="mask-type:alpha" maskUnits="userSpaceOnUse" x="181" y="52" width="65" height="64">
<path d="M181.568 115.143L184.415 98.7598L230.019 53.3536C230.861 52.515 232.225 52.5165 233.064 53.3569C233.065 53.3581 233.066 53.3593 233.068 53.3605L244.492 64.851C245.33 65.6934 245.325 67.0545 244.48 67.8911C244.477 67.8942 244.474 67.8972 244.471 67.9002L198.282 113.126L181.568 115.143Z" fill="white"/>
</mask>
<g mask="url(#mask3_162_443)">
<path d="M181.568 115.136L184.413 98.7547L230.017 53.3588C230.859 52.5203 232.223 52.522 233.062 53.3624C233.064 53.3636 233.065 53.3648 233.066 53.366L244.494 64.8568C245.331 65.6992 245.326 67.0602 244.482 67.8966C244.479 67.8997 244.476 67.9027 244.473 67.9057L198.284 113.121L181.568 115.136Z" fill="url(#paint18_linear_162_443)"/>
<path fill-rule="evenodd" clip-rule="evenodd" d="M188.557 103.064L193.857 108.581L238.101 66.3056L232.39 61.0256L188.557 103.064Z" fill="url(#paint19_linear_162_443)"/>
<path fill-rule="evenodd" clip-rule="evenodd" d="M188.555 103.063L232.389 61.0252L224.63 53.7674L179.555 98.4161L188.555 103.063Z" fill="url(#paint20_linear_162_443)"/>
<path fill-rule="evenodd" clip-rule="evenodd" d="M184.413 98.7477L199.618 114.474L181.25 119.655L175.94 113.804L184.413 98.7477Z" fill="#D5E1F5"/>
<path fill-rule="evenodd" clip-rule="evenodd" d="M182.582 109.183L189.823 117.442L179.445 118.148L178.697 110.653L182.582 109.183Z" fill="#273F5F"/>
<path opacity="0.2" fill-rule="evenodd" clip-rule="evenodd" d="M193.858 108.573L181.568 115.129L180.642 119.477L199.62 114.474L193.858 108.573Z" fill="black"/>
<path d="M226.343 57.6949L241.892 73.8342L247.889 66.7237L232.147 50.484L224.787 56.6148L226.343 57.6949Z" fill="url(#paint21_linear_162_443)"/>
<path opacity="0.1" fill-rule="evenodd" clip-rule="evenodd" d="M193.856 108.574L181.567 115.129L188.557 103.057L193.856 108.574Z" fill="black"/>
</g>
<g opacity="0.67">
<path fill-rule="evenodd" clip-rule="evenodd" d="M140.202 42L130 47.6115L140.202 53.5993L149.951 47.6115L140.202 42Z" fill="url(#paint22_linear_162_443)"/>
<path fill-rule="evenodd" clip-rule="evenodd" d="M139.976 53.5993V73L130 67.1284V47.6115L139.976 53.5993Z" fill="url(#paint23_linear_162_443)"/>
<path fill-rule="evenodd" clip-rule="evenodd" d="M140.024 53.5993V73L150 67.1284V47.6115L140.024 53.5993Z" fill="url(#paint24_linear_162_443)"/>
</g>
<path fill-rule="evenodd" clip-rule="evenodd" d="M169.202 179L159 184.612L169.202 190.599L178.951 184.612L169.202 179Z" fill="url(#paint25_linear_162_443)"/>
<path fill-rule="evenodd" clip-rule="evenodd" d="M168.976 190.599V210L159 204.128V184.612L168.976 190.599Z" fill="url(#paint26_linear_162_443)"/>
<path fill-rule="evenodd" clip-rule="evenodd" d="M169.024 190.599V210L179 204.128V184.612L169.024 190.599Z" fill="url(#paint27_linear_162_443)"/>
<path fill-rule="evenodd" clip-rule="evenodd" d="M381.202 115L371 120.612L381.202 126.599L390.951 120.612L381.202 115Z" fill="url(#paint28_linear_162_443)"/>
<path fill-rule="evenodd" clip-rule="evenodd" d="M380.976 126.599V146L371 140.128V120.612L380.976 126.599Z" fill="url(#paint29_linear_162_443)"/>
<path fill-rule="evenodd" clip-rule="evenodd" d="M381.024 126.599V146L391 140.128V120.612L381.024 126.599Z" fill="url(#paint30_linear_162_443)"/>
<path fill-rule="evenodd" clip-rule="evenodd" d="M127.671 122L120 126.354L127.671 131L135 126.354L127.671 122Z" fill="url(#paint31_linear_162_443)"/>
<path fill-rule="evenodd" clip-rule="evenodd" d="M128 130.717V146L120 141.375V126L128 130.717Z" fill="url(#paint32_linear_162_443)"/>
<path fill-rule="evenodd" clip-rule="evenodd" d="M128 130.717V146L136 141.375V126L128 130.717Z" fill="url(#paint33_linear_162_443)"/>
<path fill-rule="evenodd" clip-rule="evenodd" d="M58.3027 60.3029V56.76L80.5162 47.678C80.8265 47.5511 81.1742 47.551 81.4845 47.6778L103.721 56.76V60.3021C103.721 61.2135 103.237 62.0561 102.449 62.5146L82.9331 73.8749C81.7385 74.5703 80.2623 74.57 79.068 73.8741L59.5739 62.5148C58.7868 62.0561 58.3027 61.2138 58.3027 60.3029Z" fill="url(#paint34_linear_162_443)"/>
<path d="M58.937 55.6496L79.0903 44.095C80.2732 43.4168 81.7272 43.4168 82.9102 44.095L103.063 55.6496C103.677 56.0012 103.889 56.7834 103.537 57.3967C103.424 57.5939 103.261 57.7574 103.063 57.8704L82.9102 69.425C81.7272 70.1032 80.2732 70.1032 79.0903 69.425L58.937 57.8704C58.3237 57.5188 58.1116 56.7366 58.4632 56.1234C58.5763 55.9262 58.7398 55.7626 58.937 55.6496Z" fill="#F7F9FF"/>
<path fill-rule="evenodd" clip-rule="evenodd" d="M58.3027 50.3029V46.76L80.5162 37.678C80.8265 37.5511 81.1742 37.551 81.4845 37.6778L103.721 46.76V50.3021C103.721 51.2135 103.237 52.0561 102.449 52.5146L82.9331 63.8749C81.7385 64.5703 80.2623 64.57 79.068 63.8741L59.5739 52.5148C58.7868 52.0561 58.3027 51.2138 58.3027 50.3029Z" fill="url(#paint35_linear_162_443)"/>
<path d="M58.937 45.6496L79.0903 34.095C80.2732 33.4168 81.7272 33.4168 82.9102 34.095L103.063 45.6496C103.677 46.0012 103.889 46.7834 103.537 47.3967C103.424 47.5939 103.261 47.7574 103.063 47.8704L82.9102 59.425C81.7272 60.1032 80.2732 60.1032 79.0903 59.425L58.937 47.8704C58.3237 47.5188 58.1116 46.7366 58.4632 46.1234C58.5763 45.9262 58.7398 45.7626 58.937 45.6496Z" fill="#F7F9FF"/>
<path fill-rule="evenodd" clip-rule="evenodd" d="M58.3027 40.3029V36.76L80.5162 27.678C80.8265 27.5511 81.1742 27.551 81.4845 27.6778L103.721 36.76V40.3021C103.721 41.2135 103.237 42.0561 102.449 42.5146L82.9331 53.8749C81.7385 54.5703 80.2623 54.57 79.068 53.874L59.5739 42.5147C58.7868 42.0561 58.3027 41.2138 58.3027 40.3029Z" fill="url(#paint36_linear_162_443)"/>
<path d="M58.937 35.6496L79.0903 24.095C80.2732 23.4168 81.7272 23.4168 82.9102 24.095L103.063 35.6496C103.677 36.0012 103.889 36.7834 103.537 37.3967C103.424 37.5939 103.261 37.7574 103.063 37.8704L82.9102 49.425C81.7272 50.1032 80.2732 50.1032 79.0903 49.425L58.937 37.8704C58.3237 37.5188 58.1116 36.7366 58.4632 36.1234C58.5763 35.9262 58.7398 35.7626 58.937 35.6496Z" fill="#F7F9FF"/>
<path fill-rule="evenodd" clip-rule="evenodd" d="M81.6706 26L74 30.354L81.6706 35L89 30.354L81.6706 26Z" fill="url(#paint37_linear_162_443)"/>
<path fill-rule="evenodd" clip-rule="evenodd" d="M82 34.7169V41L74 36.3746V30L82 34.7169Z" fill="url(#paint38_linear_162_443)"/>
<path fill-rule="evenodd" clip-rule="evenodd" d="M82 34.7169V41L89 37.002V30.354L82 34.7169Z" fill="url(#paint39_linear_162_443)"/>
<path d="M284.022 87.2654L335.513 57.714C337.363 56.6525 339.637 56.6525 341.487 57.714L392.977 87.2654C393.935 87.8152 394.266 89.0375 393.717 89.9955C393.54 90.3031 393.285 90.5581 392.977 90.7346L341.487 120.286C339.637 121.347 337.363 121.347 335.513 120.286L284.022 90.7346C283.064 90.1848 282.733 88.9625 283.283 88.0045C283.46 87.697 283.715 87.4419 284.022 87.2654Z" fill="#EAEFF8"/>
<path d="M284 75.9813V72.3954L337.548 44.4817C338.127 44.1798 338.817 44.1797 339.396 44.4813L393 72.3954V75.9801C393 77.4045 392.243 78.7214 391.011 79.4376L341.49 108.244C339.624 109.33 337.319 109.329 335.454 108.243L285.987 79.4379C284.757 78.7215 284 77.405 284 75.9813Z" fill="#D5E1F5"/>
<path d="M284.022 70.2654L335.513 40.714C337.363 39.6525 339.637 39.6525 341.487 40.714L392.977 70.2654C393.935 70.8152 394.266 72.0375 393.717 72.9955C393.54 73.3031 393.285 73.5581 392.977 73.7346L341.487 103.286C339.637 104.347 337.363 104.347 335.513 103.286L284.022 73.7346C283.064 73.1848 282.733 71.9625 283.283 71.0045C283.46 70.697 283.715 70.4419 284.022 70.2654Z" fill="#F7F9FF"/>
<path d="M326 67.0349L341.531 58.5262C342.129 58.1984 342.854 58.1982 343.452 58.5258L359 67.0349C359 68.1981 358.395 69.2776 357.402 69.8843L345.623 77.0858C343.701 78.2607 341.283 78.2602 339.361 77.0843L327.597 69.885C326.605 69.2778 326 68.1982 326 67.0349Z" fill="#D5E1F5"/>
<path d="M327.064 64.7606L339.538 57.6809C341.375 56.6384 343.625 56.6384 345.461 57.6809L357.935 64.7606C358.896 65.3059 359.233 66.5266 358.687 67.4872C358.509 67.8012 358.249 68.0612 357.935 68.2394L345.461 75.3191C343.625 76.3616 341.375 76.3616 339.538 75.3191L327.064 68.2394C326.104 67.6942 325.767 66.4734 326.312 65.5128C326.49 65.1988 326.75 64.9389 327.064 64.7606Z" fill="#F7F9FF"/>
<path fill-rule="evenodd" clip-rule="evenodd" d="M326.515 15.6403L366.524 39.04C368.058 39.9368 369 41.5797 369 43.356V74.7701C369 76.4269 367.657 77.77 366 77.77C365.468 77.77 364.945 77.6284 364.485 77.3597L324.476 53.96C322.942 53.0632 322 51.4203 322 49.644V18.23C322 16.5731 323.343 15.23 325 15.23C325.532 15.23 326.055 15.3716 326.515 15.6403Z" fill="#EAEFF8"/>
<path fill-rule="evenodd" clip-rule="evenodd" d="M323 16.73C323.444 16.73 323.879 16.848 324.262 17.0719L364.272 40.4716C365.652 41.2787 366.5 42.7573 366.5 44.356V75.7701C366.5 76.4604 366.22 77.0854 365.768 77.5378C365.315 77.9902 364.69 78.27 364 78.27C363.556 78.27 363.121 78.152 362.738 77.9281L322.728 54.5284C321.348 53.7213 320.5 52.2427 320.5 50.644V19.23C320.5 18.5396 320.78 17.9146 321.232 17.4622C321.685 17.0098 322.31 16.73 323 16.73Z" fill="#FEFFFE" stroke="#D5E1F5"/>
<path fill-rule="evenodd" clip-rule="evenodd" d="M327.53 31.7935L340.283 39.3527C341.802 40.2531 342.733 41.888 342.733 43.6539V55.8429C342.733 57.4997 341.39 58.8429 339.733 58.8429C339.195 58.8429 338.666 58.698 338.203 58.4236L325.451 50.8644C323.931 49.9639 323 48.329 323 46.5632V34.3742C323 32.7173 324.343 31.3742 326 31.3742C326.538 31.3742 327.067 31.519 327.53 31.7935Z" fill="url(#paint40_linear_162_443)"/>
<path fill-rule="evenodd" clip-rule="evenodd" d="M336.221 44L340 49.1773V49.9973L336.221 52V50.3202L338.489 49.1773L336 45.2951L336.221 44ZM334.61 40L336 40.4961L332.402 51L331 50.6558L334.61 40ZM330 39V40.8649L327.772 42.1743L330 46.3381L329.719 48L326 41.2333L330 39Z" fill="#FEFFFE"/>
<path fill-rule="evenodd" clip-rule="evenodd" d="M325.421 23.9507L343.243 34.5147C343.547 34.6948 343.733 35.0218 343.733 35.375V36.4569C343.733 36.9766 343.312 37.3979 342.792 37.3979C342.623 37.3979 342.458 37.3524 342.312 37.2664L324.49 26.7023C324.186 26.5222 324 26.1953 324 25.8421V24.7602C324 24.2405 324.421 23.8192 324.941 23.8192C325.11 23.8192 325.276 23.8646 325.421 23.9507Z" fill="#EEF1FD"/>
<path fill-rule="evenodd" clip-rule="evenodd" d="M345.51 43.0035L363.243 53.5147C363.547 53.6948 363.733 54.0218 363.733 54.375V59.9976C363.733 60.5499 363.285 60.9976 362.733 60.9976C362.554 60.9976 362.378 60.9493 362.223 60.8578L344.49 50.3466C344.186 50.1665 344 49.8395 344 49.4864V43.8638C344 43.3115 344.448 42.8638 345 42.8638C345.179 42.8638 345.356 42.912 345.51 43.0035Z" fill="#EEF1FD"/>
<path fill-rule="evenodd" clip-rule="evenodd" d="M345.535 53.0794L355.301 59.258C355.591 59.4413 355.766 59.7603 355.766 60.1031V65.684C355.766 66.2363 355.319 66.684 354.766 66.684C354.577 66.684 354.392 66.6303 354.232 66.5291L344.465 60.3505C344.176 60.1672 344 59.8483 344 59.5054V53.9245C344 53.3722 344.448 52.9245 345 52.9245C345.189 52.9245 345.375 52.9782 345.535 53.0794Z" fill="#EEF1FD"/>
<path d="M320.733 55.2678C320.733 55.2678 317.179 58.8931 317.011 60.2572C316.843 61.6214 318.714 63.7516 318.714 63.7516L320.733 55.2678Z" fill="#317B86"/>
<path d="M322.795 85.038C322.795 85.038 322.908 86.9604 323.249 86.9875C323.294 86.9912 324.975 86.9875 324.975 86.9875L327.122 86.9686C327.122 86.9686 327.107 86.4031 326.479 86.2856C325.851 86.1673 324.8 85.6885 324.418 84.7833C324.016 83.8311 322.794 85.0389 322.794 85.0389L322.795 85.038Z" fill="#062646"/>
<path d="M318.014 85.0489C318.014 85.0489 318.128 86.9722 318.468 86.9984C318.513 87.002 320.195 86.9984 320.195 86.9984L322.341 86.9794C322.341 86.9794 322.326 86.4139 321.698 86.2965C321.07 86.1781 320.019 85.6993 319.637 84.7941C319.235 83.842 318.014 85.0498 318.014 85.0498L318.014 85.0489Z" fill="#062646"/>
<path d="M324.89 69.2115C324.89 69.2115 324.355 72.1791 322.344 77.4489C320.333 82.7188 320.063 85 320.063 85L317.891 84.9522C317.891 84.9522 317.858 79.1974 318.785 76.5474C319.711 73.8974 318.962 67 318.962 67L324.891 69.2122L324.89 69.2115Z" fill="#273F5F"/>
<path d="M325.889 67C325.889 67 325.973 71.5086 325.124 77.0464C324.274 82.5842 324.573 84.9339 324.573 84.9339L322.506 85C322.506 85 321.258 79.4643 321.605 76.6923C321.953 73.9203 319.891 67.1874 319.891 67.1874L325.889 67Z" fill="#274B79"/>
<path d="M321.291 55.6084L322.62 56.4612L324.537 56.1053C324.51 55.9526 324.382 55.322 324.266 54.7502C324.259 54.7168 324.252 54.6824 324.246 54.6499C324.146 54.1639 324.059 53.7456 324.059 53.7456L322.266 52.9723L321.597 52.6841C321.599 52.6941 321.65 53.2244 321.658 53.3011C321.786 54.6743 321.291 55.6075 321.291 55.6075L321.291 55.6084Z" fill="#FFAE73"/>
<path d="M324.044 55.1712C324.007 55.1558 321.733 54.5008 321.486 54.5822C321.239 54.6626 321.094 55.1332 321.094 55.1332L324.812 55.9517C324.812 55.9517 324.519 55.3672 324.043 55.1712H324.044Z" fill="#317B86"/>
<path d="M317.992 67.795C318.394 69.2624 325.017 69.4242 326.721 68.0896C326.914 67.9377 326.922 67.2305 326.847 66.2786C326.699 64.4177 326.231 61.6188 326.21 60.1882C326.199 59.4979 326.08 58.7914 325.922 58.1502C325.586 56.7833 325.075 55.7118 325.075 55.7118C325.075 55.7118 321.838 54.8718 321.233 55.0168C318.319 55.7148 317.591 66.3292 317.993 67.7958L317.992 67.795Z" fill="#4799A6"/>
<path d="M326.529 64.7993C326.385 63.4041 325.933 61.3056 325.912 60.2331C325.902 59.7155 325.786 59.1859 325.634 58.7051L323.749 58.4993C323.749 58.4993 321.924 63.212 326.529 64.7987V64.7993Z" fill="#317B86"/>
<path d="M325.502 65.3433C325.502 65.3433 325.375 65.6451 325.645 65.8474C325.915 66.0498 326.09 66.3777 326.03 66.618C325.968 66.8583 325.377 67.2513 325.172 67.1881C324.968 67.1257 324.549 66.8105 324.594 66.6831C324.639 66.5566 324.311 65.5728 324.81 65.1925C325.309 64.8122 325.503 65.3424 325.503 65.3424L325.502 65.3433Z" fill="#FFAE73"/>
<path d="M323.373 55.5108C323.373 55.5108 325.211 55.8451 326.68 57.9635C328.148 60.082 329.115 61.6575 328.846 62.4236C328.578 63.1888 326.126 65.8465 325.703 65.8474C325.279 65.8483 324.595 65.5466 324.556 64.8645C324.556 64.8645 326.28 62.3098 325.939 61.9285C325.793 61.7659 323.688 60.0919 323.39 60.8508C322.896 62.1056 323.374 55.5108 323.374 55.5108H323.373Z" fill="#4799A6"/>
<path d="M321.791 53.3255C322.186 53.9805 323.654 54.5442 324.265 54.7511C324.257 54.7177 324.251 54.6833 324.244 54.6508C324.144 54.1648 324.058 53.7465 324.058 53.7465L322.265 52.9732C321.869 52.9687 321.627 53.0563 321.79 53.3255H321.791Z" fill="#FFA05E"/>
<path d="M324.734 53.6381C324.734 53.6381 321.85 54.5298 321.313 52.7546C320.776 50.9794 320.042 49.899 321.861 49.2549C323.679 48.6107 324.244 49.1826 324.569 49.7319C324.895 50.2811 325.47 53.3599 324.733 53.6372L324.734 53.6381Z" fill="#FFAE73"/>
<path d="M324.456 49.5611C324.456 49.5611 324.276 51.6281 323.842 51.5395C323.407 51.451 323.013 51.3851 323.078 52.0084C323.143 52.6317 323.747 53.3499 322.408 53.4629C321.07 53.5758 319.137 50.1826 319.503 49.5385C320.56 47.6802 325.985 47.2945 324.456 49.5611Z" fill="#0B3563"/>
<path d="M293.953 173.273L320.472 157.77C322.342 156.677 324.657 156.677 326.528 157.77L353.047 173.273C354 173.831 354.321 175.056 353.764 176.009C353.59 176.306 353.343 176.553 353.047 176.727L326.528 192.23C324.657 193.323 322.342 193.323 320.472 192.23L293.953 176.727C293 176.169 292.679 174.944 293.236 173.991C293.41 173.694 293.657 173.447 293.953 173.273Z" fill="#EAEFF8"/>
<path fill-rule="evenodd" clip-rule="evenodd" d="M293 166.452V160.032L323.306 149.241C323.744 149.085 324.223 149.087 324.66 149.246L354.299 160.032V166.477C354.299 167.88 353.565 169.18 352.364 169.904L327.047 185.155C325.16 186.292 322.802 186.303 320.904 185.184L294.969 169.898C293.749 169.179 293 167.868 293 166.452Z" fill="url(#paint41_linear_162_443)"/>
<path d="M293.953 157.273L320.472 141.77C322.342 140.677 324.657 140.677 326.528 141.77L353.047 157.273C354 157.831 354.321 159.056 353.764 160.009C353.59 160.306 353.343 160.553 353.047 160.727L326.528 176.23C324.657 177.323 322.342 177.323 320.472 176.23L293.953 160.727C293 160.169 292.679 158.944 293.236 157.991C293.41 157.694 293.657 157.447 293.953 157.273Z" fill="#F7F9FF"/>
<path fill-rule="evenodd" clip-rule="evenodd" d="M324.486 117.637L298.477 132.835C296.943 133.731 296 135.375 296 137.152V156.772C296 158.429 297.343 159.772 299 159.772C299.532 159.772 300.054 159.631 300.514 159.363L326.523 144.165C328.057 143.269 329 141.625 329 139.848V120.228C329 118.571 327.657 117.228 326 117.228C325.468 117.228 324.946 117.369 324.486 117.637Z" fill="#EAEFF8"/>
<path fill-rule="evenodd" clip-rule="evenodd" d="M328 118.728C327.557 118.728 327.121 118.845 326.739 119.069L300.73 134.267C299.349 135.074 298.5 136.553 298.5 138.152V157.772C298.5 158.463 298.78 159.088 299.232 159.54C299.685 159.993 300.31 160.272 301 160.272C301.443 160.272 301.879 160.155 302.261 159.931L328.27 144.733C329.651 143.926 330.5 142.447 330.5 140.848V121.228C330.5 120.537 330.22 119.912 329.768 119.46C329.315 119.007 328.69 118.728 328 118.728Z" fill="#FEFFFE" stroke="#D5E1F5"/>
<path fill-rule="evenodd" clip-rule="evenodd" d="M327.485 126.91L315.485 134.116C315.184 134.296 315 134.622 315 134.973V147.233C315 147.785 315.448 148.233 316 148.233C316.181 148.233 316.359 148.184 316.515 148.09L328.515 140.884C328.816 140.704 329 140.378 329 140.027V127.767C329 127.215 328.552 126.767 328 126.767C327.819 126.767 327.641 126.816 327.485 126.91Z" fill="url(#paint42_linear_162_443)"/>
<path fill-rule="evenodd" clip-rule="evenodd" d="M320.7 136.462L318 140.046V140.614L320.7 142V140.837L319.08 140.046L320.857 137.358L320.7 136.462ZM321.85 133.692L320.857 134.036L323.427 141.308L324.429 141.069L321.85 133.692ZM325.143 133V134.291L326.735 135.198L325.143 138.08L325.344 139.231L328 134.546L325.143 133Z" fill="#FEFFFE"/>
<path fill-rule="evenodd" clip-rule="evenodd" d="M326.967 122.633L314.478 130.285C314.181 130.467 314 130.79 314 131.138V131.789C314 132.163 314.304 132.467 314.678 132.467C314.803 132.467 314.926 132.433 315.033 132.367L327.522 124.715C327.819 124.533 328 124.21 328 123.862V123.211C328 122.837 327.696 122.533 327.322 122.533C327.197 122.533 327.074 122.567 326.967 122.633Z" fill="#EEF1FD"/>
<path fill-rule="evenodd" clip-rule="evenodd" d="M312.488 135.9L300.488 143.045C300.186 143.225 300 143.552 300 143.904V147.241C300 147.793 300.448 148.241 301 148.241C301.18 148.241 301.357 148.192 301.512 148.1L313.512 140.955C313.814 140.775 314 140.448 314 140.096V136.759C314 136.207 313.552 135.759 313 135.759C312.82 135.759 312.643 135.808 312.488 135.9Z" fill="#EEF1FD"/>
<path fill-rule="evenodd" clip-rule="evenodd" d="M311.446 144.033L305.446 148.023C305.168 148.209 305 148.521 305 148.856V152.134C305 152.686 305.448 153.134 306 153.134C306.197 153.134 306.39 153.076 306.554 152.967L312.554 148.977C312.832 148.791 313 148.479 313 148.144V144.866C313 144.314 312.552 143.866 312 143.866C311.803 143.866 311.61 143.924 311.446 144.033Z" fill="#EEF1FD"/>
<path d="M334.151 165.975C334.151 165.975 334.235 165.064 334.429 164.522C334.624 163.98 335.861 164.325 335.861 164.325C335.861 164.325 336.108 164.621 336.161 166L334.151 165.975Z" fill="#233862"/>
<path d="M329.937 165.962C330.228 165.715 330.062 163.871 330.062 163.871C330.062 163.871 328.708 162.36 328.521 163.517C328.335 164.673 327.234 165.193 326.608 165.334C326.175 165.432 326.042 165.766 326 165.963H329.936L329.937 165.962Z" fill="#233862"/>
<path d="M332.889 156.055C332.83 156.357 332.793 156.605 332.784 156.783C332.65 159.228 330.593 164.816 330.225 164.947C329.656 165.149 328.759 164.72 328.291 164.579C328.097 164.521 327.965 164.337 328.008 164.15C329.027 159.751 329.402 153.417 329.538 149.666C329.607 147.777 329.952 146.472 329.952 146.472C329.952 146.472 334.97 145.215 335 146.805C335.026 148.212 333.338 153.733 332.891 156.055H332.889Z" fill="#273F5F"/>
<path d="M333.069 157L330 150.646C330.063 148.767 330.379 147.469 330.379 147.469C330.379 147.469 334.973 146.219 335 147.8C335.024 149.2 333.478 154.691 333.069 157Z" fill="#233862"/>
<path d="M332 146.581L334.356 164.864C334.356 164.864 335.391 165.131 336.196 164.917C336.196 164.917 336.886 155.194 336.828 152.843C336.771 150.492 337.323 146.553 336.702 146.119C336.081 145.684 332 146.582 332 146.582V146.581Z" fill="#274B79"/>
<path d="M337.51 141.398L337.869 145.722C337.883 145.884 337.762 146.033 337.58 146.078C337.178 146.178 336.715 146.248 335.82 146.408C334.981 146.558 333.85 146.691 332.462 146.698C330.253 146.71 329.417 146.055 329.417 146.055C329.322 146.056 329.468 145.658 329.599 143.763C329.643 143.122 329.686 142.309 329.717 141.281C329.745 140.356 329.763 139.257 329.765 137.954C329.767 136.386 332.584 134.699 332.636 134.699C332.636 134.925 333.049 135.342 333.685 135.378C334.44 135.42 335.366 135.096 335.366 134.722C335.366 134.718 336.731 136.603 337.215 138.611C337.277 138.866 337.324 139.134 337.362 139.417C337.362 139.421 337.363 139.425 337.364 139.429C337.371 139.481 337.378 139.533 337.385 139.586C337.386 139.595 337.387 139.604 337.388 139.613C337.394 139.661 337.399 139.709 337.404 139.757C337.405 139.771 337.407 139.786 337.408 139.799C337.413 139.843 337.417 139.888 337.421 139.932C337.421 139.936 337.421 139.94 337.422 139.944C337.425 139.977 337.428 140.011 337.431 140.044C337.433 140.067 337.435 140.092 337.437 140.115C337.44 140.154 337.443 140.193 337.446 140.233C337.447 140.253 337.449 140.272 337.45 140.293C337.453 140.33 337.455 140.368 337.458 140.406C337.459 140.423 337.46 140.44 337.461 140.457C337.464 140.512 337.468 140.567 337.471 140.622C337.471 140.627 337.471 140.631 337.471 140.636C337.474 140.689 337.477 140.743 337.48 140.797C337.48 140.81 337.481 140.823 337.483 140.837C337.486 140.888 337.489 140.939 337.491 140.99C337.491 140.998 337.491 141.006 337.492 141.013C337.498 141.138 337.504 141.266 337.509 141.396C337.509 141.399 337.509 141.402 337.509 141.405V141.396L337.51 141.398Z" fill="#4799A6"/>
<path d="M332.634 134.701C332.634 134.701 330.016 134.674 329.385 135.743C328.754 136.813 327.372 142.567 328.094 144.482C328.816 146.397 330.165 143.689 330.914 142.516C331.662 141.344 332.634 134.701 332.634 134.701Z" fill="#4799A6"/>
<path d="M332.608 134.216V134.545C332.608 134.545 332.535 135.569 333.579 135.718C334.621 135.869 335.412 135.319 335.383 134.529C335.29 133.916 335.187 133.496 335.18 132.989C335.176 132.802 335.188 132.601 335.217 132.376L333.196 132.327L332.601 132.445L332.609 134.216H332.608Z" fill="#FFB27D"/>
<path d="M332.6 132.445L332.608 134.216C332.823 134.337 333.065 134.411 333.337 134.411C334.265 134.411 334.866 133.587 335.18 132.989C335.177 132.802 335.188 132.601 335.217 132.376L333.197 132.327L332.601 132.445H332.6Z" fill="#E2915A"/>
<path d="M335.371 131.982C335.136 133.509 333.509 133.459 332.805 133.363C332.607 133.336 332.482 133.305 332.482 133.305C332.259 133.233 332.134 132.807 332.077 132.25C331.962 131.147 332.107 129.529 332.261 129.114C332.493 128.49 332.929 127.818 334.568 128.304C336.208 128.79 335.671 130.026 335.371 131.981V131.982Z" fill="#FFB27D"/>
<path d="M329.956 138.989C329.956 138.989 328.943 141.695 328.973 142.508C328.973 142.508 329.475 142.487 329.956 142.661C330.748 142.946 329.956 138.99 329.956 138.99V138.989Z" fill="#317B86"/>
<path d="M331.758 127.662C331.758 127.662 332.479 127.595 333.33 127.148C334.02 126.784 334.892 127.184 335.175 127.365C335.167 127.31 335.148 127.235 335.106 127.159C335.106 127.159 335.233 127.268 335.251 127.42C335.264 127.432 335.271 127.44 335.267 127.443C335.267 127.443 335.411 127.411 335.503 127.462C335.503 127.462 335.438 127.451 335.415 127.501C335.413 127.506 335.409 127.511 335.405 127.515C336.483 128.146 336.581 130.206 336.235 130.682C335.819 131.256 335.318 132.548 335.318 132.548C335.318 132.548 335.135 132.242 335.211 131.737C335.287 131.232 334.926 131.232 334.471 131.003C334.016 130.774 334.396 130.132 333.997 129.741C333.598 129.351 332.139 129.58 332.157 129.283C331.615 129.044 331.756 127.731 331.756 127.663L331.758 127.662Z" fill="#233862"/>
<path d="M335.7 144.009C335.272 145.201 330.648 145.817 329.597 145.942C329.641 145.425 329.683 144.771 329.715 143.942L335.7 144.009Z" fill="#317B86"/>
<path d="M334.685 144.735C334.729 144.735 335.713 144.557 335.889 144.45C336.066 144.343 336.871 142.957 336.343 142.602C335.815 142.247 334.398 143.669 334.398 143.669L334.685 144.735Z" fill="#FFB27D"/>
<path d="M328.701 145.146C328.701 145.146 332.506 145.396 335.061 144.734C335.061 144.734 335.125 143.841 334.323 143.444C334.323 143.444 330.343 142.424 329.386 142.708C328.429 142.993 328.702 145.146 328.702 145.146H328.701Z" fill="#4799A6"/>
<path d="M337.44 141.532C336.65 142.684 335.618 143.625 334.48 143.845C334.471 143.828 334.136 143.212 334.199 142.307C334.228 141.888 334.342 141.408 334.613 140.895C334.697 140.738 334.771 140.553 334.838 140.35C335.459 138.431 335.366 134.732 335.366 134.732C335.366 134.732 338.005 135.066 338.828 136.488C339.331 137.359 338.69 139.71 337.441 141.531L337.44 141.532Z" fill="#4799A6"/>
<path d="M332.805 133.363C332.607 133.336 332.482 133.305 332.482 133.305C332.259 133.233 332.134 132.807 332.076 132.25C332.495 132.375 332.687 132.766 332.766 132.933C332.803 133.008 332.81 133.176 332.805 133.363Z" fill="#E2915A"/>
<path d="M331.741 134.226C331.741 134.226 330.83 132.406 331.538 132.327C332.247 132.248 332.532 132.828 332.634 133.042C332.736 133.255 332.607 134.216 332.607 134.216L331.74 134.226H331.741Z" fill="#FFB27D"/>
<path d="M335.216 142.247C335.187 142.477 335.131 142.689 335.06 142.879C334.837 143.477 334.48 143.846 334.48 143.846C332.112 142.553 331.634 138.114 331.553 135.674C331.521 134.694 331.553 134.036 331.553 134.036C332.621 133.608 332.922 134.351 332.922 134.351C332.922 134.351 334.182 137.979 334.837 140.351C335.088 141.258 335.249 141.982 335.217 142.247H335.216Z" fill="#4799A6"/>
<path d="M337.44 141.532C336.65 142.684 335.618 143.625 334.48 143.845C332.113 142.552 331.634 138.113 331.554 135.673C331.554 135.673 332.674 140.59 334.199 142.308C334.474 142.619 334.763 142.825 335.061 142.879C335.061 142.879 336.983 142.222 337.387 141.602C337.416 141.558 337.433 141.536 337.441 141.533L337.44 141.532Z" fill="#317B86"/>
</g>
<defs>
<linearGradient id="paint0_linear_162_443" x1="2.04581e-06" y1="73" x2="405.579" y2="85.4161" gradientUnits="userSpaceOnUse">
<stop stop-color="#FDFDFF"/>
<stop offset="1" stop-color="#FAFBFF"/>
</linearGradient>
<linearGradient id="paint1_linear_162_443" x1="2.04581e-06" y1="73" x2="405.579" y2="85.4161" gradientUnits="userSpaceOnUse">
<stop stop-color="#FBFBFF"/>
<stop offset="1" stop-color="#F6F6FB"/>
</linearGradient>
<linearGradient id="paint2_linear_162_443" x1="105.867" y1="121.466" x2="291.797" y2="121.466" gradientUnits="userSpaceOnUse">
<stop stop-color="#FAFBFF"/>
<stop offset="1" stop-color="#ECEFFD"/>
</linearGradient>
<linearGradient id="paint3_linear_162_443" x1="82.1537" y1="135.93" x2="82.1537" y2="176.219" gradientUnits="userSpaceOnUse">
<stop stop-color="#28D5E2"/>
<stop offset="1" stop-color="#B1EAD5"/>
</linearGradient>
<linearGradient id="paint4_linear_162_443" x1="53.8092" y1="157.66" x2="104.772" y2="157.66" gradientUnits="userSpaceOnUse">
<stop stop-color="#28D5E2"/>
<stop offset="1" stop-color="#B1EAD5"/>
</linearGradient>
<linearGradient id="paint5_linear_162_443" x1="64.6342" y1="121.255" x2="46.4258" y2="139.816" gradientUnits="userSpaceOnUse">
<stop stop-color="#E7EDFE"/>
<stop offset="1" stop-color="#FDFEFF"/>
</linearGradient>
<linearGradient id="paint6_linear_162_443" x1="70.9494" y1="128.5" x2="60" y2="128.5" gradientUnits="userSpaceOnUse">
<stop stop-color="#28D5E2"/>
<stop offset="1" stop-color="#B1EAD5"/>
</linearGradient>
<linearGradient id="paint7_linear_162_443" x1="81.5" y1="42.2568" x2="81.5" y2="81.74" gradientUnits="userSpaceOnUse">
<stop stop-color="#28D5E2"/>
<stop offset="1" stop-color="#B1EAD5"/>
</linearGradient>
<linearGradient id="paint8_linear_162_443" x1="94.5403" y1="85.2301" x2="151.434" y2="120.844" gradientUnits="userSpaceOnUse">
<stop stop-color="#3BD8E0"/>
<stop offset="1" stop-color="#AFEAD5" stop-opacity="0"/>
</linearGradient>
<linearGradient id="paint9_linear_162_443" x1="79.1115" y1="156.463" x2="185.412" y2="203.256" gradientUnits="userSpaceOnUse">
<stop stop-color="#3BD8E0"/>
<stop offset="1" stop-color="#AFEAD5" stop-opacity="0"/>
</linearGradient>
<linearGradient id="paint10_linear_162_443" x1="245.337" y1="128.963" x2="320.835" y2="187.458" gradientUnits="userSpaceOnUse">
<stop stop-color="#3BD8E0"/>
<stop offset="1" stop-color="#AFEAD5" stop-opacity="0"/>
</linearGradient>
<linearGradient id="paint11_linear_162_443" x1="336.617" y1="93.1064" x2="227.44" y2="66.8358" gradientUnits="userSpaceOnUse">
<stop stop-color="#AFEAD5" stop-opacity="0"/>
<stop offset="1" stop-color="#3BD8E0"/>
</linearGradient>
<linearGradient id="paint12_linear_162_443" x1="214.525" y1="18" x2="214.525" y2="122.037" gradientUnits="userSpaceOnUse">
<stop stop-color="#63E5B1" stop-opacity="0"/>
<stop offset="1" stop-color="#50E0E2"/>
</linearGradient>
<linearGradient id="paint13_linear_162_443" x1="214.525" y1="122.562" x2="214.525" y2="154.357" gradientUnits="userSpaceOnUse">
<stop stop-color="#34C0D6"/>
<stop offset="1" stop-color="#01D2E8"/>
</linearGradient>
<linearGradient id="paint14_linear_162_443" x1="206.241" y1="51.3998" x2="217.023" y2="115.693" gradientUnits="userSpaceOnUse">
<stop stop-color="#4ACBBF"/>
<stop offset="1" stop-color="#0FA4B6"/>
</linearGradient>
<linearGradient id="paint15_linear_162_443" x1="206.158" y1="62.6607" x2="213.906" y2="115.762" gradientUnits="userSpaceOnUse">
<stop stop-color="#9CE9D8"/>
<stop offset="1" stop-color="#18D7E7"/>
</linearGradient>
<linearGradient id="paint16_linear_162_443" x1="206.241" y1="51.3998" x2="217.023" y2="115.693" gradientUnits="userSpaceOnUse">
<stop stop-color="#69D9CF"/>
<stop offset="1" stop-color="#16CAE0"/>
</linearGradient>
<linearGradient id="paint17_linear_162_443" x1="206.158" y1="62.6607" x2="213.906" y2="115.762" gradientUnits="userSpaceOnUse">
<stop stop-color="#9CE9D8"/>
<stop offset="1" stop-color="#18D7E7"/>
</linearGradient>
<linearGradient id="paint18_linear_162_443" x1="188.892" y1="82.7007" x2="200.725" y2="101.608" gradientUnits="userSpaceOnUse">
<stop stop-color="#9CE9D8"/>
<stop offset="1" stop-color="#18D7E7"/>
</linearGradient>
<linearGradient id="paint19_linear_162_443" x1="189.55" y1="83.1613" x2="215.636" y2="110.456" gradientUnits="userSpaceOnUse">
<stop stop-color="#9CE9D8"/>
<stop offset="1" stop-color="#18D7E7"/>
</linearGradient>
<linearGradient id="paint20_linear_162_443" x1="195.754" y1="90.064" x2="204.671" y2="103.889" gradientUnits="userSpaceOnUse">
<stop stop-color="#9CE9D8"/>
<stop offset="1" stop-color="#18D7E7"/>
</linearGradient>
<linearGradient id="paint21_linear_162_443" x1="225.025" y1="53.2294" x2="234.735" y2="72.7967" gradientUnits="userSpaceOnUse">
<stop stop-color="#72CFDB"/>
<stop offset="1" stop-color="#44ABB8"/>
</linearGradient>
<linearGradient id="paint22_linear_162_443" x1="130" y1="45.8393" x2="148.922" y2="51.3398" gradientUnits="userSpaceOnUse">
<stop stop-color="#F7F8FF"/>
<stop offset="1" stop-color="#EBF0FE"/>
</linearGradient>
<linearGradient id="paint23_linear_162_443" x1="134.988" y1="47.6115" x2="134.988" y2="73" gradientUnits="userSpaceOnUse">
<stop stop-color="#EEF2FE"/>
<stop offset="1" stop-color="#F4F7FD" stop-opacity="0"/>
</linearGradient>
<linearGradient id="paint24_linear_162_443" x1="145.012" y1="51.6093" x2="149.783" y2="72.0672" gradientUnits="userSpaceOnUse">
<stop stop-color="#E3E7F3"/>
<stop offset="1" stop-color="#F5F7FE" stop-opacity="0"/>
</linearGradient>
<linearGradient id="paint25_linear_162_443" x1="159" y1="182.839" x2="177.922" y2="188.34" gradientUnits="userSpaceOnUse">
<stop stop-color="#F7F8FF"/>
<stop offset="1" stop-color="#EBF0FE"/>
</linearGradient>
<linearGradient id="paint26_linear_162_443" x1="163.988" y1="184.612" x2="163.988" y2="210" gradientUnits="userSpaceOnUse">
<stop stop-color="#EEF2FE"/>
<stop offset="1" stop-color="#F4F7FD" stop-opacity="0"/>
</linearGradient>
<linearGradient id="paint27_linear_162_443" x1="174.012" y1="188.609" x2="178.783" y2="209.067" gradientUnits="userSpaceOnUse">
<stop stop-color="#E3E7F3"/>
<stop offset="1" stop-color="#F5F7FE" stop-opacity="0"/>
</linearGradient>
<linearGradient id="paint28_linear_162_443" x1="371" y1="118.839" x2="389.922" y2="124.34" gradientUnits="userSpaceOnUse">
<stop stop-color="#F7F8FF"/>
<stop offset="1" stop-color="#EBF0FE"/>
</linearGradient>
<linearGradient id="paint29_linear_162_443" x1="375.988" y1="120.612" x2="375.988" y2="146" gradientUnits="userSpaceOnUse">
<stop stop-color="#EEF2FE"/>
<stop offset="1" stop-color="#F4F7FD" stop-opacity="0"/>
</linearGradient>
<linearGradient id="paint30_linear_162_443" x1="386.012" y1="124.609" x2="390.783" y2="145.067" gradientUnits="userSpaceOnUse">
<stop stop-color="#E3E7F3"/>
<stop offset="1" stop-color="#F5F7FE" stop-opacity="0"/>
</linearGradient>
<linearGradient id="paint31_linear_162_443" x1="120" y1="124.88" x2="134.207" y2="129.142" gradientUnits="userSpaceOnUse">
<stop stop-color="#F7F8FF"/>
<stop offset="1" stop-color="#EBF0FE"/>
</linearGradient>
<linearGradient id="paint32_linear_162_443" x1="124" y1="126" x2="124" y2="146" gradientUnits="userSpaceOnUse">
<stop stop-color="#EEF2FE"/>
<stop offset="1" stop-color="#F4F7FD" stop-opacity="0"/>
</linearGradient>
<linearGradient id="paint33_linear_162_443" x1="132" y1="129.149" x2="135.821" y2="145.245" gradientUnits="userSpaceOnUse">
<stop stop-color="#E3E7F3"/>
<stop offset="1" stop-color="#F5F7FE" stop-opacity="0"/>
</linearGradient>
<linearGradient id="paint34_linear_162_443" x1="53.9907" y1="60.9895" x2="103.721" y2="60.9895" gradientUnits="userSpaceOnUse">
<stop stop-color="#28D5E2"/>
<stop offset="1" stop-color="#B1EAD5"/>
</linearGradient>
<linearGradient id="paint35_linear_162_443" x1="53.9907" y1="50.9895" x2="103.721" y2="50.9895" gradientUnits="userSpaceOnUse">
<stop stop-color="#28D5E2"/>
<stop offset="1" stop-color="#B1EAD5"/>
</linearGradient>
<linearGradient id="paint36_linear_162_443" x1="53.9907" y1="40.9895" x2="103.721" y2="40.9895" gradientUnits="userSpaceOnUse">
<stop stop-color="#28D5E2"/>
<stop offset="1" stop-color="#B1EAD5"/>
</linearGradient>
<linearGradient id="paint37_linear_162_443" x1="76.3704" y1="30.5" x2="88.4449" y2="27.2212" gradientUnits="userSpaceOnUse">
<stop stop-color="#F7F8FF"/>
<stop offset="1" stop-color="#EBF0FE"/>
</linearGradient>
<linearGradient id="paint38_linear_162_443" x1="82" y1="32.4988" x2="74" y2="32.4988" gradientUnits="userSpaceOnUse">
<stop stop-color="#EEF2FE"/>
<stop offset="1" stop-color="#F4F7FD"/>
</linearGradient>
<linearGradient id="paint39_linear_162_443" x1="87.0132" y1="34.5873" x2="83.6597" y2="37.1946" gradientUnits="userSpaceOnUse">
<stop stop-color="#EFF3FE"/>
<stop offset="1" stop-color="#FAFBFF"/>
</linearGradient>
<linearGradient id="paint40_linear_162_443" x1="332.867" y1="31.3742" x2="332.867" y2="54.5509" gradientUnits="userSpaceOnUse">
<stop stop-color="#28D5E2"/>
<stop offset="1" stop-color="#B1EAD5"/>
</linearGradient>
<linearGradient id="paint41_linear_162_443" x1="287.18" y1="167.571" x2="354.299" y2="167.571" gradientUnits="userSpaceOnUse">
<stop stop-color="#28D5E2"/>
<stop offset="1" stop-color="#B1EAD5"/>
</linearGradient>
<linearGradient id="paint42_linear_162_443" x1="322" y1="126.767" x2="322" y2="144.879" gradientUnits="userSpaceOnUse">
<stop stop-color="#28D5E2"/>
<stop offset="1" stop-color="#B1EAD5"/>
</linearGradient>
</defs>
</svg>
