<svg width="52" height="52" viewBox="0 0 52 52" fill="none" xmlns="http://www.w3.org/2000/svg">
    <path fill-rule="evenodd" clip-rule="evenodd" d="M41.495 45.14C42.5996 45.14 43.495 44.2446 43.495 43.14V15.925L33.4025 6H11C9.89543 6 9 6.89543 9 8V43.14C9 44.2446 9.89543 45.14 11 45.14H41.495ZM33.555 16.355V10.035L39.875 16.355H33.555ZM14.07 13.6325H28.9475V16.18H14.07V13.6325ZM14.0275 20.875H38.4725V23.42H14.0275V20.875ZM31.5751 28.686C31.9476 28.5335 32.4276 28.461 33.0101 28.461C33.3484 28.4572 33.6856 28.4992 34.0126 28.586C34.3009 28.658 34.5715 28.7882 34.8076 28.9685C35.0301 29.1435 35.2026 29.371 35.3326 29.651C35.4626 29.931 35.5251 30.2635 35.5251 30.6485C35.5251 31.171 35.3951 31.6435 35.1401 32.0635C34.8851 32.4835 34.5726 32.891 34.2126 33.2885C33.8526 33.686 33.4776 34.0785 33.0851 34.471C32.6926 34.8635 32.3701 35.291 32.1126 35.756C31.9331 36.1856 31.8072 36.6356 31.7376 37.096C31.6626 37.581 31.6226 38.116 31.6226 38.696H34.0026C33.9859 38.0499 34.0902 37.4063 34.3101 36.7985C34.5126 36.2785 34.7626 35.821 35.0626 35.4235C35.3626 35.026 35.6876 34.666 36.0426 34.3385C36.4001 34.011 36.7276 33.676 37.0251 33.3235C37.3226 32.971 37.5726 32.5885 37.7776 32.1685C37.9826 31.7485 38.0826 31.241 38.0826 30.6485C38.0826 29.946 37.9476 29.321 37.6826 28.766C37.4234 28.2254 37.0528 27.7457 36.5951 27.3585C36.1401 26.9735 35.6026 26.681 34.9851 26.4835C34.3651 26.286 33.7051 26.186 33.0076 26.186C32.1901 26.186 31.4676 26.2985 30.8376 26.5185C30.2076 26.7385 29.6676 27.0585 29.2101 27.471C28.7576 27.886 28.3951 28.391 28.1276 28.9785C27.8601 29.566 27.6826 30.2235 27.6026 30.946L29.9301 31.436C29.9723 31.0386 30.0518 30.646 30.1676 30.2635C30.2776 29.901 30.4501 29.5835 30.6751 29.316C30.9001 29.0485 31.2026 28.8385 31.5751 28.686ZM33.6026 39.566C33.4051 39.4785 33.1951 39.4335 32.9726 39.4335C32.5274 39.4362 32.1006 39.6119 31.7826 39.9235C31.4785 40.2392 31.3083 40.6602 31.3076 41.0985C31.3059 41.313 31.347 41.5256 31.4286 41.7239C31.5101 41.9223 31.6305 42.1023 31.7826 42.2535C32.014 42.4905 32.3118 42.6518 32.6367 42.7161C32.9616 42.7804 33.2984 42.7446 33.6026 42.6135C33.9005 42.4864 34.1552 42.2756 34.3358 42.0067C34.5164 41.7379 34.6152 41.4224 34.6201 41.0985C34.6154 40.7724 34.517 40.4545 34.3366 40.1827C34.1561 39.911 33.9014 39.6969 33.6026 39.566Z" fill="#36363D"/>
</svg>
