<svg xmlns="http://www.w3.org/2000/svg" width="18" height="18" fill="none" viewBox="0 0 18 18"><g clip-path="url(#clip0_179_159)"><path fill="#fff" fill-rule="evenodd" d="M0 0V18H18V0H0ZM6 14.25H3.75V6H6V14.25ZM4.875 5.049C4.1505 5.049 3.5625 4.4565 3.5625 3.726C3.5625 2.9955 4.1505 2.403 4.875 2.403C5.5995 2.403 6.1875 2.9955 6.1875 3.726C6.1875 4.4565 5.60025 5.049 4.875 5.049ZM15 14.25H12.75V10.047C12.75 7.521 9.75 7.71225 9.75 10.047V14.25H7.5V6H9.75V7.32375C10.7977 5.38425 15 5.241 15 9.18075V14.25Z" clip-rule="evenodd"/></g><defs><clipPath id="clip0_179_159"><rect width="18" height="18" fill="#fff"/></clipPath></defs></svg>