<svg xmlns="http://www.w3.org/2000/svg" width="18" height="18" fill="none" viewBox="0 0 18 18"><g clip-path="url(#clip0_179_157)"><path fill="#fff" fill-rule="evenodd" d="M9 0C4.0305 0 0 4.029 0 9C0 13.9703 4.0305 18 9 18C13.9703 18 18 13.9703 18 9C18 4.029 13.9703 0 9 0ZM11.418 13.4032C11.559 13.503 11.7405 13.5277 11.9025 13.467C12.0638 13.4055 12.183 13.2668 12.219 13.0988C12.5992 11.3123 13.5217 6.78975 13.8675 5.16525C13.8938 5.04225 13.8503 4.91475 13.7543 4.833C13.6575 4.75125 13.524 4.728 13.4055 4.7715C11.571 5.451 5.92125 7.5705 3.612 8.42475C3.46575 8.4795 3.3705 8.61975 3.375 8.775C3.38025 8.9295 3.4845 9.06375 3.6345 9.10875C4.67025 9.4185 6.02925 9.84975 6.02925 9.84975C6.02925 9.84975 6.6645 11.7682 6.99525 12.7432C7.03725 12.8662 7.13325 12.9622 7.25925 12.9952C7.386 13.0282 7.52025 12.9937 7.61475 12.9045C8.1465 12.4027 8.9685 11.6265 8.9685 11.6265C8.9685 11.6265 10.5315 12.7718 11.418 13.4032ZM6.60075 9.60675L7.33575 12.03L7.49925 10.4955C7.49925 10.4955 10.3365 7.93575 11.955 6.477C12.0022 6.43425 12.0082 6.36225 11.9692 6.312C11.9303 6.26175 11.8582 6.24975 11.805 6.28425C9.93 7.48125 6.60075 9.60675 6.60075 9.60675Z" clip-rule="evenodd"/></g><defs><clipPath id="clip0_179_157"><rect width="18" height="18" fill="#fff"/></clipPath></defs></svg>