<svg xmlns="http://www.w3.org/2000/svg" width="30" height="30" fill="none" viewBox="0 0 30 30"><path fill="url(#paint0_linear_119_147)" fill-rule="evenodd" d="M22.6539 16.6289C22.5556 17.0031 22.4423 17.4029 22.3123 17.821C22.4431 17.4305 22.5579 17.0329 22.6539 16.6289ZM15 27.6827C15.2857 27.5478 15.5671 27.401 15.8433 27.2416C21.2346 24.1289 23.0501 16.773 23.5166 14.3234C28.9603 18.3767 30.4247 26.987 29.9006 27.1412C29.855 27.1545 29.756 27.1922 29.609 27.2481C28.0102 27.856 20.7404 30.6203 15.012 27.7433C15.0047 27.7491 15.0009 27.752 15.0009 27.752L14.9891 27.7427C9.26054 30.6206 1.9899 27.8561 0.39098 27.2481L0.390971 27.2481L0.390941 27.2481L0.390794 27.248C0.243945 27.1922 0.144966 27.1545 0.0994495 27.1412C-0.424665 26.987 1.03972 18.3767 6.48344 14.3234C6.94993 16.773 8.76545 24.1289 14.1567 27.2416C14.4329 27.401 14.7143 27.5478 15 27.6827ZM22.9829 13.6822C21.4679 13.0894 13.4393 10.2206 7.67537 13.5484C7.45033 13.6783 7.23105 13.8158 7.01743 13.96L7.01732 13.93L7.01727 13.9295C7.01727 13.9295 7.01729 13.9295 7.01732 13.9295L7.01717 13.8855C7.01717 6.85347 13.3942 1.39832 14.7626 0.227818C14.8844 0.123572 14.9666 0.0533119 15.0009 0.0189494C15.4174 -0.397523 22.8513 6.11035 22.9829 13.6822ZM22.9061 13.8972C22.9309 13.9143 22.9557 13.9315 22.9804 13.9488L22.9827 13.9295C22.9827 13.9295 22.9566 13.9181 22.9061 13.8972Z" clip-rule="evenodd"/><circle cx="15.127" cy="18.489" r="4.202" fill="url(#paint1_linear_119_147)"/><defs><linearGradient id="paint0_linear_119_147" x1="13" x2="21.535" y1="14.514" y2="32.156" gradientUnits="userSpaceOnUse"><stop offset=".104" stop-color="#F6E085"/><stop offset=".55" stop-color="#A8E9D6"/><stop offset="1" stop-color="#3BD8E0"/></linearGradient><linearGradient id="paint1_linear_119_147" x1="13.867" x2="16.948" y1="16.668" y2="23.251" gradientUnits="userSpaceOnUse"><stop offset=".104" stop-color="#EBD93E"/><stop offset=".55" stop-color="#C0E041"/><stop offset="1" stop-color="#62CED5"/></linearGradient></defs></svg>