<svg xmlns="http://www.w3.org/2000/svg" width="18" height="18" fill="none" viewBox="0 0 18 18"><g clip-path="url(#clip0_179_155)"><path fill="#fff" fill-rule="evenodd" d="M18 3.41779C17.3377 3.71179 16.626 3.90979 15.879 3.99904C16.6418 3.54229 17.2275 2.81854 17.5028 1.95604C16.7895 2.37904 15.999 2.68654 15.1575 2.85229C14.4847 2.13454 13.524 1.68604 12.462 1.68604C10.0777 1.68604 8.32575 3.91054 8.86425 6.21979C5.796 6.06604 3.075 4.59604 1.25325 2.36179C0.28575 4.02154 0.7515 6.19278 2.3955 7.29228C1.791 7.27278 1.221 7.10704 0.72375 6.83029C0.68325 8.54104 1.9095 10.1415 3.6855 10.4978C3.16575 10.6388 2.5965 10.6718 2.0175 10.5608C2.487 12.0278 3.8505 13.095 5.4675 13.125C3.915 14.3423 1.959 14.886 0 14.655C1.63425 15.7028 3.576 16.314 5.661 16.314C12.5175 16.314 16.3912 10.5233 16.1572 5.32954C16.8787 4.80828 17.505 4.15804 18 3.41779Z" clip-rule="evenodd"/></g><defs><clipPath id="clip0_179_155"><rect width="18" height="18" fill="#fff"/></clipPath></defs></svg>