<svg xmlns="http://www.w3.org/2000/svg" width="52" height="52" fill="none" viewBox="0 0 52 52"><g clip-path="url(#clip0_139_2941)"><path fill="#E9EDF5" d="M44 17.8182V41.2149C44 42.6663 43.0263 43.8609 41.7909 43.9885L41.57 44H10.4283C9.16343 44 8.12108 42.8857 8.00981 41.4685L8 41.2149V17.8182H44ZM26.1243 21.4117L26.0638 21.5917L22.6765 34.2375C22.568 34.6408 22.6178 35.0704 22.8157 35.4382C23.0136 35.806 23.3447 36.0842 23.7412 36.2158C24.1376 36.3474 24.5693 36.3224 24.9479 36.1459C25.3265 35.9695 25.6233 35.6549 25.7775 35.2667L25.838 35.0851L29.2253 22.4393C29.3325 22.0363 29.2818 21.6076 29.0835 21.2408C28.8853 20.8739 28.5545 20.5966 28.1587 20.4654C27.7628 20.3343 27.3319 20.3592 26.9538 20.535C26.5757 20.7109 26.279 21.0244 26.1243 21.4117ZM33.6369 22.7797C33.3827 22.8549 33.1527 22.9956 32.9701 23.1877C32.7874 23.3799 32.6585 23.6167 32.5962 23.8743C32.5376 24.1026 32.5298 24.3409 32.5733 24.5724C32.6168 24.804 32.7107 25.0232 32.8482 25.2145L32.9775 25.3683L35.8476 28.3842L32.9775 31.4C32.6985 31.6961 32.5439 32.0879 32.5455 32.4947C32.5455 32.9038 32.7009 33.2982 32.9775 33.5878C33.1108 33.7305 33.2719 33.8445 33.4508 33.9227C33.6298 34.001 33.8229 34.0418 34.0182 34.0427C34.3445 34.0416 34.6605 33.9283 34.9133 33.722L35.0589 33.5878L38.9698 29.4805C39.2248 29.2092 39.3771 28.8574 39.4004 28.4857C39.4237 28.1141 39.3165 27.746 39.0974 27.4449L38.9698 27.2911L35.0589 23.1805C34.8812 22.9902 34.6546 22.8521 34.4039 22.7815C34.1532 22.7108 33.888 22.7102 33.6369 22.7797H33.6369ZM17.4042 23.0038L17.252 23.1314L13.3411 27.2387C13.0859 27.5097 12.9335 27.8613 12.9102 28.2327C12.8869 28.6041 12.9942 28.972 13.2135 29.2727L13.3411 29.4233L17.252 33.5322C17.3863 33.6711 17.5475 33.7812 17.7258 33.8557C17.904 33.9303 18.0956 33.9678 18.2888 33.966C18.482 33.9641 18.6728 33.923 18.8495 33.845C19.0263 33.7671 19.1854 33.654 19.3171 33.5126C19.5669 33.2444 19.7174 32.8988 19.7435 32.5332C19.7697 32.1677 19.6701 31.8042 19.4611 31.5031L19.3335 31.3444L16.4649 28.3286L19.3335 25.3144C19.5885 25.0147 19.7245 24.6316 19.7154 24.2381C19.7064 23.8446 19.553 23.4682 19.2843 23.1806C19.047 22.9254 18.7241 22.7663 18.3771 22.7338C18.0301 22.7012 17.6833 22.7973 17.4025 23.0038L17.4042 23.0038ZM8 10.7818C8 9.332 8.97035 8.14073 10.2075 8.01146L10.4283 8H41.57C42.8349 8.00165 43.874 9.11108 43.9902 10.5265L44 10.7818V14.5455H8V10.7818Z"/></g><defs><clipPath id="clip0_139_2941"><rect width="36" height="36" fill="#fff" transform="translate(8 8)"/></clipPath></defs></svg>