<svg xmlns="http://www.w3.org/2000/svg" width="18" height="18" fill="none" viewBox="0 0 18 18"><g clip-path="url(#clip0_119_608)"><path fill="#3A3A3A" fill-rule="evenodd" d="M18 18H0V0H18V18ZM14.9775 13.7633V13.5615L14.0422 12.6435C13.9597 12.5805 13.9185 12.477 13.9357 12.3743V5.62575C13.9185 5.523 13.9597 5.4195 14.0422 5.3565L15 4.4385V4.23675H11.6835L9.3195 10.134L6.63 4.23675H3.1515V4.4385L4.272 5.78775C4.3815 5.8875 4.43775 6.033 4.42275 6.18V11.484C4.45575 11.6753 4.395 11.871 4.26075 12.0105L3 13.539V13.7407H6.5745V13.539L5.31375 12.0105C5.178 11.871 5.11425 11.6768 5.13975 11.484V6.897L8.277 13.7407H8.6415L11.3363 6.897V12.3517C11.3363 12.4972 11.3363 12.5257 11.241 12.621L10.272 13.5615V13.7633H14.9775Z" clip-rule="evenodd"/></g><defs><clipPath id="clip0_119_608"><rect width="18" height="18" fill="#fff"/></clipPath></defs></svg>