<svg xmlns="http://www.w3.org/2000/svg" width="36" height="36" fill="none" viewBox="0 0 36 36"><path fill="url(#paint0_linear_168_147)" fill-rule="evenodd" d="M22.6539 19.6289C22.5556 20.0031 22.4423 20.4029 22.3123 20.821C22.4431 20.4305 22.5579 20.0329 22.6539 19.6289ZM15 30.6827C15.2857 30.5478 15.5671 30.401 15.8433 30.2416C21.2346 27.1289 23.0501 19.773 23.5166 17.3234C28.9603 21.3767 30.4247 29.987 29.9006 30.1412C29.855 30.1545 29.756 30.1922 29.609 30.2481C28.0102 30.856 20.7404 33.6203 15.012 30.7433C15.0047 30.7491 15.0009 30.752 15.0009 30.752L14.9891 30.7427C9.26054 33.6206 1.9899 30.8561 0.39098 30.2481L0.390971 30.2481C0.244024 30.1922 0.144984 30.1545 0.0994495 30.1412C-0.424665 29.987 1.03972 21.3767 6.48344 17.3234C6.94993 19.773 8.76545 27.1289 14.1567 30.2416C14.4329 30.401 14.7143 30.5478 15 30.6827ZM22.9829 16.6822C21.4679 16.0894 13.4393 13.2206 7.67537 16.5484C7.45033 16.6783 7.23105 16.8158 7.01743 16.96L7.01732 16.93L7.01727 16.9295C7.01727 16.9295 7.01729 16.9295 7.01732 16.9295L7.01717 16.8855C7.01717 9.85347 13.3942 4.39832 14.7626 3.22782C14.8844 3.12357 14.9666 3.05331 15.0009 3.01895C15.4174 2.60248 22.8513 9.11035 22.9829 16.6822ZM22.9061 16.8972C22.9309 16.9143 22.9557 16.9315 22.9804 16.9488L22.9827 16.9295C22.9827 16.9295 22.9566 16.9181 22.9061 16.8972Z" clip-rule="evenodd"/><circle cx="15.127" cy="21.489" r="4.202" fill="url(#paint1_linear_168_147)"/><defs><linearGradient id="paint0_linear_168_147" x1="13" x2="21.535" y1="17.514" y2="35.156" gradientUnits="userSpaceOnUse"><stop offset=".104" stop-color="#F6E085"/><stop offset=".55" stop-color="#A8E9D6"/><stop offset="1" stop-color="#3BD8E0"/></linearGradient><linearGradient id="paint1_linear_168_147" x1="13.866" x2="16.948" y1="19.668" y2="26.251" gradientUnits="userSpaceOnUse"><stop offset=".104" stop-color="#EBD93E"/><stop offset=".55" stop-color="#C0E041"/><stop offset="1" stop-color="#62CED5"/></linearGradient></defs></svg>